<?xml version="1.0" encoding="UTF-8" standalone="no"?>
<svg
   width="297mm"
   height="210mm"
   viewBox="0 0 297 210"
   version="1.1"
   id="svg8"
   inkscape:version="1.1.1 (3bf5ae0d25, 2021-09-20)"
   sodipodi:docname="девочка.svg"
   inkscape:export-filename="C:\Users\User\Desktop\картинки\девочка.png"
   inkscape:export-xdpi="96"
   inkscape:export-ydpi="96"
   xmlns:inkscape="http://www.inkscape.org/namespaces/inkscape"
   xmlns:sodipodi="http://sodipodi.sourceforge.net/DTD/sodipodi-0.dtd"
   xmlns="http://www.w3.org/2000/svg"
   xmlns:svg="http://www.w3.org/2000/svg"
   xmlns:rdf="http://www.w3.org/1999/02/22-rdf-syntax-ns#"
   xmlns:cc="http://creativecommons.org/ns#"
   xmlns:dc="http://purl.org/dc/elements/1.1/">
  <defs
     id="defs2" />
  <sodipodi:namedview
     id="base"
     pagecolor="#ffffff"
     bordercolor="#666666"
     borderopacity="1.0"
     inkscape:pageopacity="0.0"
     inkscape:pageshadow="2"
     inkscape:zoom="0.49497475"
     inkscape:cx="346.48232"
     inkscape:cy="542.45192"
     inkscape:document-units="mm"
     inkscape:current-layer="layer1"
     inkscape:document-rotation="0"
     showgrid="false"
     inkscape:snap-global="false"
     inkscape:window-width="1366"
     inkscape:window-height="705"
     inkscape:window-x="-8"
     inkscape:window-y="-8"
     inkscape:window-maximized="1"
     showguides="false"
     inkscape:guide-bbox="true"
     inkscape:pagecheckerboard="0">
    <sodipodi:guide
       position="0,210"
       orientation="0,1122.5197"
       id="guide878" />
    <sodipodi:guide
       position="297,210"
       orientation="793.70079,0"
       id="guide880" />
    <sodipodi:guide
       position="297,0"
       orientation="0,-1122.5197"
       id="guide882" />
    <sodipodi:guide
       position="0,0"
       orientation="-793.70079,0"
       id="guide884" />
    <sodipodi:guide
       position="-16.036172,43.758354"
       orientation="1,0"
       id="guide886" />
  </sodipodi:namedview>
  <metadata
     id="metadata5">
    <rdf:RDF>
      <cc:Work
         rdf:about="">
        <dc:format>image/svg+xml</dc:format>
        <dc:type
           rdf:resource="http://purl.org/dc/dcmitype/StillImage" />
        <dc:title />
      </cc:Work>
    </rdf:RDF>
  </metadata>
  <g
     inkscape:label="Слой 1"
     inkscape:groupmode="layer"
     id="layer1">
    <path
       style="fill:#502d16;stroke:none;stroke-width:0.264583px;stroke-linecap:butt;stroke-linejoin:miter;stroke-opacity:1"
       d="m 88.198943,115.46043 c 0,0 -19.43031,19.37265 -21.381561,32.07235 -1.549939,10.08776 11.518965,19.63409 8.552624,29.39964 -2.095282,6.89792 -9.571518,12.17094 -16.570711,13.89802 -4.071725,1.00471 -12.294399,-2.6727 -12.294399,-2.6727 0,0 10.482219,11.55238 17.63979,12.82894 9.661983,1.72323 19.952432,-2.90631 28.330569,-8.01808 6.241815,-3.80833 10.839545,-10.0007 14.967095,-16.03618 3.01411,-4.40736 7.10741,-9.09545 6.94901,-14.43255 -0.53239,-17.93879 -26.192417,-47.03944 -26.192417,-47.03944 z"
       id="path841"
       sodipodi:nodetypes="cccccccccc" />
    <path
       style="fill:#784421;stroke:none;stroke-width:0.264583px;stroke-linecap:butt;stroke-linejoin:miter;stroke-opacity:1;fill-opacity:1"
       d="m 168.91434,62.54107 c 3.32618,-8.381121 14.60607,-12.002018 23.51972,-13.363477 14.9592,-2.28485 33.54563,-0.956672 44.36674,9.621702 14.15374,13.836253 15.57785,38.00844 13.89801,57.730215 -1.53091,17.97336 -27.81131,32.85854 -21.38156,49.71213 4.06325,10.65057 31.00327,14.43256 31.00327,14.43256 0,0 -27.91984,21.81564 -42.76313,17.63979 -11.04682,-3.10779 -13.89801,-19.77795 -20.31248,-27.79603 -2.13816,-2.6727 -4.97484,-4.91285 -6.41447,-8.01809 -11.30266,-24.37946 -8.95766,-53.04869 -15.50163,-79.11178 -1.77054,-7.051638 -9.0964,-14.089235 -6.41447,-20.84702 z"
       id="path837"
       sodipodi:nodetypes="ssssscsssss" />
    <ellipse
       style="opacity:1;fill:#fecd8d;stroke:none;stroke-width:1.165;stroke-linecap:round;fill-opacity:1"
       id="path833"
       cx="151.00728"
       cy="122.14217"
       rx="65.481033"
       ry="61.739262" />
    <path
       style="fill:#784421;stroke:none;stroke-width:0.264583px;stroke-linecap:butt;stroke-linejoin:miter;stroke-opacity:1;fill-opacity:1"
       d="M 145.92916,52.919365 135.77292,33.67596 c 0,0 17.53739,-7.485014 26.72695,-6.949009 13.74153,0.801511 38.48681,14.967096 38.48681,14.967096 l -21.9161,12.828936 z"
       id="path853"
       sodipodi:nodetypes="ccaccc" />
    <path
       style="fill:#784421;stroke:none;stroke-width:0.264583px;stroke-linecap:butt;stroke-linejoin:miter;stroke-opacity:1"
       d="m 159.82717,56.126599 c 3.55111,4.139752 9.73645,7.390955 10.15625,12.828939 0.47289,6.125745 -3.88837,12.761905 -9.08717,16.036171 -8.76538,5.520536 -20.96456,-0.417761 -31.00326,2.138156 -9.11729,2.321319 -18.41753,5.752302 -25.65788,11.759859 -9.739661,8.081316 -19.051299,18.675996 -21.916098,31.003266 -2.042314,8.78811 -1.562537,19.84875 4.276313,26.72695 1.823217,2.14776 8.091189,-0.14362 8.018086,2.6727 -0.225461,8.68596 -17.407113,10.94358 -25.123335,6.949 -12.613114,-6.52963 -13.955025,-25.8954 -14.432555,-40.09042 -0.392516,-11.66791 8.002436,-22.1143 9.621705,-33.675965 1.112118,-7.940585 -2.535541,-16.447633 0,-24.054257 4.225902,-12.677706 12.264595,-25.78057 24.054255,-32.072342 14.797259,-7.896835 34.699599,-8.966166 50.246669,-2.672696 9.46618,3.83192 14.19794,14.699384 20.84702,22.450639 z"
       id="path835"
       sodipodi:nodetypes="sssssssssssssss" />
    <path
       style="fill:#ff0000;stroke:none;stroke-width:0.31708px;stroke-linecap:butt;stroke-linejoin:miter;stroke-opacity:1"
       d="m 118.5164,7.8393516 c 0,0 -9.32934,10.7863054 -10.73685,17.5432084 -2.85108,13.686933 -4.58494,32.401027 5.68422,41.583899 5.40233,4.830869 14.53976,1.827559 21.47371,0 7.21037,-1.90041 16.20973,-4.217778 19.57898,-11.045721 2.21039,-4.479464 0.32473,-10.469508 -1.89475,-14.944215 C 145.51432,26.647222 118.5164,7.8393516 118.5164,7.8393516 Z"
       id="path849"
       sodipodi:nodetypes="caaaaac" />
    <ellipse
       style="opacity:1;fill:#aa0000;fill-opacity:1;stroke:none;stroke-width:1.40254;stroke-linecap:round"
       id="path845"
       cx="122.99456"
       cy="-84.717148"
       rx="26.898058"
       ry="6.3855147"
       transform="matrix(0.6713651,0.74112678,-0.64418757,0.76486756,0,0)" />
    <path
       style="fill:#ff0000;stroke:none;stroke-width:0.300288px;stroke-linecap:butt;stroke-linejoin:miter;stroke-opacity:1"
       d="m 221.14138,24.790027 c 0,0 3.74272,13.785144 2.46247,20.537623 -2.5933,13.677966 -7.90747,31.461189 -19.60017,35.46783 -6.15122,2.107786 -12.53639,-4.506091 -17.54418,-9.113751 -5.20742,-4.791335 -11.72649,-10.721767 -12.02344,-18.371547 -0.19482,-5.018628 3.50017,-9.674879 6.92287,-12.809075 10.96049,-10.036604 39.78245,-15.71108 39.78245,-15.71108 z"
       id="path851"
       sodipodi:nodetypes="caaaaac" />
    <path
       style="fill:#d09c58;fill-opacity:1;stroke:none;stroke-width:0.264583px;stroke-linecap:butt;stroke-linejoin:miter;stroke-opacity:1"
       d="m 190.87797,115.28274 c 0,0 -5.12975,-5.0161 -12.09523,-4.72471 -3.63318,0.15199 -7.68185,0.45395 -10.58334,2.64584 -2.3193,1.75208 -4.34672,7.55952 -4.34672,7.55952 l 3.77976,-3.2128 10.96131,-4.91369 z"
       id="path900"
       sodipodi:nodetypes="csacccc" />
    <path
       style="fill:#784421;fill-opacity:1;stroke:none;stroke-width:0.285404px;stroke-linecap:butt;stroke-linejoin:miter;stroke-opacity:1"
       d="m 164.97912,109.80558 c -0.92068,-1.21795 -2.5588,-1.72036 -1.13393,-5.27765 v -0.87961 c 0,0 13.87395,-4.232433 20.78868,-3.07864 7.48401,1.24879 20.7887,10.55532 20.7887,10.55532 0,0 -14.56466,-7.49134 -22.3006,-7.47668 -6.2996,0.012 -18.14285,6.15726 -18.14285,6.15726 z"
       id="path901"
       sodipodi:nodetypes="cccscsc" />
    <path
       style="fill:#784421;fill-opacity:1;stroke:none;stroke-width:0.21792px;stroke-linecap:butt;stroke-linejoin:miter;stroke-opacity:1"
       d="m 168.91434,61.800566 c -5.25391,4.153076 10.1704,8.862458 12.2944,14.142128 1.92337,4.780944 4.722,11.086 0,14.867366 -1.40111,1.122008 -6.41447,0.725239 -6.41447,0.725239 0,0 9.92579,4.363494 13.89801,2.538329 5.05043,-2.320584 1.45398,-8.217124 2.13816,-12.329033 0.74376,-4.469971 5.55482,-9.561623 2.13816,-13.416893 -4.44957,-5.020782 -18.43024,-10.972778 -24.05426,-6.527136 z"
       id="path839"
       sodipodi:nodetypes="aaacaaaa" />
    <ellipse
       style="opacity:1;fill:#aa0000;fill-opacity:1;stroke:none;stroke-width:1.40161;stroke-linecap:round"
       id="ellipse847"
       cx="-181.3311"
       cy="111.74926"
       rx="26.604786"
       ry="6.4474154"
       transform="matrix(-0.91682234,0.39929538,0.28216073,0.95936715,0,0)" />
    <ellipse
       style="opacity:1;fill:#ff2a2a;fill-opacity:1;stroke:none;stroke-width:2.0633;stroke-linecap:round"
       id="path843"
       cx="166.29771"
       cy="52.420822"
       rx="16.105284"
       ry="12.020346" />
    <path
       style="fill:#d09c58;fill-opacity:1;stroke:none;stroke-width:0.264583px;stroke-linecap:butt;stroke-linejoin:miter;stroke-opacity:1"
       d="m 112.44792,114.60238 c 0,0 5.12975,-5.0161 12.09523,-4.72471 3.63318,0.15199 7.68185,0.45395 10.58334,2.64584 2.3193,1.75208 4.34672,7.55952 4.34672,7.55952 l -3.77976,-3.2128 -10.96131,-4.91369 z"
       id="path4543"
       sodipodi:nodetypes="csacccc" />
    <ellipse
       style="opacity:1;fill:#ffffff;fill-opacity:1;stroke:none;stroke-width:1.165;stroke-linecap:round;stroke-opacity:1"
       id="path855"
       cx="125.08214"
       cy="121.60764"
       rx="13.363476"
       ry="8.2853556" />
    <ellipse
       style="opacity:1;fill:#008000;fill-opacity:1;stroke:none;stroke-width:1.165;stroke-linecap:round;stroke-opacity:1"
       id="path857"
       cx="125.88395"
       cy="121.8749"
       rx="8.2853556"
       ry="7.7508163" />
    <ellipse
       style="opacity:1;fill:#000000;fill-opacity:1;stroke:none;stroke-width:1.165;stroke-linecap:round;stroke-opacity:1"
       id="path859"
       cx="125.48305"
       cy="121.60763"
       rx="4.1426778"
       ry="4.0090427" />
    <ellipse
       style="opacity:1;fill:#ffffff;fill-opacity:1;stroke:none;stroke-width:1.165;stroke-linecap:round;stroke-opacity:1"
       id="path861"
       cx="123.61216"
       cy="118.93494"
       rx="2.0045214"
       ry="2.4054255" />
    <ellipse
       style="opacity:1;fill:#ffffff;fill-opacity:1;stroke:none;stroke-width:1.165;stroke-linecap:round;stroke-opacity:1"
       id="ellipse865"
       cx="179.07059"
       cy="121.60764"
       rx="13.363476"
       ry="8.2853556" />
    <ellipse
       style="opacity:1;fill:#008000;fill-opacity:1;stroke:none;stroke-width:1.165;stroke-linecap:round;stroke-opacity:1"
       id="ellipse867"
       cx="179.87239"
       cy="121.8749"
       rx="8.2853556"
       ry="7.7508163" />
    <ellipse
       style="opacity:1;fill:#000000;fill-opacity:1;stroke:none;stroke-width:1.165;stroke-linecap:round;stroke-opacity:1"
       id="ellipse869"
       cx="179.4715"
       cy="121.60763"
       rx="4.1426778"
       ry="4.0090427" />
    <ellipse
       style="opacity:1;fill:#ffffff;fill-opacity:1;stroke:none;stroke-width:1.165;stroke-linecap:round;stroke-opacity:1"
       id="ellipse871"
       cx="177.6006"
       cy="118.93494"
       rx="2.0045214"
       ry="2.4054255" />
    <path
       style="fill:#784421;fill-opacity:1;stroke:none;stroke-width:0.264583px;stroke-linecap:butt;stroke-linejoin:miter;stroke-opacity:1"
       d="m 138.71726,109.61309 c 0.92068,-1.04673 2.5588,-1.47851 1.13393,-4.53571 v -0.75595 c 0,0 -13.87396,-3.63743 -20.78869,-2.64584 -7.48401,1.07323 -20.788692,9.07143 -20.788692,9.07143 0,0 14.564652,-6.43819 22.300592,-6.42559 6.2996,0.0103 18.14286,5.29166 18.14286,5.29166 z"
       id="path899"
       sodipodi:nodetypes="cccscsc" />
    <path
       style="fill:none;stroke:#000000;stroke-width:0.264583px;stroke-linecap:butt;stroke-linejoin:miter;stroke-opacity:1"
       d="M 44.60119,151.56845 Z"
       id="path864" />
    <path
       style="fill:none;stroke:#000000;stroke-width:0.264583px;stroke-linecap:butt;stroke-linejoin:miter;stroke-opacity:1"
       d="M 45.357142,151.94643 Z"
       id="path866" />
    <path
       style="fill:#e01f1f;stroke:none;stroke-width:0.264583px;stroke-linecap:butt;stroke-linejoin:miter;stroke-opacity:1;fill-opacity:1"
       d="m 133.11247,160.60745 c 0,0 7.84008,9.01737 18.52083,9.26042 11.53265,0.26244 18.14286,-10.58333 18.14286,-10.58333 z"
       id="path874"
       sodipodi:nodetypes="cscc" />
    <path
       style="fill:#d40000;stroke:none;stroke-width:0.231676px;stroke-linecap:butt;stroke-linejoin:miter;stroke-opacity:1;fill-opacity:1"
       d="m 128.76574,159.25597 c 0,0 15.27181,3.07362 23.05655,2.89802 7.74516,-0.17472 22.67857,-3.91232 22.67857,-3.91232 0,0 -13.99345,-3.45089 -20.5997,-1.88372 -1.27947,0.30352 -3.02381,2.02861 -3.02381,2.02861 0,0 -1.59211,-1.75601 -2.83482,-2.02861 -6.29538,-1.38093 -19.27679,2.89802 -19.27679,2.89802 z"
       id="path872"
       sodipodi:nodetypes="cscacac" />
    <g
       id="g3218">
      <path
         style="fill:#000000;fill-opacity:1;stroke:none;stroke-width:0.264583px;stroke-linecap:butt;stroke-linejoin:miter;stroke-opacity:1"
         d="m 167.31072,117.86586 c 0,0 3.62588,-3.32558 5.87993,-4.14268 5.87865,-2.13101 11.14295,-1.62447 16.03617,0.53454 2.3344,1.03 3.56359,3.65269 5.34539,5.47903 l -2.67269,-0.53454 c 0,0 -4.09035,-3.4071 -6.5481,-4.27632 -2.49054,-0.88081 -5.26364,-1.13331 -7.88446,-0.8018 -3.57934,0.45275 -10.15624,3.74177 -10.15624,3.74177 z"
         id="path934"
         sodipodi:nodetypes="csaccaac" />
      <path
         style="fill:#000000;fill-opacity:1;stroke:none;stroke-width:0.264583px;stroke-linecap:butt;stroke-linejoin:miter;stroke-opacity:1"
         d="m 191.072,118.55024 c 0,0 2.21965,0.4305 3.34087,0.40091 1.03955,-0.0274 3.0736,-0.53454 3.0736,-0.53454 0,0 -2.27411,1.78424 -3.60814,1.73725 -1.07673,-0.0379 -2.80633,-1.60362 -2.80633,-1.60362 z"
         id="path1509"
         sodipodi:nodetypes="cacac" />
      <path
         style="fill:#000000;stroke:#000000;stroke-width:0.264583px;stroke-linecap:butt;stroke-linejoin:miter;stroke-opacity:1"
         d="m 191.53943,116.60565 c 0,0 1.85828,0.7032 2.83482,0.75596 0.82738,0.0447 2.45685,-0.37798 2.45685,-0.37798 0,0 -1.90481,0.88494 -2.92932,1.03943 -0.74815,0.11282 -2.26785,-0.0945 -2.26785,-0.0945 z"
         id="path2450"
         sodipodi:nodetypes="cacacc" />
      <path
         style="fill:#000000;stroke:none;stroke-width:0.264583px;stroke-linecap:butt;stroke-linejoin:miter;stroke-opacity:1"
         d="m 189.17708,114.62128 c 0,0 2.43175,0.72132 3.68527,0.75595 0.8594,0.0237 2.55134,-0.37798 2.55134,-0.37798 0,0 -1.50019,1.01766 -2.36236,1.22843 -0.94851,0.23187 -2.92931,0 -2.92931,0 z"
         id="path2613"
         sodipodi:nodetypes="cacacc" />
    </g>
    <g
       id="g3228"
       transform="matrix(-1,0,0,1,303.99337,-0.2672695)">
      <path
         style="fill:#000000;fill-opacity:1;stroke:none;stroke-width:0.264583px;stroke-linecap:butt;stroke-linejoin:miter;stroke-opacity:1"
         d="m 167.31072,117.86586 c 0,0 3.62588,-3.32558 5.87993,-4.14268 5.87865,-2.13101 11.14295,-1.62447 16.03617,0.53454 2.3344,1.03 3.56359,3.65269 5.34539,5.47903 l -2.67269,-0.53454 c 0,0 -4.09035,-3.4071 -6.5481,-4.27632 -2.49054,-0.88081 -5.26364,-1.13331 -7.88446,-0.8018 -3.57934,0.45275 -10.15624,3.74177 -10.15624,3.74177 z"
         id="path3220"
         sodipodi:nodetypes="csaccaac" />
      <path
         style="fill:#000000;fill-opacity:1;stroke:none;stroke-width:0.264583px;stroke-linecap:butt;stroke-linejoin:miter;stroke-opacity:1"
         d="m 191.072,118.55024 c 0,0 2.21965,0.4305 3.34087,0.40091 1.03955,-0.0274 3.0736,-0.53454 3.0736,-0.53454 0,0 -2.27411,1.78424 -3.60814,1.73725 -1.07673,-0.0379 -2.80633,-1.60362 -2.80633,-1.60362 z"
         id="path3222"
         sodipodi:nodetypes="cacac" />
      <path
         style="fill:#000000;stroke:#000000;stroke-width:0.264583px;stroke-linecap:butt;stroke-linejoin:miter;stroke-opacity:1"
         d="m 191.53943,116.60565 c 0,0 1.85828,0.7032 2.83482,0.75596 0.82738,0.0447 2.45685,-0.37798 2.45685,-0.37798 0,0 -1.90481,0.88494 -2.92932,1.03943 -0.74815,0.11282 -2.26785,-0.0945 -2.26785,-0.0945 z"
         id="path3224"
         sodipodi:nodetypes="cacacc" />
      <path
         style="fill:#000000;stroke:none;stroke-width:0.264583px;stroke-linecap:butt;stroke-linejoin:miter;stroke-opacity:1"
         d="m 189.17708,114.62128 c 0,0 2.43175,0.72132 3.68527,0.75595 0.8594,0.0237 2.55134,-0.37798 2.55134,-0.37798 0,0 -1.50019,1.01766 -2.36236,1.22843 -0.94851,0.23187 -2.92931,0 -2.92931,0 z"
         id="path3226"
         sodipodi:nodetypes="cacacc" />
    </g>
    <path
       style="fill:#d09c58;fill-opacity:1;stroke:none;stroke-width:0.264583px;stroke-linecap:butt;stroke-linejoin:miter;stroke-opacity:1"
       d="m 138.61999,139.69462 c 0,0 -1.82384,3.61279 -0.94494,5.10268 1.21461,2.05897 6.80357,2.26786 6.80357,2.26786 0,0 -4.03005,-1.55586 -5.15804,-3.24522 -0.77452,-1.15999 -0.70059,-4.12532 -0.70059,-4.12532 z"
       id="path4578"
       sodipodi:nodetypes="cacac" />
    <path
       style="fill:#d09c58;fill-opacity:1;stroke:none;stroke-width:0.264583px;stroke-linecap:butt;stroke-linejoin:miter;stroke-opacity:1"
       d="m 165.74491,139.69462 c 0,0 1.82384,3.61279 0.94494,5.10268 -1.21461,2.05897 -6.80357,2.26786 -6.80357,2.26786 0,0 4.03005,-1.55586 5.15804,-3.24522 0.77452,-1.15999 0.70059,-4.12532 0.70059,-4.12532 z"
       id="path6434"
       sodipodi:nodetypes="cacac" />
    <path
       style="fill:#d09c58;fill-opacity:1;stroke:none;stroke-width:0.264583px;stroke-linecap:butt;stroke-linejoin:miter;stroke-opacity:1"
       d="m 145.66188,143.25646 c 0,0 0.717,5.36856 6.41447,5.34539 5.38562,-0.0219 6.68174,-5.07812 6.68174,-5.07812 0,0 -4.35712,2.0614 -6.68174,2.00452 -2.26762,-0.0555 -6.41447,-2.27179 -6.41447,-2.27179 z"
       id="path6584"
       sodipodi:nodetypes="cscac" />
    <ellipse
       style="fill:#f85151;fill-opacity:1;stroke:none;stroke-width:1.265;stroke-linecap:round;stroke-opacity:1"
       id="path11658"
       cx="143.45691"
       cy="158.15674"
       rx="4.3431296"
       ry="1.0022607" />
    <path
       style="fill:#f85151;stroke:none;stroke-width:0.264583px;stroke-linecap:butt;stroke-linejoin:miter;stroke-opacity:1;fill-opacity:1"
       d="m 141.65285,164.63803 c 0.11521,2.06406 6.48675,3.45337 10.02261,3.4745 3.66238,0.0219 9.2755,-0.39753 10.42351,-3.4745 0.35536,-0.95246 -6.83657,1.20533 -10.28988,1.20271 -3.40907,-0.003 -10.22228,-2.38588 -10.15624,-1.20271 z"
       id="path12349"
       sodipodi:nodetypes="sasas" />
  </g>
</svg>
