<?xml version="1.0" encoding="UTF-8" standalone="no"?>
<!-- Created with Inkscape (http://www.inkscape.org/) -->

<svg
   version="1.1"
   id="svg14372"
   width="800"
   height="800"
   viewBox="0 0 800 800"
   sodipodi:docname="coffee-drink-publicdomainvectors.org.svg"
   inkscape:version="1.2 (dc2aedaf03, 2022-05-15)"
   xmlns:inkscape="http://www.inkscape.org/namespaces/inkscape"
   xmlns:sodipodi="http://sodipodi.sourceforge.net/DTD/sodipodi-0.dtd"
   xmlns="http://www.w3.org/2000/svg"
   xmlns:svg="http://www.w3.org/2000/svg">
  <defs
     id="defs14376">
    <clipPath
       clipPathUnits="userSpaceOnUse"
       id="clipPath14388">
      <path
         d="M 0,600 H 600 V 0 H 0 Z"
         id="path14386" />
    </clipPath>
  </defs>
  <sodipodi:namedview
     id="namedview14374"
     pagecolor="#ffffff"
     bordercolor="#000000"
     borderopacity="0.25"
     inkscape:showpageshadow="2"
     inkscape:pageopacity="0.0"
     inkscape:pagecheckerboard="0"
     inkscape:deskcolor="#d1d1d1"
     showgrid="false"
     inkscape:zoom="1.04625"
     inkscape:cx="400"
     inkscape:cy="400.4779"
     inkscape:window-width="1920"
     inkscape:window-height="1017"
     inkscape:window-x="-8"
     inkscape:window-y="-8"
     inkscape:window-maximized="1"
     inkscape:current-layer="g14380">
    <inkscape:page
       x="0"
       y="0"
       id="page14378"
       width="800"
       height="800" />
  </sodipodi:namedview>
  <g
     id="g14380"
     inkscape:groupmode="layer"
     inkscape:label="Page 1"
     transform="matrix(1.3333333,0,0,-1.3333333,0,800)">
    <g
       id="g14382">
      <g
         id="g14384"
         clip-path="url(#clipPath14388)">
        <g
           id="g14390"
           transform="translate(334.9932,99.6377)">
          <path
             d="m 0,0 c 6.187,-7.299 4.146,-12.392 3.243,-13.741 -1.026,-1.536 -6.516,-3.309 -9.904,3.106 -2.592,4.908 -3.436,11.668 -7.885,13.023 C -18.89,3.711 -17.7,5.321 -14.853,6.185 -11.669,7.15 -5.211,6.148 0,0 m -3.462,-19.117 c -3.189,-0.949 -9.642,0.086 -14.821,6.261 -6.15,7.33 -4.081,12.413 -3.173,13.757 1.035,1.531 6.534,3.276 9.889,-3.158 2.566,-4.921 3.376,-11.684 7.818,-13.062 4.337,-1.345 3.139,-2.95 0.287,-3.798 m -46.385,46.683 c 2.006,-2.655 3.295,-9.062 -0.676,-16.075 -4.715,-8.326 -10.2,-8.169 -11.778,-7.787 -1.796,0.434 -5.355,4.974 -0.503,10.368 3.712,4.126 9.764,7.252 9.5,11.896 -0.258,4.533 1.664,3.972 3.457,1.598 M -66.195,9.722 c 0.235,-4.535 -1.685,-3.964 -3.466,-1.581 -1.992,2.666 -3.248,9.08 0.759,16.072 4.758,8.302 10.241,8.115 11.818,7.726 1.793,-0.442 5.329,-5 0.449,-10.37 -3.732,-4.107 -9.801,-7.202 -9.56,-11.847 m 317.72,39.017 c -5.869,-7.556 -11.273,-6.606 -12.78,-6.002 -1.714,0.69 -4.579,5.698 1.003,10.332 4.27,3.546 10.711,5.764 11.12,10.397 0.4,4.523 2.222,3.69 3.652,1.082 1.602,-2.918 1.95,-9.443 -2.995,-15.809 m -15.762,0.517 c -0.424,-4.521 -2.241,-3.679 -3.658,-1.063 -1.585,2.926 -1.901,9.453 3.076,15.792 5.909,7.527 11.307,6.55 12.811,5.937 1.711,-0.697 4.549,-5.72 -1.056,-10.326 -4.287,-3.525 -10.74,-5.709 -11.173,-10.34 m -35.243,55.417 c 1.602,-2.918 1.95,-9.444 -2.995,-15.809 -5.869,-7.555 -11.273,-6.606 -12.78,-6.001 -1.714,0.689 -4.579,5.697 1.003,10.331 4.269,3.547 10.711,5.764 11.12,10.398 0.4,4.522 2.222,3.689 3.652,1.081 M 178.105,88.318 c -1.585,2.926 -1.901,9.453 3.076,15.793 5.909,7.526 11.307,6.549 12.811,5.936 1.711,-0.697 4.549,-5.72 -1.056,-10.326 -4.287,-3.525 -10.74,-5.709 -11.173,-10.34 -0.424,-4.521 -2.241,-3.678 -3.658,-1.063 M 137.265,12.04 c 1.601,-2.918 1.949,-9.443 -2.995,-15.809 -5.87,-7.556 -11.274,-6.606 -12.781,-6.001 -1.714,0.689 -4.578,5.697 1.003,10.332 4.27,3.545 10.711,5.763 11.121,10.396 0.4,4.523 2.221,3.69 3.652,1.082 M 118.507,-3.252 c -0.424,-4.52 -2.24,-3.679 -3.657,-1.062 -1.586,2.925 -1.902,9.453 3.076,15.792 5.908,7.526 11.306,6.549 12.81,5.936 1.711,-0.697 4.55,-5.72 -1.055,-10.326 -4.288,-3.524 -10.741,-5.709 -11.174,-10.34 m 72.425,62.242 c 1.6,-2.918 1.949,-9.443 -2.996,-15.808 -5.87,-7.556 -11.273,-6.607 -12.78,-6.001 -1.715,0.688 -4.579,5.696 1.002,10.332 4.27,3.546 10.711,5.762 11.121,10.396 0.401,4.523 2.222,3.69 3.653,1.081 M 172.174,43.698 c -0.424,-4.52 -2.24,-3.677 -3.658,-1.062 -1.586,2.926 -1.901,9.453 3.076,15.793 5.908,7.525 11.307,6.548 12.81,5.935 1.711,-0.697 4.55,-5.719 -1.054,-10.326 -4.289,-3.524 -10.741,-5.709 -11.174,-10.34 m -61.033,15.828 c -3.767,2.538 -2.157,3.728 0.818,3.72 3.328,-0.009 9.209,-2.858 12.392,-10.263 3.777,-8.791 0.333,-13.062 -0.924,-14.088 -1.432,-1.168 -7.2,-1.255 -8.561,5.871 -1.04,5.451 0.132,12.162 -3.725,14.76 m 4.3,-23.808 c -3.328,0.026 -9.194,2.905 -12.339,10.326 -3.732,8.811 -0.267,13.064 0.997,14.084 1.437,1.161 7.206,1.219 8.53,-5.915 1.013,-5.456 -0.195,-12.161 3.65,-14.779 3.753,-2.556 2.137,-3.74 -0.838,-3.716 M -205.179,24.94 c 1.316,-3.056 1.042,-9.585 -4.486,-15.452 -6.562,-6.963 -11.851,-5.504 -13.293,-4.758 -1.641,0.849 -4.016,6.107 1.981,10.19 4.587,3.124 11.21,4.719 12.06,9.291 0.829,4.465 2.562,3.462 3.738,0.729 m -20.128,-13.437 c -0.852,-4.46 -2.58,-3.449 -3.742,-0.71 -1.3,3.063 -0.993,9.591 4.565,15.428 6.597,6.929 11.879,5.443 13.317,4.69 1.637,-0.857 3.985,-6.127 -2.033,-10.179 -4.603,-3.1 -11.235,-4.661 -12.107,-9.229 m 70.165,25.819 c 1.627,-2.903 2.033,-9.426 -2.855,-15.834 -5.802,-7.608 -11.214,-6.707 -12.726,-6.115 -1.72,0.674 -4.629,5.656 0.911,10.341 4.237,3.584 10.659,5.858 11.028,10.495 0.36,4.526 2.188,3.709 3.642,1.113 m -18.621,-15.458 c -0.383,-4.524 -2.208,-3.697 -3.649,-1.094 -1.611,2.911 -1.984,9.435 2.936,15.819 5.841,7.578 11.249,6.649 12.758,6.05 1.717,-0.683 4.6,-5.68 -0.964,-10.336 -4.256,-3.562 -10.689,-5.804 -11.081,-10.439 m -89.862,32.043 c 5.85,-7.571 3.581,-12.566 2.618,-13.874 -1.096,-1.488 -6.66,-3.01 -9.754,3.552 -2.367,5.02 -2.905,11.811 -7.288,13.365 -4.28,1.518 -3.018,3.073 -0.135,3.807 3.225,0.821 9.631,-0.472 14.559,-6.85 m -4.323,-18.941 c -3.23,-0.805 -9.629,0.521 -14.524,6.925 -5.811,7.6 -3.516,12.585 -2.547,13.887 1.103,1.482 6.675,2.976 9.736,-3.602 2.341,-5.031 2.844,-11.825 7.22,-13.403 4.271,-1.54 3.001,-3.087 0.115,-3.807 m 62.669,42.205 c 5.85,-7.572 3.581,-12.566 2.618,-13.875 -1.095,-1.487 -6.66,-3.011 -9.754,3.552 -2.367,5.02 -2.904,11.811 -7.288,13.366 -4.279,1.517 -3.018,3.072 -0.135,3.807 3.225,0.82 9.631,-0.473 14.559,-6.85 m -18.846,-12.018 c -5.812,7.602 -3.517,12.585 -2.547,13.888 1.102,1.482 6.674,2.977 9.735,-3.602 2.341,-5.032 2.844,-11.826 7.22,-13.403 4.271,-1.539 3.002,-3.088 0.115,-3.806 -3.23,-0.805 -9.628,0.521 -14.523,6.923 m 116.716,-21.757 c 0.271,-9.564 -4.505,-12.266 -6.052,-12.756 -1.762,-0.558 -7.156,1.488 -5.793,8.614 1.043,5.451 4.607,11.257 1.979,15.095 -2.566,3.746 -0.63,4.26 2.132,3.156 3.09,-1.235 7.506,-6.053 7.734,-14.109 m -12.498,-9.62 c 2.547,-3.758 0.609,-4.263 -2.148,-3.144 -3.084,1.251 -7.476,6.091 -7.662,14.147 -0.222,9.566 4.567,12.244 6.118,12.725 1.764,0.549 7.147,-1.524 5.748,-8.643 -1.07,-5.446 -4.664,-11.233 -2.056,-15.085 m 59.85,290.007 c 2.647,2.154 5.887,3.895 9.517,5.094 0.57,0.188 1.143,0.359 1.716,0.522 -1.474,-1.558 -2.74,-3.313 -3.708,-5.208 -2.298,-4.42 -3.199,-9.366 -3.223,-14.192 -0.016,-4.846 0.854,-9.642 2.399,-14.191 1.735,-5.134 4.367,-9.98 7.749,-14.249 -0.272,0.099 -0.545,0.194 -0.815,0.307 -0.83,0.312 -1.661,0.634 -2.477,1.025 -0.823,0.365 -1.648,0.729 -2.46,1.157 -0.816,0.409 -1.668,0.821 -2.354,1.208 -2.876,1.603 -5.461,3.574 -7.594,5.88 -2.15,2.291 -3.912,4.883 -5.093,7.7 -1.178,2.813 -1.784,5.816 -1.79,8.81 0.037,5.976 2.741,11.912 8.133,16.137 m -18.302,-46.725 c 3.468,-4.505 7.677,-8.326 12.245,-11.432 1.17,-0.802 2.255,-1.444 3.359,-2.116 1.089,-0.691 2.238,-1.304 3.395,-1.907 1.14,-0.628 2.327,-1.19 3.527,-1.736 1.182,-0.574 2.412,-1.072 3.649,-1.558 1.539,-0.608 3.113,-1.154 4.712,-1.649 3.537,-1.095 7.207,-1.91 10.963,-2.388 5.459,-0.651 11.08,-0.583 16.632,0.274 2.78,0.454 5.541,1.111 8.248,1.97 4.644,1.473 9.129,3.544 13.295,6.21 5.775,0.958 11.376,3.023 16.372,6.05 2.091,1.252 4.054,2.705 5.937,4.251 1.856,1.582 3.591,3.305 5.203,5.147 1.582,1.868 3.025,3.862 4.296,5.978 1.266,2.12 2.294,4.396 3.111,6.763 3.019,9.394 3.128,19.133 1.655,28.516 -0.772,4.69 -1.973,9.294 -3.554,13.753 -1.582,4.46 -3.598,8.747 -5.889,12.857 -4.599,8.221 -10.401,15.688 -16.963,22.315 -6.501,6.686 -13.947,12.417 -21.466,17.648 -7.523,5.262 -15.129,10.28 -22.508,15.566 -7.359,5.293 -14.489,10.912 -20.68,17.427 -3.081,3.26 -5.9,6.77 -8.188,10.604 -2.282,3.828 -4.029,7.99 -4.891,12.373 -0.877,4.378 -0.82,8.942 0.043,13.375 0.829,4.448 2.502,8.732 4.568,12.799 -2.316,-3.928 -4.276,-8.127 -5.409,-12.611 -1.143,-4.472 -1.441,-9.204 -0.768,-13.83 0.646,-4.637 2.294,-9.104 4.514,-13.207 2.222,-4.114 4.999,-7.891 8.039,-11.398 6.118,-7.005 13.254,-12.946 20.511,-18.569 7.264,-5.633 14.809,-10.824 22.117,-16.217 3.666,-2.689 7.236,-5.447 10.646,-8.349 3.43,-2.891 6.663,-5.995 9.763,-9.208 6.184,-6.44 11.572,-13.618 15.771,-21.408 4.195,-7.784 7.221,-16.18 8.584,-24.839 0.684,-4.324 0.935,-8.707 0.716,-13.044 -0.095,-2.17 -0.363,-4.321 -0.719,-6.445 -0.362,-2.106 -0.873,-4.25 -1.545,-6.181 -2.722,-7.818 -8.706,-14.622 -15.955,-19.037 -0.559,-0.342 -1.128,-0.665 -1.704,-0.98 0.979,1.151 1.917,2.347 2.807,3.595 1.724,2.476 3.252,5.149 4.502,8.015 l 0.886,2.184 0.756,2.265 0.181,0.569 0.139,0.502 0.27,1 c 0.187,0.664 0.347,1.335 0.497,2.007 0.625,2.684 1.078,5.406 1.321,8.138 1.07,10.937 -0.772,21.939 -4.63,31.657 -3.795,9.795 -9.485,18.326 -15.852,25.783 -3.212,3.722 -6.644,7.146 -10.179,10.377 -3.537,3.229 -7.188,6.271 -10.992,9.032 -0.936,0.715 -1.892,1.392 -2.849,2.064 -0.942,0.661 -1.94,1.383 -2.837,1.99 l -5.385,3.671 c -3.595,2.425 -7.136,4.879 -10.605,7.393 -6.971,4.982 -13.713,10.159 -19.844,15.798 -3.03,2.844 -5.965,5.759 -8.497,8.924 -2.571,3.136 -4.777,6.485 -6.335,10.088 -0.764,1.8 -1.385,3.671 -1.711,5.602 -0.366,1.929 -0.487,3.929 -0.292,5.952 0.308,4.069 1.907,8.177 4.168,12.036 -3.471,-2.802 -6.486,-6.498 -8.263,-11.023 -0.885,-2.252 -1.444,-4.678 -1.668,-7.153 -0.222,-2.479 -0.071,-4.98 0.287,-7.437 0.773,-4.909 2.515,-9.555 4.656,-13.853 2.187,-4.284 4.717,-8.321 7.512,-12.086 5.566,-7.563 11.903,-14.287 18.423,-20.637 3.286,-3.148 6.621,-6.209 9.973,-9.212 1.676,-1.503 3.385,-2.951 5.078,-4.41 l 2.373,-2.08 c 0.779,-0.683 1.559,-1.367 2.303,-2.077 6.038,-5.613 11.683,-11.457 16.293,-17.787 4.655,-6.268 8.407,-12.906 10.704,-19.684 2.321,-6.771 3.189,-13.659 2.438,-20.278 -0.181,-1.655 -0.479,-3.287 -0.857,-4.893 -0.091,-0.403 -0.187,-0.804 -0.305,-1.198 l -0.164,-0.596 -0.08,-0.294 -0.078,-0.215 -0.291,-0.87 -0.367,-0.875 c -0.534,-1.164 -1.183,-2.341 -1.962,-3.494 -0.813,-1.138 -1.739,-2.242 -2.762,-3.298 -4.167,-4.215 -9.999,-7.226 -16.248,-8.466 -3.817,-0.748 -7.815,-0.853 -11.857,-0.338 -5.736,4.757 -10.159,11.144 -12.784,18.187 -1.5,4.054 -2.392,8.345 -2.49,12.636 -0.105,4.279 0.617,8.583 2.413,12.357 1.623,3.465 4.263,6.378 7.594,8.257 0.565,0.019 1.129,0.026 1.687,0.005 3.541,-0.125 6.967,-1.024 9.749,-3.022 2.774,-1.95 4.941,-4.988 5.632,-8.524 0.352,-1.754 0.356,-3.609 -0.093,-5.398 -0.45,-1.785 -1.334,-3.502 -2.633,-4.972 -1.297,-1.474 -3.011,-2.667 -4.942,-3.539 -1.931,-0.872 -4.07,-1.422 -6.271,-1.733 2.199,-0.278 4.488,-0.342 6.773,0.085 2.287,0.396 4.578,1.267 6.601,2.702 2.033,1.414 3.761,3.403 4.906,5.728 1.157,2.319 1.769,4.937 1.799,7.577 0.034,4.223 -1.38,8.479 -3.888,12.016 1.799,-1.024 3.375,-2.463 4.621,-4.171 2.523,-3.439 3.667,-7.915 3.259,-12.243 -0.21,-2.165 -0.829,-4.304 -1.882,-6.225 -1.047,-1.925 -2.524,-3.622 -4.3,-4.954 -3.561,-2.712 -8.178,-3.851 -12.718,-4.001 4.535,-0.153 9.298,0.64 13.257,3.239 1.954,1.298 3.648,3.028 4.901,5.05 1.26,2.019 2.07,4.314 2.436,6.675 0.732,4.724 -0.313,9.733 -2.996,13.812 -1.341,2.036 -3.115,3.827 -5.221,5.152 -1.736,1.098 -3.691,1.84 -5.707,2.241 -3.445,2.759 -7.611,4.572 -11.806,5.4 -5.199,1.057 -10.412,0.878 -15.35,0.076 -4.944,-0.796 -10.049,-2.274 -14.827,-4.89 -4.755,-2.621 -9.164,-6.377 -12.514,-11.088 -3.372,-4.692 -5.549,-10.306 -6.42,-16.074 -0.893,-5.779 -0.421,-11.722 1.192,-17.266 1.608,-5.546 4.251,-10.763 7.733,-15.25 m -68.955,-39.259 c 0,0.018 0.049,0.673 1.461,1.715 3.064,-1.967 8.643,-4.318 12.717,-5.059 14.667,7.334 163.102,-0.324 161.375,0.011 18.5,-0.011 12.491,4.968 3,6.666 -8.778,1.571 -85.93,15.611 -161.09,4.018 4.027,0.892 8.978,1.803 15.077,2.69 21.961,3.198 51.087,4.959 82.013,4.959 30.89,0 59.917,-1.761 81.735,-4.958 31.896,-4.675 32.265,-9.989 32.265,-10.042 0,-0.053 -0.369,-5.367 -32.265,-10.042 -21.818,-3.197 -50.845,-4.958 -81.735,-4.958 -30.926,0 -60.052,1.761 -82.013,4.958 -32.168,4.684 -32.54,9.989 -32.54,10.042 M 0.874,39.986 c 3.179,-2.097 6.278,-4.297 9.314,-6.557 3.066,-2.221 6.032,-4.548 9.071,-6.757 3.012,-2.241 6.02,-4.469 9.121,-6.524 3.062,-2.108 6.218,-4.047 9.474,-5.714 3.235,-1.7 6.625,-3.053 10.107,-3.795 3.479,-0.684 7.092,-0.637 10.477,0.571 3.424,1.133 6.411,3.504 9.075,6.2 C 65.549,14.174 62.807,11.218 59.221,9.409 58.309,9.015 57.416,8.521 56.436,8.289 L 54.981,7.861 C 54.489,7.76 53.99,7.692 53.491,7.608 51.49,7.256 49.464,7.374 47.468,7.557 c -0.988,0.137 -1.97,0.318 -2.951,0.504 -0.953,0.263 -1.923,0.5 -2.861,0.807 -1.873,0.621 -3.697,1.35 -5.472,2.165 -3.527,1.674 -6.841,3.68 -10.042,5.803 -3.157,2.187 -6.218,4.471 -9.191,6.846 -2.944,2.41 -5.874,4.814 -8.707,7.32 -5.744,4.924 -11.236,10.036 -17.361,14.522 3.512,-1.482 6.789,-3.483 9.991,-5.538 m -116.431,59.088 c -5.801,2.025 -11.701,3.74 -17.708,4.917 -6.001,1.176 -12.109,1.853 -18.211,1.716 -3.047,-0.08 -6.097,-0.369 -9.066,-1.054 -1.482,-0.338 -2.951,-0.768 -4.339,-1.396 -1.371,-0.64 -2.709,-1.447 -3.656,-2.685 0.766,1.363 2.059,2.378 3.414,3.154 1.365,0.783 2.831,1.372 4.323,1.868 3.003,0.936 6.12,1.448 9.245,1.665 6.261,0.465 12.542,-0.145 18.676,-1.307 3.06,-0.627 6.088,-1.392 9.077,-2.284 2.978,-0.926 5.918,-1.96 8.801,-3.135 5.763,-2.352 11.295,-5.227 16.543,-8.517 -5.621,2.607 -11.316,4.978 -17.099,7.058 m 90.331,108.707 c -1.304,-0.279 -2.614,-0.519 -3.923,-0.775 l -3.954,-0.57 -7.932,-1.027 c -2.654,-0.23 -5.315,-0.392 -7.976,-0.591 -1.33,-0.088 -2.662,-0.209 -3.994,-0.268 l -3.999,-0.092 c -2.666,-0.05 -5.336,-0.131 -8.003,-0.095 l -7.999,0.214 c -1.335,0.029 -2.665,0.109 -3.995,0.209 l -3.991,0.269 c -10.635,0.797 -21.229,2.162 -31.673,4.272 -2.607,0.548 -5.216,1.078 -7.811,1.669 -2.585,0.65 -5.175,1.255 -7.746,1.945 -5.129,1.422 -10.24,2.931 -15.206,4.858 10.49,-1.744 20.927,-3.299 31.386,-4.636 10.461,-1.306 20.931,-2.357 31.416,-3.122 5.24,-0.449 10.49,-0.648 15.74,-0.937 2.626,-0.141 5.253,-0.131 7.881,-0.237 l 3.944,-0.123 c 1.315,-0.038 2.629,-0.015 3.944,-0.026 2.631,-0.014 5.263,0.008 7.901,-0.037 l 7.904,0.201 3.967,0.052 c 1.317,0.077 2.633,0.169 3.955,0.223 2.644,0.131 5.293,0.252 7.962,0.309 -2.584,-0.608 -5.186,-1.152 -7.798,-1.685 m 0.42,-10.063 c -1.234,-0.277 -2.474,-0.515 -3.715,-0.769 l -3.746,-0.569 c -0.154,-0.039 -7.363,-0.991 -7.521,-1.026 -2.517,-0.23 -5.041,-0.398 -7.566,-0.597 -1.263,-0.087 -2.527,-0.203 -3.791,-0.264 -0.08,-0.008 -3.715,-0.096 -3.795,-0.101 -2.531,-0.056 -5.065,-0.135 -7.597,-0.104 -0.161,-0.002 -7.433,0.191 -7.594,0.199 -1.266,0.029 -2.53,0.106 -3.792,0.199 -0.08,0.006 -3.707,0.254 -3.787,0.262 -10.094,0.771 -20.144,2.109 -30.041,4.17 -2.47,0.536 -4.941,1.057 -7.398,1.637 -2.449,0.632 -4.9,1.229 -7.332,1.906 -4.854,1.39 -9.683,2.877 -14.368,4.76 9.951,-1.677 19.84,-3.178 29.752,-4.469 9.912,-1.263 19.832,-2.279 29.766,-3.02 4.967,-0.431 9.942,-0.631 14.919,-0.904 2.488,-0.132 4.978,-0.129 7.47,-0.228 0.077,-0.002 3.66,-0.114 3.738,-0.115 1.243,-0.035 2.485,-0.015 3.729,-0.025 2.493,-0.012 4.987,0.008 7.488,-0.034 0.155,0.007 7.336,0.193 7.492,0.198 l 3.762,0.051 c 1.25,0.075 2.498,0.166 3.751,0.218 2.506,0.128 5.021,0.245 7.554,0.3 -2.443,-0.604 -4.906,-1.144 -7.378,-1.675 m 0.42,-10.062 c -1.164,-0.275 -2.336,-0.51 -3.506,-0.764 l -3.539,-0.568 c -0.31,-0.078 -6.794,-0.955 -7.109,-1.025 -2.381,-0.23 -4.768,-0.403 -7.158,-0.603 -1.195,-0.087 -2.39,-0.198 -3.587,-0.261 -0.16,-0.014 -3.431,-0.099 -3.591,-0.109 -2.395,-0.061 -4.795,-0.137 -7.191,-0.113 -0.322,-0.004 -6.866,0.168 -7.188,0.183 -1.199,0.03 -2.394,0.103 -3.589,0.191 -0.16,0.013 -3.425,0.237 -3.585,0.254 -9.552,0.746 -19.058,2.056 -28.407,4.069 -2.334,0.522 -4.667,1.035 -6.987,1.605 -2.312,0.613 -4.624,1.202 -6.918,1.865 -4.578,1.359 -9.124,2.824 -13.53,4.664 9.412,-1.61 18.755,-3.058 28.119,-4.302 9.364,-1.221 18.734,-2.202 28.116,-2.918 4.693,-0.414 9.394,-0.615 14.097,-0.871 2.351,-0.125 4.705,-0.128 7.059,-0.219 0.155,-0.005 3.378,-0.104 3.533,-0.106 1.171,-0.032 2.342,-0.016 3.514,-0.026 2.355,-0.009 4.712,0.008 7.075,-0.031 0.31,0.014 6.769,0.185 7.081,0.195 l 3.557,0.049 c 1.179,0.074 2.359,0.163 3.546,0.213 2.369,0.125 4.748,0.24 7.146,0.291 -2.302,-0.599 -4.626,-1.136 -6.958,-1.663 m 0.421,-10.062 c -1.095,-0.273 -2.197,-0.509 -3.298,-0.759 l -3.331,-0.567 c -0.468,-0.118 -6.225,-0.92 -6.698,-1.023 -2.245,-0.23 -4.496,-0.41 -6.749,-0.609 -1.127,-0.088 -2.255,-0.194 -3.384,-0.257 -0.24,-0.023 -3.147,-0.104 -3.388,-0.12 -2.259,-0.066 -4.523,-0.14 -6.784,-0.121 -0.484,-0.006 -6.3,0.145 -6.782,0.167 -1.131,0.03 -2.259,0.099 -3.387,0.183 -0.24,0.019 -3.141,0.22 -3.381,0.246 -9.011,0.721 -17.973,2.003 -26.775,3.968 -2.197,0.508 -4.392,1.013 -6.575,1.572 -2.174,0.596 -4.349,1.176 -6.503,1.826 -4.303,1.328 -8.567,2.77 -12.693,4.567 8.874,-1.543 17.67,-2.937 26.486,-4.136 8.815,-1.179 17.635,-2.124 26.466,-2.815 4.419,-0.397 8.846,-0.599 13.275,-0.838 2.215,-0.117 4.431,-0.128 6.648,-0.211 0.233,-0.006 3.095,-0.093 3.328,-0.097 1.099,-0.029 2.198,-0.017 3.298,-0.026 2.217,-0.006 4.437,0.008 6.664,-0.028 0.464,0.021 6.199,0.177 6.67,0.191 l 3.35,0.049 c 1.112,0.072 2.223,0.159 3.341,0.208 2.232,0.121 4.476,0.233 6.739,0.282 -2.161,-0.596 -4.345,-1.129 -6.537,-1.652 m 0.42,-10.062 c -1.024,-0.272 -2.058,-0.506 -3.09,-0.754 l -3.123,-0.567 c -0.622,-0.156 -5.656,-0.883 -6.286,-1.021 -2.108,-0.23 -4.223,-0.416 -6.34,-0.615 -1.059,-0.087 -2.119,-0.189 -3.18,-0.253 -0.321,-0.03 -2.863,-0.107 -3.185,-0.129 -2.124,-0.071 -4.252,-0.143 -6.378,-0.132 -0.644,-0.006 -5.733,0.124 -6.376,0.154 -1.063,0.031 -2.124,0.095 -3.184,0.174 -0.321,0.025 -2.858,0.204 -3.178,0.238 -8.469,0.696 -16.888,1.95 -25.143,3.867 -2.06,0.495 -4.117,0.992 -6.162,1.539 -2.038,0.579 -4.074,1.15 -6.09,1.786 -4.027,1.297 -8.009,2.717 -11.855,4.47 8.335,-1.475 16.585,-2.816 24.853,-3.969 8.266,-1.136 16.536,-2.046 24.816,-2.712 4.146,-0.38 8.298,-0.583 12.453,-0.805 2.078,-0.109 4.157,-0.127 6.237,-0.202 0.311,-0.009 2.812,-0.084 3.123,-0.089 1.027,-0.027 2.054,-0.017 3.083,-0.026 2.079,-0.003 4.162,0.008 6.251,-0.026 0.619,0.029 5.631,0.17 6.257,0.189 l 3.146,0.047 c 1.043,0.071 2.086,0.156 3.136,0.204 2.097,0.118 4.202,0.227 6.332,0.273 -2.02,-0.592 -4.064,-1.121 -6.117,-1.641 m 0.42,-10.063 c -0.955,-0.269 -1.918,-0.501 -2.881,-0.749 l -2.917,-0.565 c -0.777,-0.196 -5.086,-0.847 -5.874,-1.02 -1.971,-0.23 -3.95,-0.421 -5.931,-0.62 -0.991,-0.088 -1.983,-0.185 -2.976,-0.25 -0.401,-0.038 -2.579,-0.111 -2.981,-0.139 -1.989,-0.076 -3.982,-0.145 -5.972,-0.138 -0.806,-0.011 -5.167,0.099 -5.971,0.136 -0.995,0.031 -1.988,0.092 -2.98,0.167 -0.401,0.03 -2.576,0.186 -2.975,0.229 -7.928,0.671 -15.803,1.897 -23.511,3.766 -1.923,0.482 -3.843,0.97 -5.749,1.506 -1.902,0.562 -3.799,1.124 -5.677,1.747 -3.751,1.265 -7.45,2.663 -11.017,4.372 7.796,-1.408 15.499,-2.695 23.22,-3.802 7.718,-1.093 15.437,-1.968 23.166,-2.609 3.872,-0.363 7.75,-0.566 11.632,-0.772 1.94,-0.102 3.882,-0.126 5.826,-0.194 0.387,-0.011 2.528,-0.074 2.917,-0.08 0.955,-0.024 1.911,-0.019 2.867,-0.026 1.942,0 3.887,0.007 5.839,-0.023 0.774,0.036 5.063,0.162 5.844,0.185 l 2.943,0.047 c 0.975,0.069 1.949,0.153 2.93,0.198 1.961,0.116 3.931,0.222 5.925,0.265 -1.88,-0.588 -3.783,-1.114 -5.697,-1.631 m 0.42,-10.062 c -0.885,-0.268 -1.778,-0.498 -2.672,-0.744 l -2.71,-0.564 c -0.934,-0.235 -4.517,-0.812 -5.462,-1.018 -1.835,-0.23 -3.677,-0.428 -5.522,-0.627 -0.923,-0.088 -1.847,-0.18 -2.773,-0.246 -0.481,-0.045 -2.295,-0.115 -2.777,-0.148 -1.854,-0.083 -3.711,-0.148 -5.566,-0.147 -0.967,-0.012 -4.6,0.076 -5.565,0.121 -0.927,0.031 -1.853,0.088 -2.777,0.157 -0.482,0.036 -2.293,0.171 -2.772,0.223 -7.387,0.645 -14.718,1.842 -21.879,3.664 -1.786,0.468 -3.568,0.948 -5.337,1.473 -1.765,0.544 -3.524,1.098 -5.263,1.708 -3.474,1.233 -6.892,2.609 -10.178,4.274 7.257,-1.34 14.413,-2.573 21.586,-3.634 7.169,-1.052 14.338,-1.891 21.516,-2.507 3.599,-0.346 7.202,-0.551 10.81,-0.74 1.803,-0.093 3.608,-0.125 5.415,-0.185 0.465,-0.012 2.245,-0.064 2.711,-0.072 0.884,-0.02 1.768,-0.018 2.653,-0.025 1.804,0.003 3.612,0.008 5.426,-0.02 0.928,0.043 4.494,0.154 5.434,0.182 l 2.737,0.045 c 0.905,0.067 1.812,0.15 2.726,0.193 1.823,0.113 3.657,0.216 5.516,0.257 -1.738,-0.584 -3.503,-1.107 -5.277,-1.62 m 0.421,-10.062 c -0.817,-0.266 -1.64,-0.495 -2.464,-0.739 l -2.503,-0.563 c -1.089,-0.274 -3.947,-0.776 -5.05,-1.017 -1.699,-0.23 -3.404,-0.433 -5.114,-0.632 -0.855,-0.088 -1.711,-0.176 -2.569,-0.243 -0.561,-0.053 -2.011,-0.119 -2.574,-0.157 -1.717,-0.087 -3.439,-0.151 -5.159,-0.156 -1.128,-0.014 -4.033,0.053 -5.159,0.105 -0.86,0.032 -1.718,0.084 -2.575,0.149 -0.561,0.043 -2.009,0.155 -2.569,0.215 -6.845,0.62 -13.632,1.789 -20.246,3.563 -1.649,0.454 -3.293,0.927 -4.924,1.441 -1.629,0.526 -3.248,1.071 -4.85,1.666 -3.198,1.203 -6.334,2.557 -9.34,4.179 6.718,-1.273 13.328,-2.453 19.953,-3.468 6.621,-1.009 13.239,-1.813 19.866,-2.404 3.325,-0.329 6.654,-0.534 9.988,-0.707 1.667,-0.085 3.335,-0.124 5.004,-0.177 0.543,-0.014 1.963,-0.053 2.506,-0.063 0.813,-0.017 1.625,-0.018 2.438,-0.026 1.666,0.007 3.336,0.009 5.015,-0.017 1.082,0.051 3.925,0.147 5.02,0.18 l 2.532,0.044 c 0.838,0.065 1.674,0.146 2.52,0.189 1.687,0.108 3.387,0.209 5.11,0.247 -1.596,-0.58 -3.221,-1.1 -4.856,-1.609 m 0.42,-10.062 c -0.746,-0.265 -1.5,-0.492 -2.256,-0.734 l -2.295,-0.562 c -1.245,-0.314 -3.378,-0.74 -4.639,-1.016 -1.562,-0.23 -3.131,-0.439 -4.704,-0.638 -0.787,-0.088 -1.576,-0.171 -2.366,-0.239 -0.641,-0.06 -1.727,-0.123 -2.37,-0.166 -1.582,-0.093 -3.168,-0.154 -4.754,-0.165 -1.288,-0.015 -3.466,0.029 -4.752,0.089 -0.792,0.033 -1.583,0.082 -2.372,0.141 -0.642,0.049 -1.726,0.138 -2.366,0.206 -6.304,0.595 -12.547,1.737 -18.614,3.463 -1.512,0.44 -3.018,0.905 -4.512,1.408 -1.492,0.509 -2.973,1.045 -4.435,1.628 -2.923,1.171 -5.776,2.502 -8.503,4.08 6.18,-1.205 12.243,-2.331 18.32,-3.301 6.072,-0.967 12.141,-1.735 18.216,-2.302 3.051,-0.311 6.106,-0.517 9.166,-0.673 1.53,-0.077 3.061,-0.123 4.594,-0.169 0.62,-0.016 1.679,-0.043 2.3,-0.054 0.74,-0.014 1.481,-0.019 2.222,-0.025 1.529,0.009 3.062,0.008 4.602,-0.015 1.236,0.058 3.358,0.139 4.609,0.176 l 2.329,0.043 c 0.768,0.064 1.536,0.143 2.314,0.185 1.55,0.105 3.111,0.202 4.702,0.237 -1.456,-0.576 -2.941,-1.091 -4.436,-1.597 m 0.42,-10.063 c -0.676,-0.262 -1.362,-0.488 -2.047,-0.729 l -2.089,-0.56 c -1.4,-0.353 -2.808,-0.704 -4.226,-1.015 -1.426,-0.23 -2.858,-0.445 -4.296,-0.643 -5.751,-0.703 -11.596,-0.797 -17.354,-0.181 -5.762,0.57 -11.462,1.684 -16.982,3.361 -5.5,1.711 -10.891,3.878 -15.786,6.947 5.641,-1.138 11.158,-2.21 16.687,-3.133 5.524,-0.925 11.042,-1.658 16.566,-2.2 5.525,-0.585 11.062,-0.826 16.629,-0.871 1.39,0.012 2.786,0.008 4.189,-0.012 1.392,0.065 2.791,0.131 4.198,0.173 l 2.122,0.041 c 0.701,0.063 1.4,0.14 2.109,0.18 1.414,0.103 2.841,0.196 4.296,0.23 -1.315,-0.573 -2.66,-1.085 -4.016,-1.588 m 108.89,79.326 c 2.674,1.714 6.042,2.668 9.223,2.668 3.666,0 7.082,-1.267 8.899,-4.102 3.43,-5.351 -0.464,-13.702 -6.1,-17.317 -5.88,-3.769 -13.36,-2.631 -16.675,2.54 -3.314,5.169 -1.227,12.442 4.653,16.211 m 62.545,-87.801 c -1.923,2.024 -3.865,3.359 -5.768,4.523 -3.815,2.293 -7.563,3.815 -11.313,5.204 -7.494,2.674 -14.974,4.473 -22.459,6.049 -14.974,3.052 -29.978,4.906 -44.993,6.236 -7.353,0.638 -14.708,1.122 -22.062,1.492 10.209,8.319 19.009,18.301 25.991,29.532 3.081,-2.059 13.465,7.33 35.138,2.792 1.54,-0.323 3.169,0.008 4.413,0.971 12.157,9.421 18.309,29.016 11.051,40.338 -6.407,9.995 -20.874,11.397 -33.354,6.528 0.399,3.962 0.604,7.98 0.604,12.047 0,9.362 -0.005,13.486 -2.097,14.477 0.094,-0.452 0.097,-0.836 0.097,-1.135 0,-2.169 0,-8.77 -35.685,-14 -22.003,-3.224 -51.237,-5 -82.315,-5 -31.112,0 -60.443,1.776 -82.589,5 -24.888,3.624 -32.549,7.898 -34.909,10.906 -0.283,-2.263 -0.286,-5.58 -0.286,-10.248 0,-39.92 19.676,-75.243 49.857,-96.805 -4.49,-0.494 -8.977,-1.013 -13.458,-1.577 -14.833,-1.905 -29.63,-4.173 -44.218,-7.45 -7.289,-1.643 -14.525,-3.574 -21.546,-6.137 -3.494,-1.311 -6.958,-2.764 -10.151,-4.714 -1.591,-0.975 -3.121,-2.079 -4.398,-3.448 -1.283,-1.333 -2.287,-3.072 -2.302,-4.963 0.026,1.891 1.037,3.618 2.324,4.942 1.282,1.358 2.815,2.452 4.408,3.416 3.199,1.928 6.665,3.361 10.162,4.649 7.028,2.522 14.304,4.272 21.6,5.808 14.624,2.986 29.456,4.824 44.31,6.137 5.473,0.463 10.952,0.832 16.432,1.158 4.527,-3.019 9.271,-5.74 14.207,-8.125 -3.065,-0.574 -6.121,-1.19 -9.156,-1.903 -3.695,-0.86 -7.357,-1.884 -10.916,-3.194 -1.772,-0.67 -3.528,-1.413 -5.147,-2.407 -0.806,-0.497 -1.582,-1.06 -2.229,-1.757 -0.65,-0.678 -1.157,-1.564 -1.162,-2.523 0.016,0.959 0.531,1.834 1.185,2.501 0.652,0.687 1.43,1.239 2.239,1.726 1.623,0.972 3.382,1.694 5.157,2.342 3.567,1.269 7.266,2.112 10.97,2.865 3.493,0.679 7.01,1.217 10.54,1.655 15.248,-7.11 32.25,-11.089 50.184,-11.089 15.687,0 30.662,3.045 44.374,8.565 2.495,-0.324 4.987,-0.66 7.467,-1.023 7.359,-1.095 14.685,-2.336 21.726,-4.004 3.507,-0.819 6.962,-1.795 10.056,-2.953 0.496,-0.186 0.978,-0.382 1.449,-0.581 -0.472,-0.2 -0.955,-0.397 -1.451,-0.583 C 48.867,103.85 45.419,102.857 41.91,102.044 34.868,100.388 27.543,99.148 20.186,98.055 12.816,96.984 5.379,96.08 -2.091,95.324 -9.562,94.56 -17.067,93.935 -24.594,93.498 c -15.05,-0.869 -30.194,-1.174 -45.283,-0.146 -7.54,0.517 -15.072,1.34 -22.5,2.781 -3.703,0.752 -7.403,1.596 -10.97,2.863 -1.775,0.649 -3.534,1.37 -5.157,2.342 -0.809,0.487 -1.587,1.039 -2.239,1.725 -0.653,0.668 -1.169,1.542 -1.185,2.501 0.005,-0.959 0.512,-1.843 1.162,-2.522 0.647,-0.697 1.423,-1.26 2.229,-1.758 1.619,-0.994 3.374,-1.736 5.146,-2.406 3.559,-1.313 7.221,-2.336 10.916,-3.197 7.391,-1.737 14.888,-2.996 22.408,-4.111 7.523,-1.093 15.081,-2.006 22.662,-2.769 7.581,-0.777 15.187,-1.399 22.811,-1.837 15.248,-0.87 30.583,-1.161 45.977,-0.097 7.701,0.538 15.406,1.383 23.181,2.904 3.891,0.798 7.803,1.673 11.828,3.118 2.028,0.748 4.069,1.559 6.31,2.897 1.118,0.686 2.308,1.48 3.6,2.832 0.632,0.668 1.311,1.513 1.899,2.678 0.582,1.138 1.043,2.656 1.035,4.268 0,1.612 -0.46,3.129 -1.041,4.266 -0.587,1.164 -1.265,2.009 -1.898,2.676 -1.291,1.352 -2.48,2.146 -3.598,2.831 -2.24,1.338 -4.281,2.149 -6.308,2.898 -4.033,1.421 -7.939,2.313 -11.828,3.107 -2.584,0.501 -5.158,0.923 -7.727,1.29 9.172,-0.851 18.321,-1.84 27.431,-2.999 14.673,-1.887 29.299,-4.14 43.537,-7.352 7.1,-1.601 14.13,-3.484 20.686,-5.895 3.242,-1.21 6.423,-2.573 9,-4.159 1.281,-0.775 2.402,-1.638 3.038,-2.341 0.191,-0.179 0.267,-0.322 0.397,-0.463 0.009,-0.019 0.022,-0.035 0.033,-0.054 -0.013,-0.02 -0.028,-0.04 -0.038,-0.061 -0.13,-0.139 -0.206,-0.284 -0.397,-0.462 -0.635,-0.703 -1.755,-1.567 -3.036,-2.341 -2.577,-1.585 -5.758,-2.948 -8.999,-4.158 C 121.926,89.958 114.902,88.059 107.8,86.462 93.561,83.263 78.936,81.012 64.265,79.126 49.578,77.276 34.802,75.78 19.977,74.73 5.156,73.635 -9.708,72.838 -24.594,72.402 c -10.223,-0.293 -20.455,-0.438 -30.69,-0.412 -45.955,28.414 -83.365,47.168 -112.001,34.367 -6.522,-2.915 -10.381,-18.748 19.445,-16.055 16.979,1.533 39.58,-1.794 76.686,-18.12 -14.278,0.361 -28.561,1.001 -42.802,2.24 -14.854,1.31 -29.686,3.146 -44.311,6.129 -7.296,1.535 -14.571,3.286 -21.6,5.806 -3.497,1.289 -6.963,2.721 -10.162,4.649 -1.593,0.964 -3.126,2.058 -4.408,3.416 -1.287,1.323 -2.298,3.051 -2.324,4.941 0.015,-1.89 1.019,-3.63 2.302,-4.963 1.277,-1.368 2.807,-2.473 4.397,-3.448 3.194,-1.949 6.658,-3.403 10.152,-4.713 7.02,-2.565 14.257,-4.496 21.546,-6.139 14.587,-3.281 29.384,-5.552 44.218,-7.458 14.839,-1.879 29.738,-3.374 44.672,-4.433 2.768,-0.206 5.538,-0.389 8.308,-0.573 3.216,-1.51 6.52,-3.101 9.941,-4.796 36.013,-17.842 44.736,-26.99 66.316,-44.355 51.13,-41.137 73.047,6.193 38.118,27.234 -27.258,16.42 -52.848,-7.192 -100.069,21.058 7.417,-0.386 14.839,-0.691 22.266,-0.908 29.966,-0.884 60.02,-0.481 90.055,2.07 7.507,0.671 15.016,1.44 22.513,2.48 7.497,1.03 14.999,2.199 22.481,3.77 7.483,1.582 14.971,3.364 22.457,6.061 3.75,1.389 7.499,2.911 11.315,5.204 1.902,1.163 3.845,2.499 5.769,4.523 0.95,1 1.91,2.216 2.701,3.794 0.788,1.546 1.378,3.518 1.372,5.592 -0.002,2.076 -0.59,4.044 -1.378,5.59 -0.791,1.577 -1.75,2.793 -2.7,3.792"
             style="fill:#110f0d;fill-opacity:1;fill-rule:nonzero;stroke:none"
             id="path14392" />
        </g>
      </g>
    </g>
  </g>
</svg>
