<?xml version="1.0" encoding="utf-8"?>
<svg version="1.1" id="Layer_1" xmlns="http://www.w3.org/2000/svg" xmlns:xlink="http://www.w3.org/1999/xlink" x="0px" y="0px"
	 viewBox="0 0 4124.153 5000" enable-background="new 0 0 4124.153 5000" xml:space="preserve">
<g>
	<g>
		<g>
			<g>
				<g>
					<rect x="836.711" y="2458.302" fill="#FAB78D" width="250.026" height="111.934"/>
					<path fill="#E59C81" d="M1086.737,2491.527v-33.225H836.711v68.208C934.997,2533.906,1018.897,2518.05,1086.737,2491.527z"/>
				</g>
				<g>
					<g>
						<path fill="#F7B68D" d="M1417.227,3436.574c0,0,89.784-380.921-162.815-777.289c0,0-6.252-90.397,50.104-74.052
							c0,0,404.05,301.72,205.274,872.551C1509.79,3457.785,1453.271,3533.674,1417.227,3436.574z"/>
						<g>
							<path fill="#F7B68D" d="M1501.004,3648.265c43.156-61.627,48.018-122.396,48.018-122.396s8.623-64.406-22.108-94.852
								c0,0-46.018-59.667-108.216-22.11c-15.775,9.522-23.171,29.465-31.794,44.75c-0.613,1.021-1.105,2.084-1.718,3.065
								c-10.175,17.614-21.537,34.654-37.025,48.018c-26.031,22.395-8.133,42.011-8.133,42.011
								c8.133,9.646,22.682,8.665,31.549,0.41c10.83-10.259,21.374-21.129,31.999-31.633c19.085-12.299,19.085,4.578,19.085,4.578
								c-15.611,45.321-45.443,96.896-45.443,96.896c-7.07,20.024,8.296,27.952,8.296,27.952s12.586,13.609,41.479-29.873
								c0,0,25.092-40.214,35.962-82.919c-2.371,28.157-34.696,90.153-34.696,90.153c-21.005,25.378,2.697,35.717,2.697,35.717
								c29.181,7.233,48.755-50.021,48.755-50.021c18.758-50.389,28.362-70.497,28.362-70.497l-30.488,81.611
								c0,0-15.283,26.768-1.429,34.615C1476.157,3653.741,1486.741,3663.1,1501.004,3648.265z"/>
						</g>
					</g>
				</g>
				<g>
					<g>
						<polygon fill="#F1B092" points="833.811,4760.867 658.45,4760.867 618.4,4064.698 873.778,4064.698 						"/>
						<polygon fill="#F7B68D" points="833.811,4760.867 658.45,4760.867 618.4,4064.698 873.778,4064.698 						"/>
						<polygon opacity="0.5" fill="#F1B092" points="618.4,4064.698 618.4,4115.579 805.041,4115.579 765.032,4760.867 
							833.811,4760.867 873.778,4064.698 						"/>
					</g>
					<g>
						<g>
							<path fill="#F7B68D" d="M655.548,4709.989l-10.665,63.506c0,0-33.635,96.365,70.126,106.459
								c0,0,130.408,24.889,125.993-106.459l-4.25-63.506H655.548z"/>
						</g>
						<g>
							<g>
								<path fill="#F06487" d="M747.214,4999.326c0,0,115.613,0.655,111.566-127.914l-11.157-128.648
									c-4.821-55.333-111.934-57.909-111.934-57.909c-89.213,1.921-103.761,57.909-103.761,57.909l-63.261,137.558
									C568.666,4880.322,527.758,5010.443,747.214,4999.326z M814.89,4755.146c1.921,30.568,1.103,70.495-23.5,93.626
									c-28.157,26.278-85.453,15.285-116.797,1.961c-35.882-15.325-32.122-72.621-13.69-101.063c0,0,13.241-34.859,74.868-32.204
									C735.77,4717.467,808.228,4717.467,814.89,4755.146z"/>
								<path fill="#FFFFFF" d="M748.398,4959.399c-124.725,6.333-168.167-31.386-182.061-66.777
									c-3.802,32.204,3.229,115.695,180.876,106.704c0,0,112.139,0.368,111.321-122.886
									C835.814,4959.563,748.398,4959.399,748.398,4959.399z"/>
							</g>
						</g>
						<g>
							<path fill="#FFFFFF" d="M618.4,4817.55c0,0-2.084,16.306-7.723,39.887c-0.737,2.982-1.431,6.007-2.208,9.194
								c-0.695,3.105-1.961,6.825-1.839,8.665c-0.285,5.434,0.9,11.075,3.965,15.569c1.021,2.534,3.842,4.047,5.436,6.294
								l8.01,5.026c6.66,3.392,13.485,5.926,20.882,8.501c7.233,2.452,14.548,5.067,21.905,6.947
								c7.52,1.389,14.59,4.168,21.782,5.109c7.233,1.143,14.14,2.532,20.761,3.758c6.662,0.45,12.996,1.145,18.88,1.8
								c11.893,1.92,21.742,0.694,28.852,1.429c7.152,0.492,11.28,0.695,11.28,0.695s-3.881,1.187-10.749,3.271
								c-3.432,1.021-7.681,2.084-12.546,3.392c-4.821,1.471-10.462,2.534-16.591,2.779c-6.212,0.613-12.956,1.268-20.026,1.676
								c-7.152-0.245-14.793-0.573-22.516-1.186c-15.49-1.511-31.917-5.353-47.857-10.625c-7.681-3.023-15.856-6.333-23.211-10.38
								c-4.005-2.329-7.846-5.434-11.362-8.294c-3.023-3.965-6.744-7.07-8.499-11.73c-4.741-8.581-5.068-18.39-3.189-26.523
								c1.145-4.984,2.615-7.479,3.923-10.543c1.389-3.024,2.739-5.884,4.005-8.663C609.94,4831.648,618.4,4817.55,618.4,4817.55z"
								/>
						</g>
					</g>
					<g>
						<g>
							<polygon fill="#F1B092" points="1093.07,4760.867 1268.39,4760.867 1308.48,4064.698 1053.144,4064.698 							"/>
							<polygon fill="#F7B68D" points="1093.07,4760.867 1268.39,4760.867 1308.48,4064.698 1053.144,4064.698 							"/>
							<polygon opacity="0.5" fill="#F1B092" points="1308.48,4064.698 1308.48,4115.579 1121.799,4115.579 1161.849,4760.867 
								1093.07,4760.867 1053.144,4064.698 							"/>
						</g>
					</g>
					<g>
						<g>
							<path fill="#F7B68D" d="M1271.045,4714.525h-180.632l-3.555,58.97c-4.373,131.348,126.075,106.459,126.075,106.459
								c103.761-10.094,70.129-106.459,70.129-106.459L1271.045,4714.525z"/>
						</g>
						<g>
							<g>
								<path fill="#F06487" d="M1359.237,4880.322l-63.221-137.558c0,0-14.509-55.988-103.762-57.909
									c0,0-107.111,2.576-111.892,57.909l-11.117,128.648c-4.126,128.569,111.484,127.914,111.484,127.914
									C1400.227,5010.443,1359.237,4880.322,1359.237,4880.322z M1192.172,4717.467c61.587-2.655,74.91,32.204,74.91,32.204
									c18.432,28.442,22.15,85.738-13.772,101.063c-31.262,13.324-88.682,24.317-116.757-1.961
									c-24.642-23.131-25.379-63.058-23.497-93.626C1119.715,4717.467,1192.172,4717.467,1192.172,4717.467z"/>
								<path fill="#FFFFFF" d="M1179.545,4959.399c124.767,6.333,168.167-31.386,182.063-66.777
									c3.8,32.204-3.27,115.695-180.878,106.704c0,0-112.137,0.368-111.361-122.886
									C1092.131,4959.563,1179.545,4959.399,1179.545,4959.399z"/>
							</g>
						</g>
						<g>
							<path fill="#FFFFFF" d="M1309.543,4817.55c0,0,2.084,16.306,7.765,39.887c0.653,2.982,1.389,6.007,2.124,9.194
								c0.736,3.105,2.005,6.825,1.839,8.665c0.41,5.434-0.858,11.075-3.963,15.569c-0.9,2.534-3.76,4.047-5.436,6.294l-8.01,5.026
								c-6.62,3.392-13.527,5.926-20.842,8.501c-7.315,2.452-14.59,5.067-21.945,6.947c-7.438,1.389-14.59,4.168-21.742,5.109
								c-7.192,1.143-14.099,2.532-20.761,3.758c-6.66,0.45-12.954,1.145-18.84,1.8c-11.891,1.92-21.782,0.694-28.892,1.429
								c-7.152,0.492-11.28,0.695-11.28,0.695s3.883,1.187,10.749,3.271c3.473,1.021,7.641,2.084,12.506,3.392
								c4.821,1.471,10.502,2.534,16.632,2.779c6.21,0.613,12.872,1.268,20.024,1.676c7.152-0.245,14.712-0.573,22.476-1.186
								c15.611-1.511,31.959-5.353,47.855-10.625c7.725-3.023,15.898-6.333,23.255-10.38c4.005-2.329,7.805-5.434,11.401-8.294
								c2.984-3.965,6.742-7.07,8.459-11.73c4.739-8.581,4.986-18.39,3.187-26.523c-1.145-4.984-2.697-7.479-3.923-10.543
								c-1.429-3.024-2.697-5.884-3.963-8.663C1318.002,4831.648,1309.543,4817.55,1309.543,4817.55z"/>
						</g>
					</g>
				</g>
				<path fill="#FAB78D" d="M1360.218,2661.247c-23.703-75.726-82.756-88.069-82.756-88.069l-220.845-43.603h-94.157h-94.157
					l-220.845,43.603c0,0-59.012,12.343-82.714,88.069c-14.548,426.529-27.176,664.212-52.146,1007.085
					c0,0,184.147,74.868,449.863,67.839c265.677,7.028,449.821-67.839,449.821-67.839
					C1402.024,3489.171,1381.427,3097.911,1360.218,2661.247z"/>
				<path fill="#F178A3" d="M663.723,2569.991c0,0,40.622,282.391-109.403,324.402c0,0-13.525,172.009-47.282,767.603
					l-53.741,386.928c0,0,475.528,166.33,1016.81,6.375l-57.541-398.206c0,0-16.796-371.604-43.4-811.087
					c0,0-148.101-20.392-136.455-281.654l-57.786-13.038c0,0,9.481,183.821-237.314,185.823c0,0-212.099,3.023-225.3-176.708
					L663.723,2569.991z"/>
				<g>
					<g>
						<path fill="#F7B68D" d="M1770.318,1730.258c0,406.789-372.83,736.504-832.705,736.504
							c-459.917,0-832.663-329.714-832.663-736.504c0-406.831,372.746-736.545,832.663-736.545
							C1397.488,993.712,1770.318,1323.426,1770.318,1730.258z"/>
						<g>
							<g>
								<g>
									<g>
										<path fill="#F7B68D" d="M0.288,1877.827c4.128,66.613,50.717,118.023,104.088,114.673
											c53.333-3.27,93.26-59.953,89.132-126.606c-4.128-66.653-50.715-117.984-104.088-114.713
											C36.128,1754.492-3.799,1811.174,0.288,1877.827z"/>
										<g>
											<path fill="#E59C81" d="M47.816,1788.614c5.518-3.842,16.756-5.679,23.581-5.76
												c35.267-0.736,60.769,59.459,25.174,68.247c-13.935,13.322-0.939,30.241-0.939,30.241
												c11.36,14.753,26.644,36.043,21.985,55.946c-2.737,11.851-15.325,17.656-26.481,20.106
												c-8.909,1.921-10.299-5.679-3.147-8.907c5.436-2.494,10.259-6.702,13.977-11.238c0.326-0.695,0.776-1.349,1.184-2.044
												c0.329-0.45,0.573-0.858,0.86-1.389c1.308-2.902,1.429-5.844,0.858-8.746c-8.215,5.723-21.455,6.539-27.26-1.716
												c-6.21-8.991-0.613-22.395-2.287-32.407c-1.389-6.949-4.047-13.691-7.315-20.108
												c-14.672-29.996,14.63-33.428,14.63-33.428c4.413,0.245,7.805,0.776,10.707,1.308c15.12-7.643-0.205-32.286-9.031-36.535
												c-10.136-5.028-23.05-4.086-30.896,4.25c-7.846,8.46-11.443,21.987-11.362,33.183
												c0.123,13.937,2.697,27.873,7.643,40.869c2.779,7.315,6.455,16.019,9.357,23.376c3.229,8.294-5.721,11.441-9.031,3.105
												c-6.825-17.656-19.943-43.645-21.824-67.676C26.648,1819.347,30.897,1800.549,47.816,1788.614z"/>
										</g>
									</g>
								</g>
							</g>
							<g>
								<g>
									<g>
										<path fill="#F7B68D" d="M1874.977,1877.827c-4.168,66.613-50.757,118.023-104.088,114.673
											c-53.331-3.27-93.258-59.953-89.129-126.606c4.126-66.653,50.673-117.984,104.088-114.713
											C1839.136,1754.492,1879.023,1811.174,1874.977,1877.827z"/>
										<g>
											<path fill="#E59C81" d="M1827.448,1788.614c-5.516-3.842-16.754-5.679-23.579-5.76
												c-35.351-0.736-60.811,59.459-25.174,68.247c13.894,13.322,0.94,30.241,0.94,30.241
												c-11.362,14.753-26.645,36.043-22.027,55.946c2.779,11.851,15.325,17.656,26.439,20.106
												c8.991,1.921,10.38-5.679,3.229-8.907c-5.434-2.494-10.257-6.702-13.975-11.238c-0.368-0.695-0.818-1.349-1.186-2.044
												c-0.408-0.45-0.571-0.858-0.858-1.389c-1.308-2.902-1.431-5.844-0.858-8.746c8.173,5.723,21.455,6.539,27.218-1.716
												c6.252-8.991,0.571-22.395,2.329-32.407c1.389-6.949,4.047-13.691,7.273-20.108c14.672-29.996-14.63-33.428-14.63-33.428
												c-4.413,0.245-7.765,0.776-10.625,1.308c-15.161-7.643,0.163-32.286,8.951-36.535c10.175-5.028,23.048-4.086,30.936,4.25
												c7.846,8.46,11.441,21.987,11.401,33.183c-0.205,13.937-2.779,27.873-7.683,40.869
												c-2.779,7.315-6.457,16.019-9.359,23.376c-3.229,8.294,5.723,11.441,9.033,3.105
												c6.823-17.656,19.943-43.645,21.782-67.676C1848.619,1819.347,1844.367,1800.549,1827.448,1788.614z"/>
										</g>
									</g>
								</g>
							</g>
						</g>
						<g>
							<path fill="#E89C80" d="M997.482,1994.216c-7.723,0-13.975-6.252-13.975-13.977c0-25.295-20.558-45.892-45.894-45.892
								c-25.255,0-45.853,20.597-45.853,45.892c0,7.725-6.252,13.977-13.977,13.977c-7.641,0-13.935-6.252-13.935-13.977
								c0-40.661,33.102-73.723,73.765-73.723c40.703,0,73.765,33.062,73.765,73.723
								C1011.377,1987.964,1005.165,1994.216,997.482,1994.216z"/>
						</g>
						<path fill="#70432F" d="M1835.542,1772.595c-37.109-26.808-65.592-21.537-65.592-21.537
							c-32.244-306.951-299.841-592.039-299.841-592.039c127.995,241.114,39.764,376.793,39.764,376.793
							c25.379-215.899-82.633-351.864-82.633-351.864l-10.094,351.864l-212.549-14.875l-20.558-129.998l-50.021,129.998
							l-852.322-36.127c61.669-222.111,141.849-300.986,141.849-300.986c-211.649,133.145-289.54,467.274-289.54,467.274
							c-1.105,5.762-29.957,100.899-28.689,100.899c-53.946,0.778-60.606,16.348-60.606,16.348
							C-191.95,769.883,705.774,578.831,705.897,578.831c101.554-14.793,204.089-26.155,306.828-19.453
							c134.781,8.746,268.171,44.503,387.665,107.724C1400.39,667.103,2016.908,997.227,1835.542,1772.595z"/>
						<g>
							<g>
								<g>
									<path fill="#D6656F" d="M931.687,2272.397c-73.765-5.189-126.156-93.626-126.728-94.565
										c-5.804-9.481-8.052-13.935-4.415-23.334c2.779-7.112,7.233-7.765,15.122-8.052c1.553-0.04,121.946,0.042,245.324,1.471
										c4.699,0.042,10.299,2.576,13.567,6.581c5.313,6.578-1.961,18.43-4.821,22.068
										C1009.865,2252.863,970.714,2272.397,931.687,2272.397z"/>
								</g>
							</g>
							<path fill="#FFFFFF" d="M980.441,2183.839c19.493-7.846,32.488-20.842,41.969-36.454
								c-70.984-0.613-135.269-0.858-169.596-0.898C881.135,2186.781,932.708,2202.966,980.441,2183.839z"/>
						</g>
						<g>
							<path fill="#F4A485" d="M933.321,2322.052c-32.612,0-50.92-10.625-51.983-11.28c-6.702-4.005-8.826-12.628-4.821-19.248
								c3.963-6.62,12.504-8.746,19.124-4.863c1.555,0.897,31.591,17.122,86.639-1.226c7.315-2.452,15.283,1.511,17.735,8.868
								c2.452,7.315-1.511,15.285-8.868,17.737C968.672,2319.518,949.3,2322.052,933.321,2322.052z"/>
						</g>
						<g>
							<g>
								<g>
									<path fill="#70432F" d="M512.596,1596.376c29.873-17.859,62.853-21.413,96.936-18.511
										c15.325,1.308,27.381-15.572,26.768-29.302c-0.695-16.756-14.059-25.502-29.302-26.81
										c-43.687-3.637-86.474,4.578-124.275,27.218C451.582,1567.524,481.579,1614.931,512.596,1596.376L512.596,1596.376z"/>
								</g>
							</g>
							<g>
								<g>
									<path fill="#70432F" d="M1362.629,1596.376c-29.833-17.817-62.853-21.413-96.978-18.511
										c-15.325,1.308-27.381-15.572-26.768-29.302c0.737-16.756,14.101-25.42,29.302-26.81
										c43.687-3.637,86.516,4.578,124.359,27.218C1423.603,1567.524,1393.646,1614.931,1362.629,1596.376L1362.629,1596.376z"/>
								</g>
							</g>
						</g>
						<g>
							<g>
								<g>
									<path fill="#FFFFFF" d="M140.584,1957.723c0,19.656-15.98,35.635-35.635,35.635c-19.74,0-35.677-15.979-35.677-35.635
										c0-19.74,15.938-35.638,35.677-35.638C124.605,1922.086,140.584,1937.984,140.584,1957.723z"/>
								</g>
								<g>
									<path fill="#E6E7E8" d="M113.49,1976.726c-15.611,0-28.239-12.588-28.239-28.199c0-12.546,8.296-22.803,19.698-26.442l0,0
										c-19.74,0-35.677,15.898-35.677,35.638c0,19.656,15.938,35.635,35.677,35.635c19.656,0,35.635-15.979,35.635-35.635
										c0-0.858-0.205-1.718-0.287-2.534C137.232,1967.49,126.649,1976.726,113.49,1976.726z"/>
								</g>
							</g>
							<g>
								<g>
									<path fill="#FFFFFF" d="M1792.386,1957.723c0,19.656-15.898,35.635-35.596,35.635s-35.677-15.979-35.677-35.635
										c0-19.74,15.979-35.638,35.677-35.638S1792.386,1937.984,1792.386,1957.723z"/>
								</g>
								<g>
									<path fill="#E6E7E8" d="M1765.29,1976.726c-15.569,0-28.157-12.588-28.157-28.199c0-12.546,8.296-22.803,19.658-26.442l0,0
										c-19.698,0-35.677,15.898-35.677,35.638c0,19.656,15.979,35.635,35.677,35.635s35.596-15.979,35.596-35.635
										c0-0.858-0.163-1.718-0.205-2.534C1789.076,1967.49,1778.532,1976.726,1765.29,1976.726z"/>
								</g>
							</g>
						</g>
						<g>
							<path fill="#C88973" d="M574.223,1911.013c-13.485,0-13.485,20.882,0,20.882
								C587.669,1931.895,587.669,1911.013,574.223,1911.013z"/>
							<path fill="#C88973" d="M476.716,1920.288c-13.488,0-13.488,20.924,0,20.924
								C490.16,1941.212,490.16,1920.288,476.716,1920.288z"/>
							<path fill="#C88973" d="M537.075,1964.425c-13.485,0-13.485,20.882,0,20.882
								C550.563,1985.307,550.563,1964.425,537.075,1964.425z"/>
							<path fill="#C88973" d="M627.636,1952.777c-13.485,0-13.485,20.924,0,20.924
								C641.123,1973.701,641.123,1952.777,627.636,1952.777z"/>
							<path fill="#C88973" d="M458.079,1978.318c-13.485,0-13.485,20.924,0,20.924
								C471.567,1999.242,471.567,1978.318,458.079,1978.318z"/>
							<path fill="#C88973" d="M562.577,2022.497c-13.446,0-13.446,20.882,0,20.882
								C576.104,2043.379,576.104,2022.497,562.577,2022.497z"/>
							<path fill="#C88973" d="M1363.731,1911.013c-13.485,0-13.485,20.882,0,20.882
								C1377.219,1931.895,1377.219,1911.013,1363.731,1911.013z"/>
							<path fill="#C88973" d="M1266.182,1920.288c-13.485,0-13.485,20.924,0,20.924
								C1279.67,1941.212,1279.67,1920.288,1266.182,1920.288z"/>
							<path fill="#C88973" d="M1326.583,1964.425c-13.485,0-13.485,20.882,0,20.882
								C1340.071,1985.307,1340.071,1964.425,1326.583,1964.425z"/>
							<path fill="#C88973" d="M1417.146,1952.777c-13.488,0-13.488,20.924,0,20.924
								C1430.589,1973.701,1430.589,1952.777,1417.146,1952.777z"/>
							<path fill="#C88973" d="M1247.629,1978.318c-13.485,0-13.485,20.924,0,20.924
								C1261.114,1999.242,1261.114,1978.318,1247.629,1978.318z"/>
							<path fill="#C88973" d="M1352.125,2022.497c-13.485,0-13.485,20.882,0,20.882
								C1365.612,2043.379,1365.612,2022.497,1352.125,2022.497z"/>
						</g>
						<g>
							<g>
								<path fill="#FFFFFF" d="M718.811,1772.718c0,81.53-66.124,147.612-147.612,147.612c-81.53,0-147.654-66.082-147.654-147.612
									s66.124-147.612,147.654-147.612C652.688,1625.107,718.811,1691.188,718.811,1772.718z"/>
								<path fill="#70432F" d="M691.186,1772.718c0,55.333-42.584,100.123-95.057,100.123c-52.555,0-95.139-44.79-95.139-100.123
									c0-55.293,42.584-100.125,95.139-100.125C648.601,1672.594,691.186,1717.425,691.186,1772.718z"/>
								<g>
									<path fill="#E89C80" d="M571.2,1920.33c0,0-7.275,0.203-19.984,0.04c-3.187-0.121-6.702-0.04-10.544-0.326
										c-3.8-0.818-7.97-1.758-12.383-2.739c-4.494-1.021-9.317-2.124-14.343-3.268c-5.068-1.308-9.646-4.21-14.835-6.417
										c-5.028-2.574-10.667-4.699-15.856-7.928c-4.905-3.718-9.972-7.518-15.164-11.441c-5.557-3.678-10.175-8.541-14.63-13.814
										c-4.494-5.231-9.604-10.299-13.527-16.306c-7.152-12.464-15.609-25.052-19.085-40.05
										c-2.369-7.233-5.026-14.506-5.271-22.271c-0.858-8.133-1.758-14.304-2.413-24.152c2.086-14.509,1.473-28.281,7.52-43.769
										c3.597-15.693,12.096-28.076,19.208-40.582c3.963-6.007,9.073-11.075,13.527-16.306c4.455-5.271,9.112-10.133,14.63-13.812
										c5.231-3.923,10.299-7.765,15.203-11.443c5.149-3.268,10.788-5.352,15.856-7.928c5.189-2.208,9.807-5.108,14.751-6.415
										c5.028-1.105,9.767-2.208,14.222-3.229c4.415-0.981,8.501-1.881,12.301-2.739c3.923-0.287,7.52-0.245,10.749-0.326
										c12.914-0.205,20.066,0,20.066,0s-7.233,1.676-19.535,4.005c-3.065,0.613-6.457,1.103-10.094,1.961
										c-3.473,1.431-7.233,2.944-11.28,4.578c-3.963,1.594-8.173,3.31-12.628,5.108c-4.373,1.881-8.42,5.068-12.914,7.683
										c-4.331,2.86-9.196,5.313-13.527,8.786c-4.126,3.76-8.378,7.644-12.751,11.607c-4.699,3.639-8.46,8.378-12.014,13.446
										c-3.473,5.068-7.968,9.562-11.115,15.08c-5.804,11.362-12.343,22.926-15.04,35.309
										c-4.986,11.198-4.576,27.055-6.334,41.113c1.921,11.156,1.021,26.521,6.17,38.454c2.86,13.119,9.441,24.481,15.161,35.882
										c3.189,5.518,7.643,10.012,11.157,15.08c3.515,5.068,7.275,9.807,11.975,13.446c4.413,3.963,8.665,7.846,12.791,11.606
										c4.331,3.473,9.196,5.926,13.527,8.826c4.455,2.576,8.583,5.762,12.872,7.644c4.373,1.758,8.541,3.473,12.464,5.068
										c4.005,1.634,7.765,3.145,11.198,4.536c3.718,0.898,7.233,1.389,10.339,2.002
										C564.088,1918.694,571.2,1920.33,571.2,1920.33z"/>
								</g>
							</g>
							<g>
								<circle fill="#FFFFFF" cx="1304.067" cy="1772.718" r="147.612"/>
								<path fill="#70432F" d="M1184.039,1772.718c0,55.333,42.584,100.123,95.099,100.123c52.513,0,95.097-44.79,95.097-100.123
									c0-55.293-42.584-100.125-95.097-100.125C1226.623,1672.594,1184.039,1717.425,1184.039,1772.718z"/>
								<g>
									<path fill="#E89C80" d="M1304.067,1920.33c0,0,7.11-1.636,19.616-4.005c3.105-0.613,6.578-1.105,10.299-2.002
										c3.473-1.391,7.192-2.902,11.196-4.536c3.923-1.594,8.091-3.31,12.464-5.068c4.291-1.881,8.42-5.068,12.874-7.644
										c4.331-2.9,9.194-5.352,13.525-8.826c4.128-3.76,8.378-7.643,12.751-11.606c4.699-3.639,8.459-8.378,12.015-13.446
										c3.473-5.108,7.97-9.562,11.117-15.08c5.762-11.401,12.341-22.763,15.161-35.882c5.149-11.933,4.292-27.297,6.212-38.454
										c-1.799-14.059-1.349-29.915-6.375-41.113c-2.697-12.383-9.236-23.947-14.998-35.309c-3.147-5.518-7.683-9.97-11.157-15.08
										c-3.515-5.068-7.275-9.807-11.975-13.446c-4.373-3.963-8.623-7.847-12.751-11.565c-4.331-3.515-9.194-5.968-13.525-8.828
										c-4.496-2.615-8.541-5.802-12.914-7.683c-4.455-1.797-8.665-3.513-12.628-5.108c-4.047-1.634-7.807-3.147-11.28-4.578
										c-3.637-0.858-7.028-1.348-10.094-1.961c-12.301-2.329-19.535-4.005-19.535-4.005s7.152-0.205,20.066,0
										c3.229,0.082,6.823,0.04,10.746,0.326c3.802,0.858,7.928,1.758,12.301,2.739c4.455,1.021,9.196,2.124,14.222,3.229
										c4.944,1.308,9.562,4.208,14.793,6.415c5.028,2.576,10.667,4.66,15.816,7.928c4.905,3.72,9.972,7.52,15.203,11.443
										c5.516,3.678,10.175,8.541,14.588,13.812c4.497,5.231,9.604,10.299,13.527,16.306
										c7.112,12.506,15.611,24.889,19.248,40.624c6.007,15.446,5.394,29.218,7.52,43.727c-0.695,9.849-1.594,16.019-2.41,24.152
										c-0.287,7.765-2.944,14.998-5.273,22.271c-3.513,14.998-11.973,27.586-19.085,40.05
										c-3.923,6.007-9.073,11.035-13.527,16.266c-4.455,5.313-9.073,10.175-14.63,13.854
										c-5.189,3.923-10.257,7.723-15.161,11.441c-5.189,3.229-10.83,5.354-15.856,7.928c-5.191,2.208-9.767,5.11-14.793,6.417
										c-5.068,1.145-9.891,2.247-14.385,3.268c-4.415,0.981-8.583,1.921-12.383,2.739c-3.842,0.287-7.357,0.205-10.504,0.326
										C1311.382,1920.533,1304.067,1920.33,1304.067,1920.33z"/>
								</g>
							</g>
						</g>
						<g>
							<path opacity="0.3" fill="#F17382" d="M365.353,2032.959c0,41.438,53.412,74.991,119.413,74.991
								c65.919,0,119.454-33.553,119.454-74.991c0-41.398-53.536-75.073-119.454-75.073
								C418.765,1957.886,365.353,1991.561,365.353,2032.959z"/>
							<path opacity="0.3" fill="#F17382" d="M1271.045,2032.959c0,41.438,53.414,74.991,119.373,74.991
								c65.919,0,119.454-33.553,119.454-74.991c0-41.398-53.536-75.073-119.454-75.073
								C1324.459,1957.886,1271.045,1991.561,1271.045,2032.959z"/>
						</g>
						<path opacity="0.1" fill="#FFFFFF" d="M1519.353,936.171c-215.449-95.873-441.854-74.623-441.854-74.623
							c360.326,175.809,395.919,286.477,395.919,286.477c-178.792-134.371-415.289-175.361-415.289-175.361
							c42.582,135.066,277.036,224.442,277.036,224.442c-332.985-40.09-391.628-204.253-391.628-204.253
							c-63.916-44.505-87.864,79.159-87.864,79.159c9.522-113.405-90.889-158.318-90.889-158.318l29.589-247.49
							C794.374,666.205,1328.259,610.462,1519.353,936.171z"/>
						<path opacity="0.1" fill="#FFFFFF" d="M373.77,1093.1c70.21-93.831,206.176-172.417,206.176-172.417
							c-169.843,50.715-350.272,207.768-350.272,207.768c76.586-162.039,253.907-281.288,253.907-281.288
							c-136.905,30.404-235.802,129.303-235.802,129.303C498.824,677.28,764.785,667.103,764.785,667.103l-43.277,399.474
							C721.509,1066.577,672.591,954.806,373.77,1093.1z"/>
						<path opacity="0.1" fill="#FFFFFF" d="M357.465,1148.72c0,0-254.886,293.547-223.869,459.262c0,0-25.542-90.029-8.049-212.017
							c0,0-90.234,76.217-66.492,174.256c0,0-129.63-192.073,159.668-491.301c0,0-85.371,152.311-74.173,266.779
							C144.549,1345.7,216.923,1186.44,357.465,1148.72z"/>
						<path opacity="0.1" fill="#FFFFFF" d="M1522.786,1052.355c0,0,244.956,301.885,208.463,466.456
							c0,0,28.526-89.132,15.12-211.649c0,0,87.619,79.199,60.648,176.34c0,0,135.963-187.702-143.239-496.287
							c0,0,80.262,155.09,65.224,269.066C1729.001,1256.282,1661.978,1094.735,1522.786,1052.355z"/>
					</g>
				</g>
				<path opacity="0.5" fill="#FFFFFF" d="M518.359,3465.468L96.897,3865.801c0,0,956.246,395.754,1705.132-24.929l-400.906-375.404
					H518.359z"/>
				<path opacity="0.5" fill="#FFFFFF" d="M518.359,3465.468l-413.41,311.937c0,0,923.756,408.505,1697.081,3.8l-400.906-315.737
					H518.359z"/>
				<g>
					<path fill="#70432F" d="M1061.603,596.364c0,0-111.895,65.224-253.581-28.689c-25.337-53.168-115.408-89.745-116.797-90.316
						c-39.722-16.021-80.793-97.509-89.948-136.415c-12.301-52.473,0.613-107.643,22.721-155.703
						C669.444,86.426,770.18,20.997,874.841,6.735C973.74-6.75,1108.15-5.321,1188.822,61.947
						c39.885,33.307,87.822,108.869,90.316,162.281C1279.138,224.27,1302.759,484.387,1061.603,596.364z"/>
					<path fill="#DC4A73" d="M768.056,536.576c-2.084,46.342,33.878,85.533,80.18,87.495l180.265,7.886
						c46.3,2.002,85.493-33.918,87.495-80.22l0,0c2.042-46.302-33.878-85.495-80.18-87.537l-180.305-7.807
						C809.167,454.351,770.058,490.273,768.056,536.576L768.056,536.576z"/>
					<path opacity="0.1" fill="#FFFFFF" d="M1184.123,348.75c0,0-105.845-175.892-347.412-214.183c0,0,81.94-33.92,177.037-4.252
						c0,0-50.349-82.428-131.103-75.767c0,0,254.52-62.935,372.83,191.177c0,0-111.526-88.232-203.884-93.668
						C1051.591,152.058,1170.064,230.685,1184.123,348.75z"/>
					<path opacity="0.1" fill="#FFFFFF" d="M742.269,173.063c0,0,0.082,150.635,137.598,266.085c0,0-64.406-9.644-113.037-64.284
						c0,0,0.531,70.947,53.862,97.265c0,0-183.942-56.643-162.242-261.264c0,0,36.78,97.633,92.85,136.005
						C751.3,346.869,706.429,252.63,742.269,173.063z"/>
				</g>
				<g>
					<g>
						<path fill="#F7B68D" d="M505.845,3405.144c0,0-74.891-417.823,149.877-830.581c0,0-86.771-43.768-181.34,36.858
							c0,0-268.213,220.43-59.371,821.251C415.012,3432.673,476.49,3504.478,505.845,3405.144z"/>
						<g>
							<path fill="#F7B68D" d="M436.79,3622.176c-47.439-58.576-56.369-118.85-56.369-118.85s-12.967-63.661,15.62-96.162
								c0,0,41.867-62.678,106.459-29.481c16.316,8.423,25.089,27.777,34.71,42.385c0.643,1.052,1.345,2.081,2.002,3.071
								c11.281,16.784,23.853,33.05,40.165,45.286c27.555,20.558,11.024,41.393,11.024,41.393
								c-7.486,10.189-22.063,10.212-31.425,2.574c-11.546-9.481-22.739-19.629-34.14-29.328
								c-19.842-11.059-18.685,5.783-18.685,5.783c18.682,44.149,51.918,93.61,51.918,93.61c8.443,19.569-6.272,28.399-6.272,28.399
								s-11.655,14.479-43.474-26.92c0,0-27.829-38.354-41.604-80.274c4.351,27.932,40.767,87.583,40.767,87.583
								c22.727,23.855-0.211,35.841-0.211,35.841c-28.568,9.203-52.048-46.619-52.048-46.619
								c-22.137-48.904-33.13-68.337-33.13-68.337l35.945,79.335c0,0,17.135,25.621,3.953,34.404
								C461.996,3625.869,451.96,3635.946,436.79,3622.176z"/>
						</g>
					</g>
				</g>
			</g>
			<g>
				<g>
					<path fill="#B37345" d="M1653.071,3466.039c30.444,178.874-124.646,361.326-348.412,361.284
						c-223.787,0.042-378.919-182.389-348.433-361.284c30.202-179.916,185.578-299.023,348.433-300.004
						C1467.472,3167.016,1622.869,3286.123,1653.071,3466.039z"/>
					<path fill="#B37345" d="M1221.616,3176.886c-61.135,35.186-115.653,85.514-156.069,139.723
						c-28.731,38.538-54.191,82.43-62.813,130.345c-4.107,22.721-4.292,45.484-1.779,68.432c2.678,24.479,5.825,57.48,21.313,77.893
						c17.287,22.803,45.034,34.123,62.424,56.518c13.956,18.042,22.089,39.764,34.738,58.727
						c28.505,42.829,68.003,67.308,118.534,76.831c26.113,4.923,54.415,7.191,80.978,7.599c24.5,0.368,55.762-0.245,74.52-18.961
						c32.204-32.122,26.665-85.248,53.291-121.499c30.609-41.703,89.234-43.072,132.124-63.814
						c44.524-21.537,75.318-55.68,75.726-107.172c0-1.902-0.123-3.76-0.163-5.641c-0.429-3.268-0.797-6.557-1.368-9.828
						c-30.202-179.916-185.599-299.023-348.412-300.004C1276.542,3166.198,1248.692,3169.979,1221.616,3176.886z"/>
					<path opacity="0.2" fill="#BA7F49" d="M1648.514,3541.173c-34.083,58.196-112.958,42.298-167.738,69.147
						c-38.435,18.882-64.448,46.466-75.134,86.024c-5.967,22.192-5.17,79.672-23.703,95.262
						c-34.125,28.729-65.734,11.401-106.869,6.989c-43.522-4.618-85.535-12.056-121.457-38.824
						c-15.325-11.443-28.3-26.4-38.864-42.256c-13.875-20.842-22.763-48.449-40.519-66.124
						c-17.348-17.245-40.887-28.913-55.844-48.592c-13.303-17.572-19.187-39.743-22.723-61.217
						c-7.192-43.566-7.744-87.027,7.131-129.14c15.714-44.484,41.011-85.085,71.539-120.925
						c33.143-38.946,72.457-75.604,116.163-105.151c-115.939,41.277-211.302,142.87-234.27,279.673
						c-30.486,178.895,124.646,361.326,348.433,361.284c199.43,0.042,344.223-144.915,351.783-303.089
						C1654.337,3530.037,1651.721,3535.697,1648.514,3541.173z"/>
					<path fill="#FFDEBC" d="M1478.854,3381.507c15.222,89.416-62.322,180.653-174.195,180.632
						c-111.895,0.021-189.459-91.215-174.216-180.632c15.101-89.989,92.789-149.532,174.216-150.022
						C1386.065,3231.974,1463.754,3291.518,1478.854,3381.507z"/>
					<g>
						<g>
							<path fill="#B37345" d="M1122.822,2719.687c0,56.804-46.037,102.862-102.864,102.862
								c-56.804,0-102.862-46.058-102.862-102.862c0-56.806,46.058-102.862,102.862-102.862
								C1076.785,2616.825,1122.822,2662.881,1122.822,2719.687z"/>
							<path fill="#FFDEBC" d="M1082.996,2724.958c0,30.426-24.663,55.07-55.067,55.07c-30.384,0-55.049-24.644-55.049-55.07
								c0-30.384,24.665-55.026,55.049-55.026C1058.333,2669.932,1082.996,2694.574,1082.996,2724.958z"/>
						</g>
						<g>
							<path fill="#B37345" d="M1476.526,2719.687c0,56.804,46.037,102.862,102.841,102.862
								c56.825,0,102.883-46.058,102.883-102.862c0-56.806-46.058-102.862-102.883-102.862
								C1522.562,2616.825,1476.526,2662.881,1476.526,2719.687z"/>
							<path fill="#FFDEBC" d="M1516.371,2724.958c0,30.426,24.663,55.07,55.047,55.07c30.386,0,55.049-24.644,55.049-55.07
								c0-30.384-24.663-55.026-55.049-55.026C1541.034,2669.932,1516.371,2694.574,1516.371,2724.958z"/>
						</g>
						<path fill="#B37345" d="M951.608,2947.581c37.843-164.612,177.69-301.599,354.114-301.496
							c176.422-0.103,316.269,136.884,354.111,301.496c36.698,157.358-121.723,327.754-354.111,333.801
							C1073.331,3275.335,914.91,3104.939,951.608,2947.581z"/>
						<path opacity="0.2" fill="#BA7F49" d="M1659.833,2947.581c-37.843-164.612-177.69-301.599-354.111-301.496
							c-176.424-0.103-316.271,136.884-354.114,301.496c-36.698,157.358,121.723,327.754,354.114,333.801
							C1538.111,3275.335,1696.532,3104.939,1659.833,2947.581z M1344.81,3245.502c-200.635-4.986-337.416-146.017-305.725-276.281
							c32.673-136.231,153.395-249.594,305.725-249.534c152.332-0.061,273.052,113.303,305.727,249.534
							C1682.188,3099.484,1545.447,3240.516,1344.81,3245.502z"/>
						<path fill="#FFDEBC" d="M1435.391,3130.092c1.921-34.183-15.754-75.439-43.156-95.097
							c-13.709-9.807-38.538-23.54-78.709-23.54l-0.082,0.021l-0.082-0.021c-40.172,0-65.019,13.732-78.709,23.54
							c-27.402,19.658-45.076,60.914-43.155,95.097c0,0,6.212,69.107,124.807,70.905
							C1316.305,3200.997,1430.489,3202.754,1435.391,3130.092z"/>
						<g>
							<g>
								<path fill="#5D0C10" d="M1342.87,3049.217c9.767,4.741,15.509,12.772,11.033,25.828c0,0-12.404,36.209-44.913,33.694
									c-32.489,2.515-44.913-33.694-44.913-33.715c-0.816-17.553,10.096-26.747,25.992-30.099
									C1301.144,3042.557,1327.196,3041.657,1342.87,3049.217z"/>
							</g>
							<g>
								<g>
									<path fill="#5D0C10" d="M1266.161,2974.962c0,20.76-13.485,37.598-30.097,37.598c-16.614,0-30.078-16.838-30.078-37.598
										c0-20.761,13.464-37.556,30.078-37.556C1252.676,2937.406,1266.161,2954.202,1266.161,2974.962z"/>
									<path fill="#FFFFFF" d="M1240.845,2962.559c0,7.846-6.396,14.243-14.264,14.243c-7.865,0-14.241-6.396-14.241-14.243
										c0-7.886,6.376-14.243,14.241-14.243C1234.449,2948.316,1240.845,2954.672,1240.845,2962.559z"/>
									<path fill="#FFFFFF" d="M1243.563,2989.224c0,3.923-3.189,7.112-7.112,7.112c-3.942,0-7.131-3.189-7.131-7.112
										c0-3.923,3.189-7.11,7.131-7.11C1240.375,2982.114,1243.563,2985.301,1243.563,2989.224z"/>
								</g>
								<g>
									<path fill="#5D0C10" d="M1351.84,2974.962c0,20.76,13.464,37.598,30.099,37.598c16.591,0,30.078-16.838,30.078-37.598
										c0-20.761-13.488-37.556-30.078-37.556C1365.305,2937.406,1351.84,2954.202,1351.84,2974.962z"/>
									<path fill="#FFFFFF" d="M1377.156,2962.559c0,7.846,6.375,14.243,14.264,14.243c7.846,0,14.222-6.396,14.222-14.243
										c0-7.886-6.375-14.243-14.222-14.243C1383.531,2948.316,1377.156,2954.672,1377.156,2962.559z"/>
									<path fill="#FFFFFF" d="M1374.419,2989.224c0,3.923,3.187,7.112,7.131,7.112c3.944,0,7.131-3.189,7.131-7.112
										c0-3.923-3.187-7.11-7.131-7.11C1377.606,2982.114,1374.419,2985.301,1374.419,2989.224z"/>
								</g>
							</g>
							<path fill="#FFFFFF" d="M1344.096,3067.239c-1.023,6.049-8.031,9.932-15.653,8.665c-7.641-1.266-13.017-7.192-12.014-13.241
								c1-6.068,8.01-9.951,15.651-8.683C1339.723,3055.245,1345.076,3061.192,1344.096,3067.239z"/>
						</g>
					</g>
					<g>
						<path fill="#B37345" d="M1106.25,3241.66c-26.236-23.418-98.162,35.493-115.858,48.876
							c-70.17,53.065-166.596,185.639-83.88,269.15c19.8,19.984,64.795,30.384,91.663,19.719
							c22.129-8.807,36.332-32.244,40.929-53.394c5.231-23.948-7.397-42.461-13.322-64.508
							c-6.662-24.826,3.473-40.948,18.411-60.156c25.111-32.304,52.247-66.674,65.734-105.824
							C1115.731,3278.746,1121.657,3255.432,1106.25,3241.66z"/>
						<path opacity="0.2" fill="#BA7F49" d="M1106.25,3241.66c-5.028-4.497-11.77-5.926-19.453-5.273
							c2.902,3.923,5.026,8.338,5.986,13.322c4.25,21.702-7.539,45.608-20.208,62.569c-16.469,22.069-38.538,39.559-54.128,62.28
							c-8.031,11.688-14.938,24.705-17.061,38.906c-2.678,18.043,1.592,35.33,6.476,52.596c6.928,24.561,15.469,55.212-0.858,78.26
							c-11.422,16.143-30.099,23.479-49.634,22.845c-23.416-0.776-46.69-8.255-62.24-26.605c-5.271-6.21-9.786-12.873-13.793-19.819
							c5.089,13.73,13.201,26.849,25.176,38.946c19.8,19.984,64.795,30.384,91.663,19.719c22.129-8.807,36.332-32.244,40.929-53.394
							c5.231-23.948-7.397-42.461-13.322-64.508c-6.662-24.826,3.473-40.948,18.411-60.156
							c25.111-32.304,52.247-66.674,65.734-105.824C1115.731,3278.746,1121.657,3255.432,1106.25,3241.66z"/>
					</g>
					<g>
						<path fill="#B37345" d="M1490.582,3241.66c26.236-23.418,98.183,35.493,115.878,48.876
							c70.149,53.065,166.575,185.639,83.859,269.15c-19.819,19.984-64.793,30.384-91.663,19.719
							c-22.15-8.807-36.332-32.244-40.95-53.394c-5.189-23.948,7.438-42.461,13.364-64.508c6.641-24.826-3.515-40.948-18.43-60.156
							c-25.113-32.304-52.27-66.674-65.755-105.824C1481.123,3278.746,1475.176,3255.432,1490.582,3241.66z"/>
						<path opacity="0.2" fill="#BA7F49" d="M1490.582,3241.66c5.047-4.497,11.77-5.926,19.453-5.273
							c-2.881,3.923-5.005,8.338-5.986,13.322c-4.25,21.702,7.52,45.608,20.187,62.569c16.49,22.069,38.558,39.559,54.149,62.28
							c8.01,11.688,14.958,24.705,17.063,38.906c2.676,18.043-1.594,35.33-6.478,52.596c-6.947,24.561-15.448,55.212,0.858,78.26
							c11.422,16.143,30.12,23.479,49.613,22.845c23.437-0.776,46.71-8.255,62.282-26.605c5.271-6.21,9.767-12.873,13.772-19.819
							c-5.089,13.73-13.222,26.849-25.176,38.946c-19.819,19.984-64.793,30.384-91.663,19.719
							c-22.15-8.807-36.332-32.244-40.95-53.394c-5.189-23.948,7.438-42.461,13.364-64.508c6.641-24.826-3.515-40.948-18.43-60.156
							c-25.113-32.304-52.27-66.674-65.755-105.824C1481.123,3278.746,1475.176,3255.432,1490.582,3241.66z"/>
					</g>
					<g>
						<g>
							<path fill="#B37345" d="M1114.668,3874.729c33.001-21.393,59.093-54.189,68.534-90.479
								c22.129-84.922-39.13-181.632-138.56-150.594c-25.213,7.865-40.232,34.409-44.382,62.688
								c-4.515,30.775,8.359,41.603-0.795,71.763c-7.112,23.439-22.56,44.055-29.67,67.289
								C948.872,3903.867,1075.068,3900.436,1114.668,3874.729z"/>
							<g>
								<path fill="#BE7C48" d="M1100.754,3762.999c0,67.063-44.995,121.457-100.512,121.457
									c-55.498,0-100.493-54.394-100.493-121.457c0-67.063,44.995-121.457,100.493-121.457
									C1055.759,3641.542,1100.754,3695.936,1100.754,3762.999z"/>
								<g>
									<path fill="#FFDEBC" d="M1055.288,3795.693c0,18.758-24.642,33.959-55.047,33.959c-30.407,0-55.049-15.201-55.049-33.959
										c0-18.716,24.642-33.92,55.049-33.92C1030.646,3761.773,1055.288,3776.977,1055.288,3795.693z"/>
									<path fill="#FFDEBC" d="M1019.795,3721.622c0,13.954-8.765,25.255-19.535,25.255c-10.809,0-19.553-11.301-19.553-25.255
										c0-13.956,8.744-25.278,19.553-25.278C1011.03,3696.344,1019.795,3707.666,1019.795,3721.622z"/>
									<g>
										<path fill="#FFDEBC" d="M974.535,3740.073c0,13.935-8.786,25.255-19.574,25.255c-10.788,0-19.535-11.32-19.535-25.255
											c0-13.977,8.746-25.276,19.535-25.276C965.749,3714.797,974.535,3726.096,974.535,3740.073z"/>
										<path fill="#FFDEBC" d="M1065.076,3740.073c0,13.935-8.765,25.255-19.555,25.255c-10.788,0-19.535-11.32-19.535-25.255
											c0-13.977,8.746-25.276,19.535-25.276C1056.311,3714.797,1065.076,3726.096,1065.076,3740.073z"/>
									</g>
								</g>
							</g>
						</g>
						<g>
							<path fill="#B37345" d="M1484.657,3874.729c-32.978-21.393-59.072-54.189-68.534-90.479
								c-22.108-84.922,39.151-181.632,138.581-150.594c25.215,7.865,40.232,34.409,44.402,62.688
								c4.495,30.775-8.378,41.603,0.776,71.763c7.11,23.439,22.558,44.055,29.668,67.289
								C1650.495,3903.867,1524.278,3900.436,1484.657,3874.729z"/>
							<g>
								<path fill="#BE7C48" d="M1498.592,3762.999c0,67.063,44.995,121.457,100.514,121.457
									c55.496,0,100.491-54.394,100.491-121.457c0-67.063-44.995-121.457-100.491-121.457
									C1543.587,3641.542,1498.592,3695.936,1498.592,3762.999z"/>
								<g>
									<path fill="#FFDEBC" d="M1544.057,3795.693c0,18.758,24.642,33.959,55.049,33.959c30.384,0,55.047-15.201,55.047-33.959
										c0-18.716-24.663-33.92-55.047-33.92C1568.699,3761.773,1544.057,3776.977,1544.057,3795.693z"/>
									<path fill="#FFDEBC" d="M1579.53,3721.622c0,13.954,8.786,25.255,19.576,25.255c10.788,0,19.535-11.301,19.535-25.255
										c0-13.956-8.746-25.278-19.535-25.278C1588.316,3696.344,1579.53,3707.666,1579.53,3721.622z"/>
									<g>
										<path fill="#FFDEBC" d="M1624.811,3740.073c0,13.935,8.786,25.255,19.553,25.255c10.809,0,19.555-11.32,19.555-25.255
											c0-13.977-8.746-25.276-19.555-25.276C1633.597,3714.797,1624.811,3726.096,1624.811,3740.073z"/>
										<path fill="#FFDEBC" d="M1534.269,3740.073c0,13.935,8.746,25.255,19.556,25.255c10.788,0,19.534-11.32,19.534-25.255
											c0-13.977-8.746-25.276-19.534-25.276C1543.015,3714.797,1534.269,3726.096,1534.269,3740.073z"/>
									</g>
								</g>
							</g>
						</g>
					</g>
				</g>
				<g>
					<g>
						<path fill="#F7B68D" d="M1546.468,3192.7c0,0,131.408-85.085,113.366-245.119c0,0,62.364,14.977,86.577,95.67
							c0,0,36.922,157.745-134.656,218.372C1611.755,3261.624,1522.744,3293.52,1546.468,3192.7z"/>
						<g>
							<path fill="#F7B68D" d="M1498.96,3415.345c70.108-27.381,107.808-75.278,107.808-75.278s42.827-48.876,34.104-91.255
								c0,0-5.273-75.115-77.893-78.343c-18.369-0.797-35.533,11.73-51.186,19.698c-1.103,0.492-2.145,1.063-3.168,1.594
								c-18.227,8.991-37.127,16.898-57.438,19.411c-34.062,4.252-30.036,30.488-30.036,30.488
								c1.41,12.546,14.099,19.819,26.052,17.817c14.672-2.534,29.465-5.76,44.198-8.581c22.661,0.326,13.322,14.364,13.322,14.364
								c-38.088,29.078-91.5,55.517-91.5,55.517c-17.001,12.751-8.604,27.831-8.604,27.831s3.005,18.35,51.083-1.879
								c0,0,43.197-19.576,75.891-49.123c-17.572,22.15-78.812,55.865-78.812,55.865c-31.509,9.522-17.511,31.244-17.511,31.244
								c20.229,22.129,68.289-14.609,68.289-14.609c43.503-31.633,62.648-43.034,62.648-43.034l-70.597,51.044
								c0,0-27.504,13.854-20.353,28.034C1475.258,3406.149,1478.894,3419.8,1498.96,3415.345z"/>
						</g>
					</g>
				</g>
			</g>
		</g>
		<g>
			<g>
				<path fill="#894A27" d="M2183.172,3470.071c0,0,688.538-474.411,1500.397,78.065l75.963-1760.684H2096.245L2183.172,3470.071z"
					/>
				<g>
					<path fill="#F7B68D" d="M3773.176,1700.154c0,410.236-375.985,742.78-839.806,742.78
						c-463.859,0-839.845-332.544-839.845-742.78c0-410.32,375.985-742.862,839.845-742.862
						C3397.191,957.292,3773.176,1289.834,3773.176,1700.154z"/>
					<g>
						<g>
							<g>
								<g>
									<path fill="#F7B68D" d="M1987.966,1848.99c4.164,67.144,51.193,119.035,105.023,115.657
										c53.748-3.298,94.057-60.465,89.854-127.692c-4.122-67.225-51.11-118.995-104.941-115.697
										C2024.114,1724.596,1983.844,1781.765,1987.966,1848.99z"/>
									<g>
										<path fill="#E59C81" d="M2035.944,1759.012c5.563-3.872,16.857-5.727,23.781-5.81
											c35.572-0.743,61.25,59.971,25.389,68.833c-14.055,13.437-0.948,30.501-0.948,30.501
											c11.417,14.88,26.873,36.313,22.176,56.386c-2.762,11.993-15.456,17.887-26.708,20.36
											c-9.028,1.897-10.387-5.77-3.174-9.026c5.523-2.516,10.305-6.802,14.055-11.377c0.372-0.658,0.783-1.319,1.195-2.02
											c0.371-0.454,0.618-0.907,0.865-1.401c1.361-2.967,1.486-5.934,0.867-8.861c-8.285,5.812-21.639,6.635-27.451-1.733
											c-6.266-9.066-0.618-22.545-2.349-32.643c-1.404-7.008-4.042-13.808-7.38-20.28
											c-14.755-30.294,14.798-33.715,14.798-33.715c4.453,0.205,7.831,0.783,10.759,1.319
											c15.291-7.709-0.165-32.563-9.11-36.849c-10.18-5.069-23.245-4.121-31.119,4.286
											c-7.914,8.532-11.539,22.175-11.499,33.468c0.125,14.057,2.762,28.112,7.707,41.219
											c2.845,7.378,6.555,16.157,9.482,23.534c3.256,8.408-5.772,11.541-9.15,3.174c-6.842-17.807-20.073-44.019-21.969-68.257
											C2014.592,1790.008,2018.838,1771.049,2035.944,1759.012z"/>
									</g>
								</g>
							</g>
						</g>
						<g>
							<g>
								<g>
									<path fill="#F7B68D" d="M3878.733,1848.99c-4.162,67.144-51.193,119.035-104.938,115.657
										c-53.83-3.298-94.06-60.465-89.938-127.692c4.164-67.225,51.11-118.995,105.023-115.697
										C3842.627,1724.596,3882.854,1781.765,3878.733,1848.99z"/>
									<g>
										<path fill="#E59C81" d="M3830.839,1759.012c-5.565-3.872-16.94-5.727-23.783-5.81
											c-35.652-0.743-61.331,59.971-25.389,68.833c13.972,13.437,0.948,30.501,0.948,30.501
											c-11.457,14.88-26.873,36.313-22.258,56.386c2.845,11.993,15.458,17.887,26.71,20.36c9.068,1.897,10.427-5.77,3.214-9.026
											c-5.483-2.516-10.345-6.802-14.097-11.377c-0.369-0.658-0.783-1.319-1.152-2.02c-0.414-0.454-0.578-0.907-0.907-1.401
											c-1.279-2.967-1.401-5.934-0.825-8.861c8.245,5.812,21.639,6.635,27.411-1.733c6.346-9.066,0.618-22.545,2.389-32.643
											c1.401-7.008,4.082-13.808,7.338-20.28c14.798-30.294-14.798-33.715-14.798-33.715c-4.451,0.205-7.789,0.783-10.716,1.319
											c-15.249-7.709,0.165-32.563,9.068-36.849c10.263-5.069,23.248-4.121,31.161,4.286
											c7.954,8.532,11.582,22.175,11.499,33.468c-0.165,14.057-2.802,28.112-7.749,41.219
											c-2.802,7.378-6.47,16.157-9.397,23.534c-3.298,8.408,5.73,11.541,9.068,3.174c6.882-17.807,20.114-44.019,21.969-68.257
											C3852.149,1790.008,3847.861,1771.049,3830.839,1759.012z"/>
									</g>
								</g>
							</g>
						</g>
					</g>
					<g>
						<path fill="#E89C80" d="M2993.712,1966.377c-7.789,0-14.055-6.306-14.055-14.095c0-25.514-20.732-46.288-46.288-46.288
							c-25.512,0-46.286,20.774-46.286,46.288c0,7.789-6.306,14.095-14.055,14.095c-7.749,0-14.055-6.306-14.055-14.095
							c0-41.012,33.385-74.398,74.396-74.398c41.054,0,74.357,33.385,74.357,74.398
							C3007.727,1960.071,3001.461,1966.377,2993.712,1966.377z"/>
					</g>
					<g>
						<path opacity="0.3" fill="#F17382" d="M2356.202,1989.253c0,41.753,53.83,75.634,120.397,75.634
							c66.526,0,120.479-33.881,120.479-75.634s-53.953-75.674-120.479-75.674C2410.032,1913.579,2356.202,1947.5,2356.202,1989.253
							z"/>
						<path opacity="0.3" fill="#F17382" d="M3269.621,1989.253c0,41.753,53.913,75.634,120.439,75.634
							c66.442,0,120.437-33.881,120.437-75.634s-53.995-75.674-120.437-75.674C3323.534,1913.579,3269.621,1947.5,3269.621,1989.253
							z"/>
					</g>
					<g>
						<path fill="#F2907E" d="M2933.369,2195.629c-74.396-5.234-131.936-56.922-132.801-57.623
							c-3.752-2.802-4.947-8.861-2.638-13.437c2.309-4.615,7.335-6.017,11.088-3.214c1.237,0.948,124.351,48.719,248.747,0
							c4.411-1.732,8.697-1.401,11.088,3.214c2.307,4.575,1.112,10.634-2.638,13.437
							C3022.153,2170.858,2972.733,2195.629,2933.369,2195.629z"/>
					</g>
					<g>
						<path fill="#F4A485" d="M2929.043,2259.392c-32.852,0-51.357-10.758-52.429-11.377c-6.759-4.079-8.904-12.736-4.904-19.455
							c3.997-6.635,12.654-8.861,19.331-4.905c1.526,0.907,31.862,17.271,87.38-1.194c7.378-2.516,15.416,1.483,17.889,8.903
							c2.473,7.378-1.568,15.456-8.946,17.887C2964.695,2256.837,2945.158,2259.392,2929.043,2259.392z"/>
					</g>
					<g>
						<path fill="#F48249" d="M2599.139,1466.781c-44.062-3.71-87.218,4.575-125.343,27.409
							c-31.408,18.712-1.154,66.526,30.172,47.854c30.089-18.054,63.35-21.639,97.725-18.712
							c15.458,1.319,27.616-15.705,26.998-29.553C2627.949,1476.879,2614.513,1468.1,2599.139,1466.781z"/>
						<path fill="#F48249" d="M3391.419,1494.19c-38.167-22.794-81.362-31.119-125.423-27.409
							c-15.292,1.359-28.77,10.098-29.553,26.998c-0.578,13.848,11.581,30.872,26.997,29.593
							c34.375-2.967,67.721,0.661,97.808,18.672C3392.533,1560.716,3422.787,1512.903,3391.419,1494.19z"/>
					</g>
					<g>
						<g>
							<g>
								<path fill="#FFFFFF" d="M2129.466,1929.571c0,19.784-16.117,35.941-35.941,35.941c-19.866,0-35.943-16.157-35.943-35.941
									c0-19.909,16.077-35.941,35.943-35.941C2113.349,1893.63,2129.466,1909.662,2129.466,1929.571z"/>
							</g>
							<g>
								<path fill="#E6E7E8" d="M2102.179,1948.737c-15.745,0-28.521-12.736-28.521-28.441c0-12.654,8.407-22.998,19.907-26.666
									h-0.04c-19.866,0-35.943,16.032-35.943,35.941c0,19.784,16.077,35.941,35.943,35.941c19.824,0,35.941-16.157,35.941-35.941
									c0-0.825-0.207-1.69-0.247-2.556C2126.127,1939.38,2115.451,1948.737,2102.179,1948.737z"/>
							</g>
						</g>
						<g>
							<g>
								<path fill="#FFFFFF" d="M3795.474,1929.571c0,19.784-16.074,35.941-35.941,35.941c-19.826,0-35.901-16.157-35.901-35.941
									c0-19.909,16.074-35.941,35.901-35.941C3779.399,1893.63,3795.474,1909.662,3795.474,1929.571z"/>
							</g>
							<g>
								<path fill="#E6E7E8" d="M3768.105,1948.737c-15.663,0-28.399-12.736-28.399-28.441c0-12.654,8.367-22.998,19.826-26.666l0,0
									c-19.826,0-35.901,16.032-35.901,35.941c0,19.784,16.074,35.941,35.901,35.941c19.867,0,35.941-16.157,35.941-35.941
									c0-0.825-0.165-1.69-0.247-2.556C3792.135,1939.38,3781.459,1948.737,3768.105,1948.737z"/>
							</g>
						</g>
					</g>
					<g>
						<g>
							<path fill="#FFFFFF" d="M2712.652,1757.488c0,82.229-66.648,148.878-148.838,148.878
								c-82.269,0-148.917-66.648-148.917-148.878c0-82.229,66.648-148.878,148.917-148.878
								C2646.003,1608.61,2712.652,1675.259,2712.652,1757.488z"/>
							<path fill="#916243" d="M2684.829,1757.488c0,55.768-42.949,100.982-95.872,100.982c-53.005,0-95.953-45.214-95.953-100.982
								c0-55.768,42.948-100.984,95.953-100.984C2641.88,1656.504,2684.829,1701.72,2684.829,1757.488z"/>
							<g>
								<path fill="#E89C80" d="M2563.814,1906.365c0,0-7.356,0.186-20.175,0.019c-3.195-0.101-6.74-0.04-10.615-0.308
									c-3.854-0.844-8.036-1.773-12.489-2.762c-4.533-1.051-9.397-2.142-14.509-3.317c-5.069-1.298-9.684-4.225-14.941-6.47
									c-5.069-2.577-10.737-4.7-15.971-7.977c-4.947-3.729-10.058-7.582-15.313-11.56c-5.584-3.689-10.263-8.574-14.756-13.932
									c-4.514-5.276-9.665-10.366-13.664-16.404c-7.171-12.592-15.703-25.288-19.248-40.413
									c-5.955-14.386-5.708-30.296-7.789-45.752c2.226-16.796,1.526-29.142,7.646-45.216c3.647-15.849,12.221-28.338,19.392-40.97
									c3.978-6.019,9.11-11.128,13.643-16.404c4.493-5.36,9.171-10.244,14.755-13.932c5.257-3.978,10.366-7.831,15.334-11.563
									c5.194-3.275,10.881-5.419,15.952-7.975c5.255-2.245,9.891-5.172,14.92-6.47c5.048-1.154,9.851-2.226,14.344-3.256
									c4.429-0.99,8.572-1.916,12.406-2.784c3.936-0.268,7.583-0.226,10.839-0.329c13.025-0.186,20.238,0.021,20.238,0.021
									s-7.295,1.669-19.702,4.039c-3.092,0.618-6.512,1.112-10.18,1.979c-3.503,1.42-7.295,2.967-11.377,4.615
									c-3.997,1.608-8.243,3.318-12.736,5.132c-4.411,1.895-8.49,5.09-13.025,7.728c-4.368,2.925-9.273,5.379-13.641,8.903
									c-4.164,3.771-8.45,7.686-12.882,11.704c-4.74,3.649-8.532,8.41-12.096,13.561c-3.503,5.111-8.059,9.625-11.233,15.188
									c-5.831,11.48-12.426,23.123-15.146,35.612c-5.029,10.841-4.657,28.359-6.348,40.415c1.813,13.394,1.03,27.327,6.183,39.877
									c2.843,13.211,9.479,24.67,15.292,36.169c3.174,5.544,7.707,10.077,11.231,15.209c3.564,5.132,7.356,9.893,12.096,13.54
									c4.41,4.018,8.718,7.935,12.881,11.706c4.368,3.524,9.273,5.976,13.662,8.904c4.493,2.638,8.656,5.831,12.985,7.728
									c4.411,1.792,8.614,3.482,12.571,5.09c4.039,1.648,7.789,3.174,11.292,4.596c3.731,0.886,7.277,1.401,10.408,2.02
									C2556.643,1904.715,2563.814,1906.365,2563.814,1906.365z"/>
							</g>
						</g>
						<g>
							<path fill="#FFFFFF" d="M3154.049,1757.488c0,82.229,66.648,148.878,148.918,148.878
								c82.187,0,148.877-66.648,148.877-148.878c0-82.229-66.691-148.878-148.877-148.878
								C3220.697,1608.61,3154.049,1675.259,3154.049,1757.488z"/>
							<path fill="#916243" d="M3181.912,1757.488c0,55.768,42.947,100.982,95.912,100.982s95.872-45.214,95.872-100.982
								c0-55.768-42.907-100.984-95.872-100.984S3181.912,1701.72,3181.912,1757.488z"/>
							<g>
								<path fill="#E89C80" d="M3302.967,1906.365c0,0,7.173-1.65,19.763-4.039c3.134-0.618,6.658-1.133,10.408-2.02
									c3.482-1.422,7.255-2.969,11.294-4.617c3.936-1.587,8.14-3.296,12.571-5.09c4.326-1.895,8.469-5.09,12.983-7.728
									c4.368-2.906,9.275-5.358,13.643-8.904c4.162-3.771,8.45-7.686,12.86-11.706c4.74-3.626,8.532-8.408,12.118-13.54
									c3.503-5.13,8.036-9.644,11.21-15.209c5.812-11.499,12.428-22.937,15.292-36.167c5.154-12.531,4.371-26.464,6.183-39.858
									c-1.69-12.056-1.319-29.553-6.348-40.394c-2.72-12.489-9.315-24.153-15.148-35.612c-3.153-5.565-7.728-10.077-11.231-15.209
									c-3.564-5.111-7.335-9.891-12.075-13.54c-4.432-4.018-8.739-7.935-12.881-11.706c-4.347-3.543-9.273-5.977-13.643-8.901
									c-4.512-2.638-8.615-5.833-13.004-7.749c-4.493-1.794-8.758-3.524-12.757-5.132c-4.06-1.648-7.853-3.195-11.356-4.615
									c-3.668-0.867-7.089-1.361-10.18-1.979c-12.406-2.37-19.702-4.039-19.702-4.039s7.213-0.207,20.238-0.021
									c3.256,0.103,6.884,0.042,10.82,0.329c3.854,0.867,7.996,1.794,12.428,2.784c4.493,1.03,9.273,2.123,14.323,3.256
									c5.008,1.319,9.665,4.244,14.899,6.47c5.071,2.577,10.758,4.7,15.992,7.996c4.947,3.731,10.058,7.585,15.294,11.541
									c5.605,3.71,10.262,8.593,14.755,13.951c4.533,5.257,9.687,10.366,13.643,16.406c7.171,12.611,15.743,25.1,19.392,40.97
									c6.12,16.053,5.419,28.399,7.646,45.195c-2.102,15.456-1.834,31.366-7.789,45.731c-3.545,15.127-12.077,27.82-19.248,40.413
									c-3.978,6.059-9.15,11.13-13.664,16.406c-4.493,5.358-9.172,10.241-14.734,13.93c-5.276,3.978-10.387,7.832-15.334,11.563
									c-5.194,3.275-10.881,5.419-15.952,7.975c-5.255,2.245-9.851,5.172-14.962,6.491c-5.09,1.154-9.933,2.266-14.466,3.298
									c-4.472,0.988-8.656,1.916-12.489,2.781c-3.875,0.268-7.42,0.207-10.613,0.308
									C3310.323,1906.551,3302.967,1906.365,3302.967,1906.365z"/>
							</g>
						</g>
					</g>
					<path fill="#F48249" d="M3772.844,1716.022c0,0,28.73-5.276,66.155,21.764c-2.473-1.813,7.914-61.455,8.285-65.908
						c3.997-56.548,34.128-108.359,31.777-164.952c-6.388-153.947-55.396-319.928-139.725-452.732
						c-81.364-128.146-196.649-239.679-330.894-310.696c-120.521-63.806-255.013-99.871-390.99-108.69
						c-103.579-6.719-206.994,4.74-309.459,19.66c-0.082,0-881.764,119.571-675.224,1078.99c0,0,6.759-15.703,61.166-16.446
						c-1.319,0,27.823-95.955,28.893-101.766c42.167-226.118,233.373-311.808,233.373-311.808s253.365-62.569,329.657-159.347
						c0,0,110.875,280.978,384.148,402.2c0,0-211.033-166.807-258.969-360.983
						C2811.038,1185.307,2918.491,1507.298,3772.844,1716.022z"/>
				</g>
				<g>
					<rect x="2806.545" y="2436.504" fill="#FAB78D" width="252.168" height="112.894"/>
					<path fill="#E59C81" d="M3058.712,2470.014v-33.51h-252.168v68.791C2905.713,2512.755,2990.291,2496.762,3058.712,2470.014z"/>
				</g>
				<g>
					<g>
						<polygon fill="#F1B092" points="2803.578,4758.817 2626.753,4758.817 2586.319,4056.678 2843.929,4056.678 						"/>
						<polygon fill="#F7B68D" points="2803.578,4758.817 2626.753,4758.817 2586.319,4056.678 2843.929,4056.678 						"/>
						<polygon opacity="0.5" fill="#F1B092" points="2586.319,4056.678 2586.319,4107.993 2774.643,4107.993 2734.207,4758.817 
							2803.578,4758.817 2843.929,4056.678 						"/>
					</g>
					<g>
						<g>
							<path fill="#F7B68D" d="M2722.336,4707.417c-35.034-0.083-88.782,5.4-109.267,39.075v25.061c0,0-33.882,97.191,70.73,107.372
								c0,0,131.524,25.1,127.074-107.372l0.165-4.533C2797.312,4731.366,2764.627,4707.459,2722.336,4707.417z"/>
						</g>
						<g>
							<g>
								<path fill="#178CC1" d="M2716.277,4999.321c0,0,116.604,0.658,112.483-129.011l-11.21-129.751
									c-4.864-55.81-112.894-58.406-112.894-58.406c-90.021,1.938-104.694,58.406-104.694,58.406l-63.764,138.737
									C2536.198,4879.295,2494.899,5010.531,2716.277,4999.321z M2784.534,4753.045c1.897,30.832,1.112,71.101-23.741,94.431
									c-28.356,26.501-86.144,15.414-117.717,1.977c-36.23-15.456-32.438-73.243-13.89-101.931c0,0,13.354-35.158,75.51-32.478
									C2704.696,4715.044,2777.775,4715.044,2784.534,4753.045z"/>
								<path fill="#FFFFFF" d="M2717.514,4959.051c-125.877,6.388-169.649-31.655-183.704-67.349
									c-3.792,32.478,3.296,116.687,182.468,107.619c0,0,113.101,0.369,112.276-123.942
									C2805.637,4959.216,2717.514,4959.051,2717.514,4959.051z"/>
							</g>
						</g>
						<g>
							<path fill="#FFFFFF" d="M2586.319,4815.985c0,0-2.02,16.446-7.749,40.228c-0.783,3.009-1.401,6.059-2.267,9.275
								c-0.701,3.131-1.937,6.882-1.855,8.737c-0.287,5.482,0.907,11.17,3.999,15.705c1.03,2.555,3.875,4.079,5.565,6.348
								l8.036,5.069c6.719,3.421,13.601,5.977,21.104,8.572c7.255,2.474,14.591,5.111,22.051,7.008
								c7.584,1.401,14.675,4.204,22.011,5.151c7.255,1.154,14.219,2.556,20.939,3.792c6.719,0.454,13.025,1.154,19.042,1.813
								c11.913,1.938,21.886,0.701,29.099,1.444c7.213,0.494,11.294,0.701,11.294,0.701s-3.875,1.194-10.758,3.298
								c-3.543,1.03-7.832,2.102-12.654,3.421c-4.945,1.483-10.592,2.556-16.815,2.802c-6.226,0.619-12.985,1.277-20.198,1.69
								c-7.213-0.249-14.838-0.578-22.627-1.196c-15.705-1.526-32.273-5.398-48.35-10.716c-7.747-3.05-15.91-6.388-23.37-10.47
								c-3.997-2.349-7.914-5.482-11.499-8.367c-2.967-3.997-6.76-7.131-8.532-11.829c-4.822-8.656-5.069-18.547-3.214-26.75
								c1.112-5.029,2.638-7.542,3.997-10.634c1.361-3.049,2.72-5.937,3.999-8.739
								C2577.787,4830.205,2586.319,4815.985,2586.319,4815.985z"/>
						</g>
					</g>
					<g>
						<g>
							<polygon fill="#F1B092" points="3065.143,4758.817 3241.923,4758.817 3282.399,4056.678 3024.791,4056.678 							"/>
							<polygon fill="#F7B68D" points="3065.143,4758.817 3241.923,4758.817 3282.399,4056.678 3024.791,4056.678 							"/>
							<polygon opacity="0.5" fill="#F1B092" points="3282.399,4056.678 3282.399,4107.993 3094.117,4107.993 3134.469,4758.817 
								3065.143,4758.817 3024.791,4056.678 							"/>
						</g>
					</g>
					<g>
						<g>
							<path fill="#F7B68D" d="M3256.721,4743.979c-25.183-25.267-56.097-43.979-94.1-41.341
								c-39.856,2.678-84.618,14.962-104.402,50.614l0.618,18.301c-4.411,132.472,127.114,107.372,127.114,107.372
								c104.691-10.181,70.77-107.372,70.77-107.372V4743.979z"/>
						</g>
						<g>
							<g>
								<path fill="#178CC1" d="M3333.592,4879.295l-63.846-138.737c0,0-14.591-56.468-104.651-58.406
									c0,0-107.948,2.596-112.812,58.406l-11.21,129.751c-4.124,129.669,112.44,129.011,112.44,129.011
									C3374.851,5010.531,3333.592,4879.295,3333.592,4879.295z M3165.054,4715.044c62.156-2.68,75.55,32.478,75.55,32.478
									c18.59,28.688,22.3,86.475-13.89,101.931c-31.573,13.437-89.4,24.524-117.757-1.977
									c-24.855-23.33-25.596-63.599-23.659-94.431C3091.976,4715.044,3165.054,4715.044,3165.054,4715.044z"/>
								<path fill="#FFFFFF" d="M3152.276,4959.051c125.837,6.388,169.652-31.655,183.664-67.349
									c3.792,32.478-3.296,116.687-182.428,107.619c0,0-113.101,0.369-112.276-123.942
									C3064.153,4959.216,3152.276,4959.051,3152.276,4959.051z"/>
							</g>
						</g>
						<g>
							<path fill="#FFFFFF" d="M3283.429,4815.985c0,0,2.144,16.446,7.832,40.228c0.661,3.009,1.484,6.059,2.144,9.275
								c0.741,3.131,2.02,6.882,1.855,8.737c0.372,5.482-0.865,11.17-3.999,15.705c-0.948,2.555-3.792,4.079-5.48,6.348
								l-8.078,5.069c-6.679,3.421-13.603,5.977-20.981,8.572c-7.42,2.474-14.755,5.111-22.175,7.008
								c-7.5,1.401-14.673,4.204-21.927,5.151c-7.295,1.154-14.261,2.556-20.939,3.792c-6.719,0.454-13.107,1.154-19.001,1.813
								c-11.995,1.938-21.969,0.701-29.141,1.444c-7.213,0.494-11.335,0.701-11.335,0.701s3.917,1.194,10.841,3.298
								c3.463,1.03,7.667,2.102,12.571,3.421c4.904,1.483,10.552,2.556,16.735,2.802c6.263,0.619,13.065,1.277,20.278,1.69
								c7.171-0.249,14.798-0.578,22.669-1.196c15.663-1.526,32.233-5.398,48.266-10.716c7.749-3.05,15.992-6.388,23.412-10.47
								c4.039-2.349,7.874-5.482,11.459-8.367c3.049-3.997,6.842-7.131,8.572-11.829c4.782-8.656,5.029-18.547,3.216-26.75
								c-1.197-5.029-2.72-7.542-3.999-10.634c-1.401-3.049-2.72-5.937-3.957-8.739
								C3291.921,4830.205,3283.429,4815.985,3283.429,4815.985z"/>
						</g>
					</g>
				</g>
				<path fill="#FAB78D" d="M3334.499,2641.189c-23.908-76.377-83.466-88.824-83.466-88.824l-222.657-43.979h-95.007h-94.965
					l-222.737,43.979c0,0-59.56,12.447-83.466,88.824c-14.673,430.185-27.369,669.906-52.511,1015.719
					c0,0,185.726,75.512,453.679,68.421c267.955,7.091,453.681-68.421,453.681-68.421
					C3376.746,3476.212,3355.889,3081.597,3334.499,2641.189z"/>
				<path fill="#947FBA" d="M3074.498,2517.701l157.906,30.997c0,0-27.122,167.261,108.277,218.782
					c16.817,341.074,18.383,421.117,45.627,889.429c0,0-185.766,75.512-453.721,68.421
					c-267.953,7.091-453.679-68.421-453.679-68.421c29.471-516.577,35.734-580.793,48.265-874.015
					c123.982-88.699,87.71-230.529,87.71-230.529l168.25-33.181c0,0-45.545,217.792,141.747,232.715
					C2924.879,2751.899,3106.484,2759.853,3074.498,2517.701z"/>
				<g>
					<path fill="#F07194" d="M2508.253,4138.989c0,26.008-21.061,47.071-47.071,47.071c-25.966,0-47.069-21.063-47.069-47.071
						c0-26.007,21.103-47.071,47.069-47.071C2487.192,4091.918,2508.253,4112.981,2508.253,4138.989z"/>
					<path fill="#F07194" d="M2592.667,4163.389c0,26.01-21.061,47.071-47.029,47.071c-26.008,0-47.111-21.061-47.111-47.071
						c0-26.008,21.103-47.069,47.111-47.069C2571.606,4116.32,2592.667,4137.381,2592.667,4163.389z"/>
					<path fill="#F07194" d="M2677.863,4178.64c0,26.008-21.061,47.071-47.069,47.071c-25.968,0-47.071-21.063-47.071-47.071
						c0-25.968,21.103-47.071,47.071-47.071C2656.802,4131.569,2677.863,4152.672,2677.863,4178.64z"/>
					<path fill="#F07194" d="M2762.236,4189.438c0,26.008-21.103,47.111-47.113,47.111c-25.966,0-47.069-21.104-47.069-47.111
						c0-25.967,21.103-47.071,47.069-47.071C2741.133,4142.368,2762.236,4163.471,2762.236,4189.438z"/>
					<path fill="#F07194" d="M2847.39,4197.724c0,26.008-21.061,47.071-47.069,47.071c-26.01,0-47.071-21.063-47.071-47.071
						c0-25.967,21.061-47.071,47.071-47.071C2826.329,4150.653,2847.39,4171.756,2847.39,4197.724z"/>
					<path fill="#F07194" d="M2938.069,4197.724c0,26.008-21.061,47.071-47.071,47.071c-25.966,0-47.069-21.063-47.069-47.071
						c0-25.967,21.103-47.071,47.069-47.071C2917.008,4150.653,2938.069,4171.756,2938.069,4197.724z"/>
					<path fill="#F07194" d="M3026.768,4203.989c0,25.966-21.103,47.069-47.111,47.069c-25.968,0-47.071-21.103-47.071-47.069
						c0-26.01,21.103-47.071,47.071-47.071C3005.665,4156.918,3026.768,4177.979,3026.768,4203.989z"/>
					<path fill="#F07194" d="M3112.583,4197.724c0,26.008-21.104,47.071-47.069,47.071c-25.968,0-47.071-21.063-47.071-47.071
						c0-25.967,21.103-47.071,47.071-47.071C3091.479,4150.653,3112.583,4171.756,3112.583,4197.724z"/>
					<path fill="#F07194" d="M3200.666,4186.06c0,26.008-21.103,47.069-47.071,47.069c-26.008,0-47.111-21.061-47.111-47.069
						c0-26.01,21.103-47.071,47.111-47.071C3179.563,4138.989,3200.666,4160.05,3200.666,4186.06z"/>
					<path fill="#F07194" d="M3282.935,4178.64c0,26.008-21.061,47.071-47.071,47.071c-26.008,0-47.069-21.063-47.069-47.071
						c0-25.968,21.061-47.071,47.069-47.071C3261.874,4131.569,3282.935,4152.672,3282.935,4178.64z"/>
					<path fill="#F07194" d="M3367.059,4156.918c0,25.968-21.061,47.071-47.029,47.071c-26.008,0-47.111-21.103-47.111-47.071
						c0-26.008,21.103-47.111,47.111-47.111C3345.998,4109.807,3367.059,4130.911,3367.059,4156.918z"/>
					<path fill="#F07194" d="M3447.187,4138.989c0,26.008-21.061,47.071-47.071,47.071c-25.966,0-47.069-21.063-47.069-47.071
						c0-26.007,21.103-47.071,47.069-47.071C3426.125,4091.918,3447.187,4112.981,3447.187,4138.989z"/>
				</g>
				<path fill="#6B78B9" d="M3387.38,3645.574l57.994,478.123c-570.203,136.057-1025.531-6.43-1025.531-6.43l54.282-466.747
					C2474.125,3650.521,2888.567,3714.202,3387.38,3645.574z"/>
				<polygon fill="#F48249" points="3723.632,1608.61 3683.569,3548.136 3915.087,3645.574 3879.062,1506.926 				"/>
				<path fill="#F48249" d="M1931.458,3650.975l240.255-175.504V1455.776l-166.847-92.492
					C2004.865,1363.284,1909.818,2782.812,1931.458,3650.975z"/>
				<path opacity="0.1" fill="#FFFFFF" d="M2147.807,1651.518c0,0-17.269,210.622-34.787,385.465c0,0,0.576-66.195-26.791-157.45
					c0,0-31.201,67.389-65.825,189.023c0,0-22.009-257.237,28.276-441.851c0,0-10.469,134.658,34.58,211.362
					C2083.26,1838.067,2092.41,1753.449,2147.807,1651.518z"/>
				<path opacity="0.1" fill="#FFFFFF" d="M2127.858,2190.353c0,0-17.311,210.622-34.829,385.465c0,0,0.536-66.195-26.791-157.45
					c0,0-31.201,67.389-65.823,189.022c0,0-22.011-257.237,28.234-441.809c0,0-10.429,134.616,34.622,211.32
					C2063.271,2376.902,2072.421,2292.284,2127.858,2190.353z"/>
				<path opacity="0.1" fill="#FFFFFF" d="M3417.758,901.567c-206.954-67.967-412.998-27.369-412.998-27.369
					c347.544,128.021,390.534,226.407,390.534,226.407c-176.78-106.876-397.954-122.498-397.954-122.498
					c51.686,120.192,275.498,180.45,275.498,180.45c-309.75-5.812-378.952-151.184-378.952-151.184
					c-62.858-34.994-73.328,80.95-73.328,80.95c-1.813-105.145-98.303-137.089-98.303-137.089l4.164-230.117
					C2726.417,721.117,3211.836,620.093,3417.758,901.567z"/>
				<path opacity="0.1" fill="#FFFFFF" d="M2356.202,1111.404c64.836-86.638,190.426-159.18,190.426-159.18
					c-156.874,46.782-323.516,191.867-323.516,191.867c70.77-149.703,234.528-259.835,234.528-259.835
					c-126.498,28.152-217.793,119.447-217.793,119.447c231.847-276.32,477.503-285.76,477.503-285.76l-39.94,369.019
					C2677.409,1086.962,2632.236,983.671,2356.202,1111.404z"/>
				<path opacity="0.1" fill="#FFFFFF" d="M3330.994,1280.561c0,0,371.245,126.042,428.539,286.049
					c0,0-23.536-91.379-100.859-188.735c0,0,117.387,20.485,146.527,117.881c0,0,15.209-233.206-388.926-346.597
					c0,0,151.885,89.235,200.275,194.587C3616.549,1343.747,3472.536,1241.898,3330.994,1280.561z"/>
				<path opacity="0.1" fill="#FFFFFF" d="M2473.302,1190.665c0,0-343.3,189.436-371.452,357.108c0,0,7.089-94.1,65.99-203.531
					c0,0-111.947,40.845-123.448,141.911c0,0-56.097-226.943,321.826-409.784c0,0-133.749,114.542-162.89,226.861
					C2203.327,1303.231,2327.185,1177.558,2473.302,1190.665z"/>
				<path opacity="0.5" fill="#FFFFFF" d="M2496.465,3503.623l-420.129,449.682c0,0,953.235,444.529,1699.725-27.987
					l-399.686-421.695H2496.465z"/>
				<path opacity="0.5" fill="#FFFFFF" d="M2496.465,3503.623l-412.051,350.429c0,0,920.797,458.792,1691.646,4.246
					l-399.686-354.675H2496.465z"/>
				<g>
					<g>
						<path fill="#F7B68D" d="M2458.587,3443.445c0,0-120.397-333.654,134.287-733.465c0,0,26.05-88.699-25.638-128.555
							c0,0-372.687,420.952-201.965,883.412C2365.27,3464.837,2422.11,3541.377,2458.587,3443.445z"/>
						<g>
							<path fill="#F7B68D" d="M2374.091,3657.033c-43.69-62.238-48.554-123.528-48.554-123.528s-8.615-64.958,22.422-95.666
								c0,0,46.453-60.136,109.144-22.258c15.868,9.562,23.245,29.635,31.984,45.051c0.618,1.112,1.155,2.142,1.813,3.174
								c10.182,17.68,21.682,34.909,37.302,48.348c26.297,22.627,8.161,42.411,8.161,42.411c-8.161,9.729-22.874,8.739-31.737,0.414
								c-10.963-10.347-21.515-21.268-32.313-31.862c-19.248-12.489-19.248,4.575-19.248,4.575
								c15.785,45.71,45.834,97.727,45.834,97.727c7.089,20.278-8.285,28.192-8.285,28.192s-12.778,13.726-41.92-30.129
								c0,0-25.307-40.518-36.313-83.63c2.391,28.399,34.994,90.926,34.994,90.926c21.228,25.596-2.678,36.063-2.678,36.063
								c-29.428,7.255-49.173-50.532-49.173-50.532c-18.959-50.739-28.646-71.059-28.646-71.059l30.748,82.311
								c0,0,15.416,26.998,1.484,34.911C2399.109,3662.474,2388.435,3671.914,2374.091,3657.033z"/>
						</g>
					</g>
				</g>
				<g>
					<g>
						<path fill="#F7B68D" d="M3420.683,3472.626c0,0,85.363-387.444-169.403-787.253c0,0-20.61-85.69,42.7-109.142
							c0,0,390.743,455.327,220.019,917.788C3514,3494.019,3457.08,3570.558,3420.683,3472.626z"/>
						<g>
							<path fill="#F7B68D" d="M3505.178,3686.133c43.568-62.198,48.432-123.446,48.432-123.446s8.655-64.958-22.34-95.666
								c0,0-46.411-60.178-109.144-22.298c-15.87,9.602-23.33,29.676-31.984,45.132c-0.66,0.99-1.197,2.062-1.815,3.092
								c-10.22,17.725-21.679,34.911-37.342,48.39c-26.255,22.587-8.203,42.371-8.203,42.371c8.203,9.769,22.918,8.779,31.862,0.411
								c10.881-10.305,21.515-21.268,32.316-31.86c19.166-12.407,19.206,4.575,19.206,4.575
								c-15.785,45.71-45.874,97.768-45.874,97.768c-7.131,20.196,8.367,28.152,8.367,28.152s12.736,13.724,41.835-30.089
								c0,0,25.349-40.558,36.313-83.672c-2.391,28.441-34.994,90.968-34.994,90.968c-21.186,25.554,2.72,35.983,2.72,35.983
								c29.389,7.335,49.173-50.409,49.173-50.409c18.919-50.863,28.604-71.101,28.604-71.101l-30.748,82.311
								c0,0-15.416,26.958-1.443,34.911C3480.118,3691.656,3490.794,3701.095,3505.178,3686.133z"/>
						</g>
					</g>
				</g>
				<g>
					<g>
						<g>
							<path fill="#B07BB4" d="M2683.757,2621.198l-123.94-78.065c0,0-42.496-15.498-57.829,29.925
								c0,0-37.383,127.814,24.566,178.471c0,0,81.94,24.113,157.203-93.234V2621.198z"/>
							<path opacity="0.1" fill="#FFFFFF" d="M2537.807,2671.401c-8.572-9.891,3.71-18.877,7.831-28.646
								c-20.896-0.247-23.906-29.306-13.932-43.114c7.544-10.469,23.33-10.098,33.881-15.827c4.657-2.513-10.841-8.984-12.035-9.15
								c-3.463-0.452-6.842-0.658-10.305-0.741c-5.647-0.125-11.21-0.247-16.775-1.361c-0.865-0.165-1.319-0.658-1.608-1.195
								c-3.379-0.494-6.677-0.247-10.016-0.042c-0.658,8.904-6.717,17.189-5.934,25.803c0.948,10.552,9.52,20.238,8.365,30.912
								c-1.112,10.222-4.615,20.363-4.904,30.625c-0.371,12.242,4.328,17.64,11.871,26.504c3.67,4.411,6.43,9.727,6.512,15.496
								c0.207,7.42-7.914,11.542,3.668,16.942c13.067,6.099,38.417,5.563,47.442-7.338c-1.072-0.412-2.144-0.823-3.214-1.237
								c-1.319-0.494-2.391-2.06-1.444-3.421c2.513-3.585,4.533-7.171,7.295-10.427c-6.924-2.598-9.809-8.739-17.353-12.035
								C2557.426,2678.903,2545.391,2680.14,2537.807,2671.401z"/>
							<path fill="#D0BFDD" d="M2559.817,2543.133c0,0-23.454-8.532-41.753,5.647c18.299-0.496,38.167,7.749,53.581,14.962
								c21.928,10.18,45.875,23.327,60.797,42.947c0.618,0.865,0.247,2.226-0.454,2.927c-7.956,8.203-22.011,6.223-32.231,4.905
								c-7.544-0.948-15.045-2.349-22.589-2.885c-2.06-0.165-20.854,1.401-13.848,4.865c20.073,9.891,45.256,2.306,66.442,7.295
								c1.361,0.287,1.855,1.688,1.65,2.967c-4.246,29.224-49.791,12.407-60.839,35.034c21.722,2.722,39.282-15.127,60.961-15.042
								c1.401,0.04,2.226,1.112,2.431,2.431c2.309,20.073-26.584,24.195-38.579,36.27c15.87-1.606,27.905-15.085,42.785-20.403
								c1.277-0.452,2.513,0.536,3.007,1.69c11.788,31.532-31.613,59.313-56.344,67.309c-18.755,6.099-39.733,10.963-59.064,4.328
								c-6.183-2.144-12.035-5.029-17.6-8.41c4.864,8.038,10.881,15.374,18.383,21.557c0,0,81.94,24.113,157.203-93.234v-37.095
								L2559.817,2543.133z"/>
						</g>
						<g>
							<path fill="#B07BB4" d="M2685.859,2621.198l123.982-78.065c0,0,42.496-15.498,57.787,29.925
								c0,0,37.425,127.814-24.566,178.471c0,0-81.898,24.113-157.203-93.234V2621.198z"/>
							<path opacity="0.1" fill="#FFFFFF" d="M2831.852,2671.401c8.572-9.891-3.75-18.877-7.832-28.646
								c20.856-0.247,23.906-29.306,13.89-43.114c-7.542-10.469-23.288-10.098-33.839-15.827c-4.617-2.513,10.799-8.984,12.035-9.15
								c3.421-0.452,6.842-0.658,10.262-0.741c5.647-0.125,11.252-0.247,16.817-1.361c0.825-0.165,1.319-0.658,1.526-1.195
								c3.421-0.494,6.717-0.247,10.098-0.042c0.618,8.904,6.717,17.189,5.934,25.803c-0.988,10.552-9.562,20.238-8.408,30.912
								c1.155,10.222,4.658,20.363,4.947,30.625c0.287,12.242-4.371,17.64-11.871,26.504c-3.67,4.411-6.43,9.727-6.595,15.496
								c-0.125,7.42,7.996,11.542-3.585,16.942c-13.107,6.099-38.417,5.563-47.483-7.338c1.152-0.412,2.142-0.823,3.214-1.237
								c1.361-0.494,2.431-2.06,1.484-3.421c-2.513-3.585-4.575-7.171-7.336-10.427c6.924-2.598,9.851-8.739,17.351-12.035
								C2812.232,2678.903,2824.227,2680.14,2831.852,2671.401z"/>
							<path fill="#D0BFDD" d="M2809.841,2543.133c0,0,23.412-8.532,41.713,5.647c-18.301-0.496-38.21,7.749-53.583,14.962
								c-21.926,10.18-45.832,23.327-60.712,42.947c-0.661,0.865-0.329,2.226,0.329,2.927c7.996,8.203,22.051,6.223,32.273,4.905
								c7.502-0.948,15.085-2.349,22.629-2.885c2.06-0.165,20.814,1.401,13.766,4.865c-20.073,9.891-45.174,2.306-66.402,7.295
								c-1.359,0.287-1.813,1.688-1.648,2.967c4.286,29.224,49.831,12.407,60.837,35.034c-21.722,2.722-39.28-15.127-60.919-15.042
								c-1.444,0.04-2.267,1.112-2.431,2.431c-2.391,20.073,26.544,24.195,38.579,36.27c-15.91-1.606-27.945-15.085-42.785-20.403
								c-1.319-0.452-2.596,0.536-3.007,1.69c-11.788,31.532,31.573,59.313,56.344,67.309c18.712,6.099,39.733,10.963,59.024,4.328
								c6.223-2.144,12.075-5.029,17.598-8.41c-4.822,8.038-10.839,15.374-18.383,21.557c0,0-81.898,24.113-157.203-93.234v-37.095
								L2809.841,2543.133z"/>
						</g>
					</g>
					<g>
						<path fill="#B07BB4" d="M2725.635,2666.908c0,15.705-12.778,28.441-28.481,28.441h-24.649
							c-15.703,0-28.481-12.736-28.481-28.441v-39.651c0-15.703,12.778-28.439,28.481-28.439h24.649
							c15.703,0,28.481,12.736,28.481,28.439V2666.908z"/>
						<path fill="#D0ABD0" d="M2722.421,2652.853c1.441,6.472,1.483,10.511-1.155,16.735c-1.197,2.885-5.607,5.398-8.078,2.142
							c-0.536-0.783-1.237-1.401-1.815-2.102c-3.668,4.864-4.533,12.284-9.397,16.364c-4.615,3.834-11.045,2.516-16.281,1.361
							c-11.459-2.516-6.512-11.831-4.368-19.538c-11.499,1.773-21.681-10.594-22.464-22.547
							c-0.536-7.707,6.308-14.137,12.531-17.229c2.431-1.195,14.962-5.563,5.111-6.141c-3.339-0.205-5.647-1.277-8.492-2.843
							c-2.267-1.237-3.092-4.453-1.73-6.637c3.75-5.852,8.614-9.933,13.932-13.601h-7.709c-15.703,0-28.481,12.736-28.481,28.439
							v39.651c0,15.705,12.778,28.441,28.481,28.441h24.649c15.703,0,28.481-12.736,28.481-28.441v-30.211
							C2721.678,2639.581,2721.348,2647.866,2722.421,2652.853z"/>
						<path opacity="0.1" fill="#FFFFFF" d="M2691.012,2608.38c-0.125,0.04-0.207,0.125-0.247,0.165
							c-1.154,0.536-1.897,1.237-2.391,2.062c0.04,0.082,0,0.122,0.04,0.165c0.743,1.484,0.661,2.885,0.207,4.039
							c3.627,1.441,5.894,4.246,4.698,11.375c-0.369,1.897-1.977,3.505-3.832,4.824c-0.083,0.287-0.083,0.618-0.289,0.865
							c-4.451,7.707-15.496,0.783-16.032,12.776c-0.289,7.173,11.911,5.607,16.032,11.583c1.032,0.658,1.937,1.566,2.144,2.678
							c0.411,2.062,0.907,4.082,0.743,6.101c1.853,4.039,4.822,5.398,8.325,5.194c1.978-4.575,3.997-8.492,8.904-11.748
							c1.152-0.823,2.72-0.823,4.079-0.329c-0.289-10.841-6.141-21.804,4.081-30.83c0.287-1.773,0.04-3.216-1.361-3.668
							c-2.596-0.907-5.151-1.69-7.667-2.927c-1.853-0.948-2.925-3.792-2.925-5.729c-0.042-3.298,1.401-2.68-0.743-3.71
							c-3.585-1.73-7.954-2.76-11.911-2.845C2692.125,2608.42,2691.589,2608.38,2691.012,2608.38z"/>
					</g>
				</g>
			</g>
			<g>
				<g>
					<path fill="#EB524F" d="M3895.9,2686.013c296.25,331.883,267.377,841.083-64.485,1137.313
						c-331.863,296.27-841.062,267.377-1137.332-64.485c-296.229-331.862-267.358-841.062,64.504-1137.313
						C3090.471,2325.279,3599.65,2354.15,3895.9,2686.013z"/>
					<path opacity="0.2" fill="#FFFFFF" d="M3159.696,2578.806c-352.679,273.725,379.364,721.037,563.832,319.684
						c59.23-128.95-71.306-290.42-192.279-335.036c-72.171-26.565-254.601-55.561-324.607-15.787
						C3189.393,2557.477,3173.833,2567.843,3159.696,2578.806z"/>
					<path opacity="0.5" fill="#EB524F" d="M4022.767,2986.695c-3.75,306.163-290.109,587.162-574.219,638.519
						c-285.699,51.625-563.444-137.708-695.112-376.747c-59.313-107.621-92.162-222.596-68.586-345.217
						c17.969-93.441,102.836-313.811,185.973-365.436c-39.096,24.277-76.727,52.039-112.236,83.713
						c-331.862,296.25-360.734,805.45-64.504,1137.313c296.27,331.862,805.469,360.755,1137.332,64.485
						c280.259-250.169,344.412-652.183,179.192-971.042C4018.892,2896.635,4023.324,2941.5,4022.767,2986.695z"/>
					<path fill="#FFFFFF" d="M3422.601,2586.287c66.277,11.066,114.707,52.079,108.112,91.586
						c-6.595,39.527-65.701,62.588-131.999,51.541c-66.277-11.066-114.686-52.077-108.091-91.605
						C3297.218,2598.303,3356.322,2575.22,3422.601,2586.287z"/>
					<g>
						<g>
							<path fill="#F27F89" d="M3148.134,3392.953c20.403,22.855,3.545,71.205-37.693,108.032s-91.236,48.12-111.639,25.265
								c-20.382-22.855-3.482-71.182,37.756-108.009C3077.817,3381.414,3127.752,3370.098,3148.134,3392.953z"/>
							<path fill="#F27F89" d="M3637.323,2956.275c20.382,22.836,3.482,71.266-37.735,108.053
								c-41.238,36.827-91.215,48.12-111.617,25.265c-20.382-22.855-3.503-71.203,37.756-108.009
								C3566.944,2944.775,3616.939,2933.42,3637.323,2956.275z"/>
						</g>
						<g>
							<g>
								<path fill="#D0D2D3" d="M3073.943,3220.501c49.831,55.086,45.524,140.16-9.604,189.949
									c-55.067,49.852-140.181,45.526-189.93-9.562c-49.831-55.128-45.524-140.2,9.562-189.991
									C2939.099,3161.084,3024.152,3165.392,3073.943,3220.501z"/>
								<path fill="#5C0027" d="M3058.527,3234.452c42.124,46.575,38.497,118.5-8.121,160.584
									c-46.596,42.124-118.478,38.497-160.582-8.078c-42.103-46.617-38.499-118.501,8.118-160.626
									C2944.539,3184.207,3016.445,3187.877,3058.527,3234.452z"/>
								<path fill="#FFFFFF" d="M2988.582,3297.659c15.393,17.064,14.055,43.361-2.969,58.756
									c-17.022,15.435-43.361,14.076-58.735-2.967c-15.456-17.064-14.095-43.342,2.927-58.735
									C2946.869,3279.297,2973.166,3280.616,2988.582,3297.659z"/>
								<path fill="#FFFFFF" d="M2997.69,3245.745c7.728,8.532,7.048,21.66-1.484,29.348c-8.511,7.707-21.639,7.049-29.367-1.484
									c-7.728-8.513-7.048-21.66,1.484-29.367C2976.834,3236.533,2990.002,3237.213,2997.69,3245.745z"/>
							</g>
							<g>
								<path fill="#D0D2D3" d="M3309.004,3008.085c49.791,55.109,134.844,59.395,189.951,9.604
									c55.128-49.791,59.417-134.863,9.625-189.97c-49.812-55.109-134.863-59.395-189.972-9.604
									C3263.501,2867.926,3259.173,2952.999,3309.004,3008.085z"/>
								<path fill="#5C0027" d="M3324.462,2994.134c42.082,46.617,113.966,50.224,160.541,8.099
									c46.575-42.084,50.224-114.009,8.121-160.563c-42.124-46.596-114.009-50.224-160.583-8.142
									C3285.966,2875.654,3282.338,2947.578,3324.462,2994.134z"/>
								<path fill="#FFFFFF" d="M3394.367,2930.927c15.414,17.022,41.711,18.362,58.775,2.967
									c17.064-15.395,18.383-41.713,2.948-58.777c-15.395-17.022-41.692-18.362-58.756-2.967
									C3380.312,2887.566,3378.993,2913.903,3394.367,2930.927z"/>
								<path fill="#FFFFFF" d="M3341.794,2934.781c7.686,8.49,20.835,9.172,29.367,1.463c8.49-7.707,9.19-20.856,1.484-29.346
									c-7.709-8.532-20.856-9.211-29.367-1.526C3334.767,2913.099,3334.064,2926.249,3341.794,2934.781z"/>
							</g>
						</g>
						
							<path fill="none" stroke="#5C0027" stroke-width="51.4952" stroke-linecap="round" stroke-linejoin="round" stroke-miterlimit="10" d="
							M3628.646,3195.255c47.979,223.727-189.269,435.524-406.156,362.549"/>
					</g>
				</g>
				<g>
					<g>
						<g>
							<path fill="#F7B68D" d="M3919.126,3126.298c0,0,132.535-85.793,114.338-247.223c0,0,62.896,15.127,87.317,96.491
								c0,0,37.241,159.1-135.81,220.266C3984.971,3195.831,3895.199,3228.001,3919.126,3126.298z"/>
							<g>
								<path fill="#F7B68D" d="M3871.211,3350.871c70.709-27.616,108.73-75.924,108.73-75.924s43.197-49.295,34.396-92.038
									c0,0-5.318-75.778-78.562-79.013c-18.527-0.804-35.838,11.828-51.623,19.846c-1.114,0.494-2.165,1.072-3.195,1.608
									c-18.383,9.087-37.446,17.064-57.931,19.599c-34.356,4.286-30.296,30.727-30.296,30.727
									c1.422,12.654,14.221,19.991,26.276,17.993c14.798-2.577,29.718-5.812,44.577-8.656
									c22.857,0.329,13.438,14.487,13.438,14.487c-38.414,29.327-92.287,55.974-92.287,55.974
									c-17.146,12.879-8.676,28.07-8.676,28.07s3.028,18.527,51.521-1.897c0,0,43.566-19.742,76.54-49.523
									c-17.723,22.34-79.488,56.346-79.488,56.346c-31.777,9.583-17.661,31.509-17.661,31.509
									c20.403,22.319,68.875-14.755,68.875-14.755c43.876-31.881,63.186-43.401,63.186-43.401l-71.203,51.501
									c0,0-27.738,13.972-20.525,28.274C3847.305,3341.596,3850.973,3355.364,3871.211,3350.871z"/>
							</g>
						</g>
					</g>
				</g>
			</g>
		</g>
	</g>
</g>
</svg>
