<?xml version="1.0" encoding="UTF-8" standalone="no"?>
<!-- Created with Inkscape (http://www.inkscape.org/) -->

<svg
   version="1.1"
   id="svg2182"
   width="800"
   height="800"
   viewBox="0 0 800 800"
   sodipodi:docname="golden-fish-publicdomainvectors.org.svg"
   inkscape:version="1.2 (dc2aedaf03, 2022-05-15)"
   xmlns:inkscape="http://www.inkscape.org/namespaces/inkscape"
   xmlns:sodipodi="http://sodipodi.sourceforge.net/DTD/sodipodi-0.dtd"
   xmlns="http://www.w3.org/2000/svg"
   xmlns:svg="http://www.w3.org/2000/svg">
  <defs
     id="defs2186">
    <clipPath
       clipPathUnits="userSpaceOnUse"
       id="clipPath2198">
      <path
         d="M 0,600 H 600 V 0 H 0 Z"
         id="path2196" />
    </clipPath>
  </defs>
  <sodipodi:namedview
     id="namedview2184"
     pagecolor="#ffffff"
     bordercolor="#000000"
     borderopacity="0.25"
     inkscape:showpageshadow="2"
     inkscape:pageopacity="0.0"
     inkscape:pagecheckerboard="0"
     inkscape:deskcolor="#d1d1d1"
     showgrid="false"
     inkscape:zoom="1.04625"
     inkscape:cx="400"
     inkscape:cy="400.4779"
     inkscape:window-width="1920"
     inkscape:window-height="1017"
     inkscape:window-x="-8"
     inkscape:window-y="-8"
     inkscape:window-maximized="1"
     inkscape:current-layer="g2190">
    <inkscape:page
       x="0"
       y="0"
       id="page2188"
       width="800"
       height="800" />
  </sodipodi:namedview>
  <g
     id="g2190"
     inkscape:groupmode="layer"
     inkscape:label="Page 1"
     transform="matrix(1.3333333,0,0,-1.3333333,0,800)">
    <g
       id="g2192">
      <g
         id="g2194"
         clip-path="url(#clipPath2198)">
        <g
           id="g2200"
           transform="translate(202.1499,421.0054)">
          <path
             d="M 0,0 C 12.791,49.869 -8.09,142.038 38.371,149.605 69.504,154.676 77.672,73.163 99.219,77.128 76.612,56.069 60.385,97.978 47.672,86.042 25.359,65.091 27.001,28.422 16.667,-0.388 11.111,-0.258 5.556,-0.129 0,0"
             style="fill:#e17019;fill-opacity:1;fill-rule:evenodd;stroke:none"
             id="path2202" />
        </g>
        <g
           id="g2204"
           transform="translate(301.3691,498.1333)">
          <path
             d="m 0,0 c -22.609,-21.059 -38.834,20.851 -51.547,8.915 -1.19,-1.118 -2.308,-2.282 -3.366,-3.485 l -0.004,0.002 c 3.824,8.72 10.235,16.331 16.648,19.014 C -41.901,11.635 -17.409,-12.313 0,0"
             style="fill:#d4581e;fill-opacity:1;fill-rule:evenodd;stroke:none"
             id="path2206" />
        </g>
        <g
           id="g2208"
           transform="translate(243.1265,252.0605)">
          <path
             d="M 0,0 C 10.123,-5.391 18.785,-15.891 21.194,-27.104 24.691,-43.399 31.221,-84.721 16.51,-76.885 -3.32,-66.32 -0.458,-35.027 -5.175,-13.059 -6.158,-8.481 -4.133,2.202 0,0 m -61.045,0 c -10.123,-5.391 -18.785,-15.891 -21.193,-27.104 -3.499,-16.295 -10.027,-57.617 4.682,-49.781 19.831,10.565 16.969,41.858 21.686,63.826 0.982,4.578 -1.042,15.261 -5.175,13.059"
             style="fill:#e17019;fill-opacity:1;fill-rule:evenodd;stroke:none"
             id="path2210" />
        </g>
        <g
           id="g2212"
           transform="translate(315.457,330.1821)">
          <path
             d="m 0,0 c 29.076,16.922 19.673,118.981 73.928,124.693 34.303,3.611 38.115,-57.5 57.171,-86.251 C 101.857,31.213 100.54,46.011 77.378,40.414 57.21,35.539 40.659,7.063 36.717,-13.309 c 10.184,4.766 49.357,11.977 59.389,6.9 42.576,-21.539 13.144,-83.129 19.714,-124.693 -24.232,10.517 -19.396,66.76 -45.342,67.029 C 54.772,-63.91 48.617,-94.503 33.02,-92.658 5.646,-89.418 17.906,-46.331 0,-36.471 Z"
             style="fill:#e17019;fill-opacity:1;fill-rule:evenodd;stroke:none"
             id="path2214" />
        </g>
        <g
           id="g2216"
           transform="translate(446.5557,368.6245)">
          <path
             d="m 0,0 c -29.241,-7.229 -30.559,7.568 -53.721,1.972 -20.168,-4.875 -36.719,-33.351 -40.661,-53.723 -6.869,-1.933 -12.28,-4.679 -16.749,-7.888 9.94,31.462 26.789,70.012 57.911,74.422 C -36.997,17.082 -24.886,-4.437 0,0"
             style="fill:#d4581e;fill-opacity:1;fill-rule:evenodd;stroke:none"
             id="path2218" />
        </g>
        <g
           id="g2220"
           transform="translate(431.2773,199.0801)">
          <path
             d="m 0,0 c -24.232,10.517 -19.396,66.76 -45.342,67.029 -15.706,0.163 -21.861,-30.43 -37.459,-28.585 -27.373,3.24 -15.113,46.327 -33.019,56.187 v 15.223 l 5.912,2.976 c -0.713,-5.762 0.126,-11.006 2.844,-15.984 7.83,-14.352 6.31,-40.864 22.423,-43.619 19.998,-3.42 21.207,28.216 39.612,26.289 C -15.202,76.392 -17.124,13.965 0,0"
             style="fill:#d4581e;fill-opacity:1;fill-rule:evenodd;stroke:none"
             id="path2222" />
        </g>
        <g
           id="g2224"
           transform="translate(238.8989,434.313)">
          <path
             d="m 0,0 c 19.846,-48.084 37.834,-100.547 76.558,-104.131 8.131,-11.42 7.639,-26.779 0,-36.471 -34.524,0.899 -50.843,-26.951 -70.934,-62.152 C 6.251,-132.235 -0.626,-70.518 0,0"
             style="fill:#f2a50f;fill-opacity:1;fill-rule:evenodd;stroke:none"
             id="path2226" />
        </g>
        <g
           id="g2228"
           transform="translate(212.604,463.7212)">
          <path
             d="M 0,0 C 26.589,0 48.143,-86.16 48.143,-155.29 48.144,-224.421 26.589,-250.346 0,-250.346 c -26.589,0 -48.144,25.925 -48.144,95.056 C -48.144,-86.16 -26.589,0 0,0"
             style="fill:#fbca07;fill-opacity:1;fill-rule:evenodd;stroke:none"
             id="path2230" />
        </g>
        <g
           id="g2232"
           transform="translate(212.604,463.7212)">
          <path
             d="m 0,0 c 8.688,0 16.838,-9.201 23.875,-23.999 -0.118,0.191 -0.234,0.383 -0.351,0.571 -1.628,2.63 -4.706,3.802 -7.67,2.92 -2.964,-0.883 -4.902,-3.546 -4.828,-6.638 0.719,-29.793 1.437,-59.586 2.155,-89.378 0.283,-11.773 3.565,-21.807 10.294,-31.475 4.292,-6.166 8.263,-12.752 10.225,-21.968 -11.232,7.707 -22.467,15.411 -33.7,23.119 -11.233,-7.708 -22.468,-15.412 -33.7,-23.119 1.962,9.216 5.932,15.802 10.225,21.968 6.729,9.668 10.01,19.702 10.294,31.475 0.718,29.792 1.435,59.585 2.154,89.378 0.074,3.092 -1.863,5.755 -4.828,6.638 -2.963,0.882 -6.042,-0.29 -7.669,-2.92 -0.117,-0.188 -0.234,-0.38 -0.35,-0.571 C -16.838,-9.201 -8.689,0 0,0"
             style="fill:#f2a50f;fill-opacity:1;fill-rule:evenodd;stroke:none"
             id="path2234" />
        </g>
        <g
           id="g2236"
           transform="translate(212.604,238.9326)">
          <path
             d="m 0,0 c 20.312,0 36.88,17.506 36.88,38.971 0,21.462 -16.568,38.97 -36.88,38.97 -20.313,0 -36.88,-17.508 -36.88,-38.97 C -36.88,17.506 -20.313,0 0,0"
             style="fill:#fdf4b2;fill-opacity:1;fill-rule:evenodd;stroke:none"
             id="path2238" />
        </g>
        <g
           id="g2240"
           transform="translate(212.604,286.3271)">
          <path
             d="M 0,0 C 10.677,0 20.245,-3.268 26.705,-8.424 20.245,-13.583 10.677,-16.85 0,-16.85 c -10.678,0 -20.246,3.267 -26.705,8.426 C -20.246,-3.268 -10.678,0 0,0"
             style="fill:#312b19;fill-opacity:1;fill-rule:evenodd;stroke:none"
             id="path2242" />
        </g>
        <g
           id="g2244"
           transform="translate(236.3218,416.8262)">
          <path
             d="M 0,0 C 11.649,-1.031 22.746,-15.131 25.83,-33.835 28.915,-52.536 22.937,-69.454 12.234,-74.172 8.749,-63.94 5.614,-51.328 3.34,-37.544 1.066,-23.759 -0.016,-10.809 0,0"
             style="fill:#fdf4b2;fill-opacity:1;fill-rule:evenodd;stroke:none"
             id="path2246" />
        </g>
        <g
           id="g2248"
           transform="translate(249.731,404.5454)">
          <path
             d="m 0,0 c 3.893,0.643 8.506,-7.654 10.3,-18.532 1.794,-10.876 0.092,-20.214 -3.803,-20.857 -3.895,-0.644 -8.506,7.655 -10.3,18.533 C -5.597,-9.981 -3.895,-0.642 0,0"
             style="fill:#2f2d2d;fill-opacity:1;fill-rule:evenodd;stroke:none"
             id="path2250" />
        </g>
        <g
           id="g2252"
           transform="translate(254.3179,398.3091)">
          <path
             d="m 0,0 c 1.444,0.238 3.188,-3.052 3.897,-7.349 0.71,-4.298 0.114,-7.974 -1.33,-8.212 -1.444,-0.239 -3.188,3.052 -3.897,7.35 C -2.038,-3.915 -1.443,-0.238 0,0"
             style="fill:#ffffff;fill-opacity:1;fill-rule:evenodd;stroke:none"
             id="path2254" />
        </g>
        <g
           id="g2256"
           transform="translate(188.8853,416.8262)">
          <path
             d="m 0,0 c -11.648,-1.031 -22.745,-15.131 -25.83,-33.835 -3.085,-18.701 2.895,-35.619 13.597,-40.337 3.485,10.232 6.619,22.844 8.894,36.628 C -1.066,-23.759 0.016,-10.809 0,0"
             style="fill:#fdf4b2;fill-opacity:1;fill-rule:evenodd;stroke:none"
             id="path2258" />
        </g>
        <g
           id="g2260"
           transform="translate(175.478,404.5454)">
          <path
             d="m 0,0 c -3.895,0.643 -8.506,-7.654 -10.301,-18.532 -1.794,-10.876 -0.091,-20.214 3.803,-20.857 3.894,-0.644 8.505,7.655 10.3,18.533 C 5.597,-9.981 3.893,-0.642 0,0"
             style="fill:#2f2d2d;fill-opacity:1;fill-rule:evenodd;stroke:none"
             id="path2262" />
        </g>
        <g
           id="g2264"
           transform="translate(170.8892,398.3091)">
          <path
             d="m 0,0 c -1.443,0.238 -3.188,-3.052 -3.897,-7.349 -0.708,-4.298 -0.113,-7.974 1.33,-8.212 1.444,-0.239 3.189,3.052 3.897,7.35 C 2.04,-3.915 1.443,-0.238 0,0"
             style="fill:#ffffff;fill-opacity:1;fill-rule:evenodd;stroke:none"
             id="path2266" />
        </g>
        <g
           id="g2268"
           transform="translate(301.4717,101.4316)">
          <path
             d="M 0,0 C 133.523,0 242.426,14.227 242.426,31.675 242.426,49.12 133.523,63.349 0,63.349 -133.525,63.349 -242.428,49.12 -242.428,31.675 -242.428,14.227 -133.525,0 0,0"
             style="fill:#cdd6f0;fill-opacity:1;fill-rule:evenodd;stroke:none"
             id="path2270" />
        </g>
        <g
           id="g2272"
           transform="translate(123.3794,534.021)">
          <path
             d="m 0,0 c 0,4.132 3.35,7.482 7.483,7.482 4.131,0 7.481,-3.35 7.481,-7.482 0,-10.051 -6.053,-18.695 -12.805,-28.336 -10.058,-14.362 -22.064,-31.506 -8.655,-55.816 12.759,-23.131 1.91,-37.089 -10.654,-53.248 -11.684,-15.03 -25.24,-32.467 -13.934,-64.317 1.729,-4.872 4.755,-10.073 7.755,-15.229 10.631,-18.266 21.016,-36.111 -3.947,-53.986 -6.25,-4.475 -8.191,-11.218 -7.778,-18.514 0.702,-12.382 7.638,-26.346 13.404,-35.671 5.01,-8.104 7.608,-21.188 8.125,-34.173 0.56,-14.085 -1.307,-28.561 -5.182,-36.688 l -2.035,-4.267 h -5.984 c -4.131,0 -7.482,3.349 -7.482,7.482 0,2.503 1.231,4.723 3.121,6.079 2.113,6.491 3.062,16.606 2.655,26.812 -0.425,10.723 -2.324,21.133 -5.903,26.921 -6.69,10.821 -14.751,27.276 -15.624,42.689 -0.687,12.108 2.814,23.498 13.974,31.488 13.924,9.969 6.914,22.016 -0.262,34.347 -3.354,5.762 -6.737,11.577 -8.926,17.742 -14.037,39.548 2.212,60.449 16.215,78.461 9.327,11.996 17.379,22.357 9.368,36.881 -17.874,32.407 -2.96,53.701 9.532,71.541 C -4.755,-12.229 0,-5.44 0,0"
             style="fill:#6fbc3a;fill-opacity:1;fill-rule:evenodd;stroke:none"
             id="path2274" />
        </g>
        <g
           id="g2276"
           transform="translate(122.4722,419.2041)">
          <path
             d="m 0,0 c 0,4.131 3.351,7.482 7.482,7.482 4.133,0 7.483,-3.351 7.483,-7.482 0,-15.12 -5.972,-25.961 -11.91,-36.74 -8.924,-16.199 -17.759,-32.24 3.797,-65.708 12.538,-19.465 2.481,-36.816 -7.681,-54.344 -8.506,-14.674 -17.108,-29.513 -6.133,-43.305 19.145,-24.056 18.781,-40.306 18.267,-63.27 -0.069,-3.056 -0.14,-6.281 -0.14,-11.568 v -0.633 c 0,-4.131 -3.352,-7.482 -7.483,-7.482 -4.132,0 -7.482,3.351 -7.482,7.482 v 0.633 c 0,2.988 0.102,7.529 0.198,11.861 0.445,19.804 0.758,33.817 -15.051,53.681 -17.313,21.756 -6.141,41.029 4.906,60.084 7.86,13.559 15.64,26.982 8.032,38.796 -26.369,40.941 -15.402,60.853 -4.325,80.962 C -5.034,-20.464 0,-11.326 0,0"
             style="fill:#87d04a;fill-opacity:1;fill-rule:evenodd;stroke:none"
             id="path2278" />
        </g>
        <g
           id="g2280"
           transform="translate(445.2217,277.8555)">
          <path
             d="m 0,0 c -0.128,4.116 3.104,7.558 7.22,7.685 4.115,0.13 7.557,-3.101 7.687,-7.216 0.524,-15.631 -2.625,-27.594 -5.539,-38.674 -4.155,-15.787 -7.765,-29.513 3.779,-49.695 17.356,-30.345 2.499,-50.521 -1.777,-56.326 l -0.431,-0.587 c -2.435,-3.325 -7.108,-4.044 -10.432,-1.609 -3.326,2.438 -4.046,7.11 -1.609,10.435 l 0.429,0.588 c 2.988,4.058 13.376,18.163 0.842,40.075 -14.569,25.47 -10.23,41.959 -5.24,60.92 C -2.417,-24.314 0.451,-13.42 0,0"
             style="fill:#87d04a;fill-opacity:1;fill-rule:evenodd;stroke:none"
             id="path2282" />
        </g>
        <g
           id="g2284"
           transform="translate(522.1348,279.0625)">
          <path
             d="m 0,0 c 4.036,0.822 7.975,-1.782 8.798,-5.818 0.806,-3.952 -1.675,-7.811 -5.569,-8.741 -0.543,-0.14 -4.554,-8.9 -9.336,-22.013 -5.255,-14.408 -9.28,-33 -6.239,-50.241 0.254,-1.434 0.525,-2.748 0.813,-3.925 0.633,-2.578 1.794,-5.855 3.029,-9.342 4.807,-13.577 10.565,-29.835 0.271,-42.405 -2.616,-3.197 -7.326,-3.667 -10.522,-1.054 -3.196,2.614 -3.666,7.326 -1.054,10.522 4.972,6.07 0.745,18.003 -2.783,27.967 -1.343,3.795 -2.605,7.356 -3.435,10.746 -0.432,1.751 -0.781,3.39 -1.05,4.918 -3.568,20.226 0.973,41.531 6.94,57.899 6.443,17.662 16.323,30.563 19.801,31.419 z"
             style="fill:#87d04a;fill-opacity:1;fill-rule:evenodd;stroke:none"
             id="path2286" />
        </g>
        <g
           id="g2288"
           transform="translate(471.6455,430.3135)">
          <path
             d="m 0,0 c 1.937,3.632 6.45,5.006 10.082,3.07 3.634,-1.937 5.007,-6.452 3.07,-10.083 -8.017,-14.979 -2.311,-26.828 7.298,-46.786 5.265,-10.929 11.57,-24.024 17.551,-40.979 6.465,-18.332 -6.539,-37.983 -20.918,-59.711 -16.363,-24.725 -34.784,-52.56 -22.318,-78.546 1.425,-2.974 2.796,-5.717 4.099,-8.325 9.58,-19.172 15.93,-31.879 9.367,-58.006 -1,-4.001 -5.057,-6.437 -9.06,-5.436 -4.002,1 -6.436,5.056 -5.436,9.061 5.235,20.836 -0.119,31.551 -8.199,47.718 -1.352,2.708 -2.777,5.555 -4.217,8.558 -16.126,33.623 4.76,65.184 23.315,93.218 12.223,18.471 23.275,35.172 19.279,46.499 C 18.172,-83.475 12.087,-70.836 7.008,-60.287 -4.664,-36.049 -11.591,-21.66 0,0"
             style="fill:#6fbc3a;fill-opacity:1;fill-rule:evenodd;stroke:none"
             id="path2290" />
        </g>
        <g
           id="g2292"
           transform="translate(285.1978,460.0552)">
          <path
             d="m 0,0 c 11.722,0 21.223,-9.501 21.223,-21.223 0,-11.72 -9.501,-21.221 -21.223,-21.221 -11.719,0 -21.22,9.501 -21.22,21.221 C -21.22,-9.501 -11.719,0 0,0 m 53.531,37.376 c 14.344,0 25.972,-11.629 25.972,-25.974 0,-14.344 -11.628,-25.972 -25.972,-25.972 -14.345,0 -25.973,11.628 -25.973,25.972 0,14.345 11.628,25.974 25.973,25.974 m -27.239,86.788 c 17.841,0 32.307,-14.465 32.307,-32.309 0,-17.842 -14.466,-32.307 -32.307,-32.307 -17.846,0 -32.31,14.465 -32.31,32.307 0,17.844 14.464,32.309 32.31,32.309 M 7.604,-69.05 c 4.373,0 7.917,-3.546 7.917,-7.919 0,-4.373 -3.544,-7.918 -7.917,-7.918 -4.375,0 -7.919,3.545 -7.919,7.918 0,4.373 3.544,7.919 7.919,7.919"
             style="fill:#cdd6f0;fill-opacity:1;fill-rule:evenodd;stroke:none"
             id="path2294" />
        </g>
      </g>
    </g>
  </g>
</svg>
