<?xml version="1.0" encoding="UTF-8" standalone="no"?>
<!-- Created with Inkscape (http://www.inkscape.org/) -->

<svg
   version="1.1"
   id="svg6379"
   width="800"
   height="800"
   viewBox="0 0 800 800"
   sodipodi:docname="ninja-fighter-publicdomainvectors.org.svg"
   inkscape:version="1.2 (dc2aedaf03, 2022-05-15)"
   xmlns:inkscape="http://www.inkscape.org/namespaces/inkscape"
   xmlns:sodipodi="http://sodipodi.sourceforge.net/DTD/sodipodi-0.dtd"
   xmlns="http://www.w3.org/2000/svg"
   xmlns:svg="http://www.w3.org/2000/svg">
  <defs
     id="defs6383">
    <clipPath
       clipPathUnits="userSpaceOnUse"
       id="clipPath6395">
      <path
         d="M 0,600 H 600 V 0 H 0 Z"
         id="path6393" />
    </clipPath>
  </defs>
  <sodipodi:namedview
     id="namedview6381"
     pagecolor="#ffffff"
     bordercolor="#000000"
     borderopacity="0.25"
     inkscape:showpageshadow="2"
     inkscape:pageopacity="0.0"
     inkscape:pagecheckerboard="0"
     inkscape:deskcolor="#d1d1d1"
     showgrid="false"
     inkscape:zoom="1.04625"
     inkscape:cx="400"
     inkscape:cy="400.4779"
     inkscape:window-width="1920"
     inkscape:window-height="1017"
     inkscape:window-x="-8"
     inkscape:window-y="-8"
     inkscape:window-maximized="1"
     inkscape:current-layer="g6387">
    <inkscape:page
       x="0"
       y="0"
       id="page6385"
       width="800"
       height="800" />
  </sodipodi:namedview>
  <g
     id="g6387"
     inkscape:groupmode="layer"
     inkscape:label="Page 1"
     transform="matrix(1.3333333,0,0,-1.3333333,0,800)">
    <g
       id="g6389">
      <g
         id="g6391"
         clip-path="url(#clipPath6395)">
        <g
           id="g6397"
           transform="translate(311.5557,3.4365)">
          <path
             d="M 0,0 C 117.362,0 213.083,15.067 213.083,33.544 213.083,52.02 117.362,67.087 0,67.087 -117.361,67.087 -213.082,52.02 -213.082,33.544 -213.082,15.067 -117.361,0 0,0"
             style="fill:#ebcfb3;fill-opacity:1;fill-rule:evenodd;stroke:none"
             id="path6399" />
        </g>
        <g
           id="g6401"
           transform="translate(264.3013,305.8242)">
          <path
             d="M 0,0 H 94.48 L 79.617,-88.107 H 14.863 Z"
             style="fill:#6699ff;fill-opacity:1;fill-rule:evenodd;stroke:none"
             id="path6403" />
        </g>
        <g
           id="g6405"
           transform="translate(299.522,361.9419)">
          <path
             d="M 0,0 C 0.603,-17.576 -12.048,-29.354 -32.377,-37.773 H 55.434 C 41.902,-31.165 32.174,-18.217 26.491,1.471 17.661,0.981 8.83,0.491 0,0"
             style="fill:#4d4d4d;fill-opacity:1;fill-rule:evenodd;stroke:none"
             id="path6407" />
        </g>
        <g
           id="g6409"
           transform="translate(310.0547,467.5811)">
          <path
             d="m 0,0 c 17.369,0 48.326,-40.191 48.326,-66.88 0,-26.691 -21.637,-48.328 -48.326,-48.328 -26.688,0 -48.327,21.637 -48.327,48.328 C -48.327,-40.191 -17.369,0 0,0"
             style="fill:#1a1a1a;fill-opacity:1;fill-rule:evenodd;stroke:none"
             id="path6411" />
        </g>
        <g
           id="g6413"
           transform="translate(281.1118,420.4434)">
          <path
             d="m 0,0 c 21.219,-6.188 40.591,-5.584 57.886,0 3.592,-5.198 4.938,-11.38 3.129,-18.942 -1.273,-5.325 -5.411,-9.142 -10.822,-9.982 -14.162,-2.201 -28.324,-1.84 -42.486,0.189 -6.136,0.88 -10.724,5.711 -11.285,11.884 C -4.049,-11.678 -2.889,-6.071 0,0"
             style="fill:#ffcc99;fill-opacity:1;fill-rule:evenodd;stroke:none"
             id="path6415" />
        </g>
        <g
           id="g6417"
           transform="translate(281.1118,420.4434)">
          <path
             d="M 0,0 C 21.219,-6.188 40.591,-5.584 57.886,0 38.755,-10.25 19.457,-10.025 0,0"
             style="fill:#f0b982;fill-opacity:1;fill-rule:evenodd;stroke:none"
             id="path6419" />
        </g>
        <g
           id="g6421"
           transform="translate(281.0347,409.6494)">
          <path
             d="M 0,0 C 6.135,-16.867 14.267,-17.451 23.668,-7.665 15.78,-5.11 7.889,-2.555 0,0"
             style="fill:#ffffff;fill-opacity:1;fill-rule:evenodd;stroke:none"
             id="path6423" />
        </g>
        <g
           id="g6425"
           transform="translate(296.5854,404.6138)">
          <path
             d="M 0,0 C -0.098,-3.337 -0.758,-5.649 -1.754,-7.35 -3.375,-5.079 -3.731,-2.049 -3.716,1.203 -2.478,0.803 -1.238,0.402 0,0"
             style="fill:#000000;fill-opacity:1;fill-rule:evenodd;stroke:none"
             id="path6427" />
        </g>
        <g
           id="g6429"
           transform="translate(339.0752,409.6494)">
          <path
             d="M 0,0 C -6.134,-16.867 -14.266,-17.451 -23.67,-7.665 -15.78,-5.11 -7.89,-2.555 0,0"
             style="fill:#ffffff;fill-opacity:1;fill-rule:evenodd;stroke:none"
             id="path6431" />
        </g>
        <g
           id="g6433"
           transform="translate(323.5244,404.6138)">
          <path
             d="m 0,0 c 0.097,-3.337 0.757,-5.649 1.754,-7.35 1.62,2.271 1.978,5.301 1.963,8.553 C 2.478,0.803 1.237,0.402 0,0"
             style="fill:#000000;fill-opacity:1;fill-rule:evenodd;stroke:none"
             id="path6435" />
        </g>
        <g
           id="g6437"
           transform="translate(324.1055,226.2842)">
          <path
             d="m 0,0 53.858,100.776 c 2.227,4.166 2.264,8.972 0.103,13.178 -2.16,4.205 -5.908,6.62 -10.273,6.62 H -70.808 c -4.365,0 -8.112,-2.415 -10.275,-6.62 -2.159,-4.206 -2.123,-9.012 0.104,-13.178 L -27.119,0 c 2.918,-5.46 7.835,-8.567 13.558,-8.567 C -7.836,-8.567 -2.92,-5.46 0,0"
             style="fill:#1a1a1a;fill-opacity:1;fill-rule:evenodd;stroke:none"
             id="path6439" />
        </g>
        <g
           id="g6441"
           transform="translate(244.8989,335.1455)">
          <path
             d="m 0,0 c 5.924,2.35 12.633,-0.548 14.982,-6.474 2.35,-5.924 -0.547,-12.632 -6.472,-14.982 -21.337,-8.494 -39.63,-9.255 -53.501,-4.241 -10.129,3.66 -17.874,10.246 -22.843,19.122 -4.74,8.466 -6.805,18.809 -5.822,30.419 1.839,21.695 14.592,48.69 41.028,76.181 4.425,4.601 11.741,4.743 16.342,0.319 4.599,-4.425 4.741,-11.742 0.315,-16.343 -22.434,-23.331 -33.169,-45.18 -34.6,-62.059 -0.588,-6.944 0.454,-12.785 2.926,-17.201 2.243,-4.005 5.814,-7.006 10.529,-8.711 C -28.326,-7.146 -15.732,-6.263 0,0"
             style="fill:#568cf7;fill-opacity:1;fill-rule:evenodd;stroke:none"
             id="path6443" />
        </g>
        <g
           id="g6445"
           transform="translate(192.9302,385.2729)">
          <path
             d="m 0,0 c -2.287,-2.225 -5.946,-2.174 -8.172,0.113 -2.224,2.289 -2.174,5.946 0.113,8.17 l 60.549,59.081 7.97,-8.368 z"
             style="fill:#000000;fill-opacity:1;fill-rule:evenodd;stroke:none"
             id="path6447" />
        </g>
        <g
           id="g6449"
           transform="translate(245.4204,452.6372)">
          <path
             d="M 0,0 C 17.347,16.927 116.215,127.892 179.545,140.635 116.337,108.002 53.389,39.828 7.97,-8.368 5.312,-5.578 2.656,-2.789 0,0"
             style="fill:#e6e6e6;fill-opacity:1;fill-rule:evenodd;stroke:none"
             id="path6451" />
        </g>
        <g
           id="g6453"
           transform="translate(208.3057,392.626)">
          <path
             d="m 0,0 c 8.916,0 16.188,7.272 16.188,16.189 0,8.917 -7.272,16.189 -16.188,16.189 -8.917,0 -16.188,-7.272 -16.188,-16.189 C -16.188,7.272 -8.917,0 0,0"
             style="fill:#ffcc99;fill-opacity:1;fill-rule:evenodd;stroke:none"
             id="path6455" />
        </g>
        <path
           d="m 238.613,437.661 h 21.585 v 21.584 h -21.585 z"
           style="fill:#000000;fill-opacity:1;fill-rule:evenodd;stroke:none"
           id="path6457" />
        <g
           id="g6459"
           transform="translate(368.7334,342.0903)">
          <path
             d="m 0,0 c 5.476,3.3 12.588,1.537 15.89,-3.937 3.299,-5.477 1.536,-12.589 -3.939,-15.889 -2.957,-1.783 -6.041,-3.449 -9.242,-5.004 -29.472,-14.307 -60.278,-13.545 -88.598,-1.049 -27.449,12.112 -52.389,35.322 -71.129,66.434 -3.294,5.466 -6.444,11.286 -9.434,17.442 -2.775,5.751 -0.364,12.662 5.387,15.436 5.751,2.776 12.661,0.364 15.435,-5.386 2.576,-5.303 5.396,-10.491 8.438,-15.542 16.281,-27.028 37.536,-47.01 60.628,-57.198 22.215,-9.804 46.294,-10.444 69.223,0.688 C -4.985,-2.862 -2.537,-1.528 0,0"
             style="fill:#6699ff;fill-opacity:1;fill-rule:evenodd;stroke:none"
             id="path6461" />
        </g>
        <g
           id="g6463"
           transform="translate(231.3911,414.1226)">
          <path
             d="m 0,0 c 8.918,0 16.188,7.272 16.188,16.188 0,8.917 -7.27,16.189 -16.188,16.189 -8.916,0 -16.189,-7.272 -16.189,-16.189 C -16.189,7.272 -8.916,0 0,0"
             style="fill:#ffcc99;fill-opacity:1;fill-rule:evenodd;stroke:none"
             id="path6465" />
        </g>
        <g
           id="g6467"
           transform="translate(255.4536,218.6631)">
          <path
             d="m 0,0 c 30.028,13.854 54.371,8.46 54.371,-12.05 0,-20.51 -24.343,-48.368 -54.371,-62.221 -6.741,-3.111 -13.194,-5.248 -19.151,-6.465 l -13.143,-77.257 2.454,-18.887 h -53.416 l 39.68,21.093 -10.18,88.267 c -0.402,1.635 -0.612,3.401 -0.612,5.297 0,20.51 24.341,48.368 54.368,62.223"
             style="fill:#000000;fill-opacity:1;fill-rule:evenodd;stroke:none"
             id="path6469" />
        </g>
        <g
           id="g6471"
           transform="translate(364.1934,218.6631)">
          <path
             d="m 0,0 c -30.028,13.854 -54.369,8.46 -54.369,-12.05 0,-20.51 24.341,-48.368 54.369,-62.221 6.741,-3.111 13.194,-5.248 19.152,-6.465 l 13.14,-77.257 -2.452,-18.887 h 53.417 l -39.681,21.093 10.182,88.267 c 0.402,1.635 0.61,3.401 0.61,5.297 C 54.368,-41.713 30.027,-13.855 0,0"
             style="fill:#000000;fill-opacity:1;fill-rule:evenodd;stroke:none"
             id="path6473" />
        </g>
        <path
           d="m 283.123,171.328 h 48.9 v 54.939 h -48.9 z"
           style="fill:#000000;fill-opacity:1;fill-rule:evenodd;stroke:none"
           id="path6475" />
      </g>
    </g>
  </g>
</svg>
