<?xml version="1.0" encoding="UTF-8" standalone="no"?>
<!-- Created with Inkscape (http://www.inkscape.org/) -->

<svg
   version="1.1"
   id="svg14011"
   width="800"
   height="800"
   viewBox="0 0 800 800"
   sodipodi:docname="yoga-pose-44-publicdomainvectors.org.svg"
   inkscape:version="1.2 (dc2aedaf03, 2022-05-15)"
   xmlns:inkscape="http://www.inkscape.org/namespaces/inkscape"
   xmlns:sodipodi="http://sodipodi.sourceforge.net/DTD/sodipodi-0.dtd"
   xmlns="http://www.w3.org/2000/svg"
   xmlns:svg="http://www.w3.org/2000/svg">
  <defs
     id="defs14015">
    <clipPath
       clipPathUnits="userSpaceOnUse"
       id="clipPath14027">
      <path
         d="M 0,600 H 600 V 0 H 0 Z"
         id="path14025" />
    </clipPath>
  </defs>
  <sodipodi:namedview
     id="namedview14013"
     pagecolor="#ffffff"
     bordercolor="#000000"
     borderopacity="0.25"
     inkscape:showpageshadow="2"
     inkscape:pageopacity="0.0"
     inkscape:pagecheckerboard="0"
     inkscape:deskcolor="#d1d1d1"
     showgrid="false"
     inkscape:zoom="1.04625"
     inkscape:cx="400"
     inkscape:cy="400.4779"
     inkscape:window-width="1920"
     inkscape:window-height="1017"
     inkscape:window-x="-8"
     inkscape:window-y="-8"
     inkscape:window-maximized="1"
     inkscape:current-layer="g14019">
    <inkscape:page
       x="0"
       y="0"
       id="page14017"
       width="800"
       height="800" />
  </sodipodi:namedview>
  <g
     id="g14019"
     inkscape:groupmode="layer"
     inkscape:label="Page 1"
     transform="matrix(1.3333333,0,0,-1.3333333,0,800)">
    <g
       id="g14021">
      <g
         id="g14023"
         clip-path="url(#clipPath14027)">
        <g
           id="g14029"
           transform="translate(306.8857,551.9092)">
          <path
             d="m 0,0 c -0.127,0.814 -0.279,1.604 -0.306,2.441 0,0.84 -0.355,1.602 -0.406,2.442 -0.203,0.916 -0.076,1.855 -0.101,2.797 0,1.016 -0.026,2.034 -0.204,3.051 -0.026,0.255 -0.203,0.458 -0.356,0.636 C -2.186,11.239 -2.771,11.926 -3.56,11.9 -4.475,11.977 -5.34,11.545 -6.001,10.961 -6.637,10.4 -7.247,9.765 -7.781,9.079 -7.857,8.926 -8.035,8.977 -8.188,8.951 c -0.254,0.84 -0.762,1.551 -1.271,2.238 -0.636,0.813 -1.398,1.602 -2.416,1.856 -0.737,0.128 -1.576,0.128 -2.212,-0.331 -0.331,-0.228 -0.915,-0.151 -1.094,-0.584 -0.305,-0.839 -0.228,-1.755 -0.356,-2.619 -0.076,-0.611 -0.05,-1.22 -0.05,-1.831 0.05,-0.788 -0.738,-1.169 -1.17,-1.704 -0.204,-0.077 -0.508,-0.127 -0.61,-0.381 -0.179,-1.678 0.305,-3.306 0.228,-4.984 0.026,-0.713 -0.177,-1.399 -0.076,-2.086 0.127,-0.737 0.203,-1.449 0.254,-2.186 0.204,-1.196 -0.33,-2.34 -0.482,-3.509 -0.053,-0.492 -0.19,-0.96 -0.261,-1.437 L 0.044,-0.644 C 0.038,-0.428 0.028,-0.213 0,0"
             style="fill:#c8c69a;fill-opacity:1;fill-rule:nonzero;stroke:none"
             id="path14031" />
        </g>
        <g
           id="g14033"
           transform="translate(328.2158,471.8193)">
          <path
             d="m 0,0 c -0.074,0.1 -0.146,0.201 -0.225,0.297 -1.322,1.882 -2.467,3.89 -3.38,5.975 -0.486,1.322 -1.094,2.62 -1.551,3.941 -0.511,1.17 -0.917,2.365 -1.322,3.56 -0.867,2.39 -1.527,4.857 -2.367,7.247 -0.177,0.509 -0.279,1.042 -0.431,1.551 -0.202,0.712 -0.534,1.424 -0.611,2.187 -0.076,0.535 -0.383,0.992 -0.484,1.525 -0.178,0.916 -0.329,1.858 -0.634,2.747 -0.205,0.637 -0.281,1.297 -0.434,1.933 -0.432,1.246 -0.99,2.467 -1.423,3.713 -0.865,2.467 -1.984,4.831 -2.568,7.374 -0.255,0.839 -0.332,1.729 -0.561,2.543 -0.152,0.661 -0.102,1.346 -0.356,1.983 -0.282,0.867 -0.147,1.759 -0.116,2.642 l -24.793,9.687 c -0.102,-0.484 0.159,-0.989 -0.011,-1.471 -0.278,-1.094 -0.303,-2.239 -0.634,-3.331 -0.33,-1.145 -0.407,-2.339 -0.611,-3.509 0.077,-1.475 -0.356,-2.874 -0.635,-4.298 -0.363,-1.35 -0.803,-2.688 -1.32,-4.003 l 23.944,-49.768 z"
             style="fill:#dee2a2;fill-opacity:1;fill-rule:nonzero;stroke:none"
             id="path14035" />
        </g>
        <g
           id="g14037"
           transform="translate(311.6924,522.1836)">
          <path
             d="m 0,0 c -0.127,0.916 -0.381,1.78 -0.637,2.645 -0.177,0.559 -0.227,1.17 -0.407,1.729 -0.178,0.482 -0.33,0.967 -0.305,1.449 0.026,0.458 -0.303,0.89 -0.203,1.348 0.127,0.686 -0.024,1.373 -0.076,2.06 -0.1,1.093 -0.38,2.136 -0.636,3.179 -0.23,0.763 -0.332,1.551 -0.61,2.314 -0.279,0.813 -0.305,1.652 -0.483,2.466 -0.126,0.534 -0.077,1.118 -0.153,1.653 -0.024,0.28 -0.024,0.533 0.051,0.763 0.306,0.813 0.052,1.677 -0.051,2.492 -0.152,0.762 -0.228,1.55 -0.254,2.313 -0.05,0.864 -0.28,1.678 -0.636,2.468 -0.396,0.674 -0.345,1.44 -0.363,2.203 l -17.748,-7.964 c -0.032,-0.213 -0.052,-0.428 -0.045,-0.648 0,-0.407 0,-0.814 -0.076,-1.22 -0.227,-1.425 -0.356,-2.874 -0.763,-4.271 -0.254,-0.687 -0.305,-1.425 -0.558,-2.112 -0.179,-0.457 -0.306,-0.941 -0.407,-1.424 -0.077,-0.483 -0.383,-0.94 -0.33,-1.45 0.024,-0.457 0.076,-0.914 -0.027,-1.373 -0.009,-0.026 -0.011,-0.053 -0.015,-0.079 L 0.061,-1.146 C 0.074,-0.762 0.068,-0.378 0,0"
             style="fill:#c7dfad;fill-opacity:1;fill-rule:nonzero;stroke:none"
             id="path14039" />
        </g>
        <g
           id="g14041"
           transform="translate(297.4268,464.0049)">
          <path
             d="m 0,0 0.152,-0.051 c 0.141,-0.256 0.293,-0.508 0.453,-0.755 l 9.661,1.146 -23.944,49.767 c -0.388,-0.988 -0.819,-1.962 -1.3,-2.913 -0.203,-0.432 -0.406,-0.916 -0.558,-1.398 -0.204,-0.737 -0.688,-1.374 -0.891,-2.137 -0.432,-1.067 -0.84,-2.186 -1.119,-3.331 -0.229,-1.195 -0.609,-2.364 -0.991,-3.509 -0.636,-2.618 -1.273,-5.212 -2.086,-7.756 -0.661,-1.931 -1.296,-3.89 -1.932,-5.874 -0.482,-1.143 -0.687,-2.364 -1.093,-3.533 -0.178,-0.484 -0.306,-0.967 -0.457,-1.45 -1.018,-2.186 -1.527,-4.628 -2.824,-6.713 -0.788,-0.967 -1.601,-1.908 -2.237,-2.975 -0.737,-0.941 -1.322,-1.983 -2.06,-2.951 -0.585,-0.76 -1.093,-1.576 -1.602,-2.389 -0.635,-0.788 -1.449,-1.45 -2.289,-1.985 -0.914,-0.76 -1.932,-1.373 -2.949,-1.931 -0.584,-0.456 -1.272,-0.763 -1.882,-1.17 -0.839,-0.584 -1.755,-1.068 -2.619,-1.627 -0.636,-0.305 -1.22,-0.635 -1.78,-1.07 -0.635,-0.532 -1.551,-0.633 -2.11,-1.27 -0.28,-0.357 -0.763,-0.407 -1.145,-0.585 -0.04,-0.023 -0.079,-0.049 -0.117,-0.077 l 47.153,5.592 C -0.402,-0.612 -0.272,-0.256 0,0"
             style="fill:#e8b472;fill-opacity:1;fill-rule:nonzero;stroke:none"
             id="path14043" />
        </g>
        <g
           id="g14045"
           transform="translate(364.1719,427.1025)">
          <path
             d="m 0,0 5.683,17.931 c -0.343,0.174 -0.686,0.352 -1.026,0.535 -0.812,0.405 -1.629,0.737 -2.389,1.145 -1.019,0.583 -2.111,1.017 -3.102,1.602 -1.857,0.966 -3.74,1.906 -5.596,2.849 -0.839,0.303 -1.601,0.76 -2.417,1.117 -1.117,0.433 -2.133,1.067 -3.228,1.525 -2.159,0.89 -4.197,2.035 -6.23,3.206 -0.788,0.583 -1.728,0.913 -2.544,1.475 -1.117,0.811 -2.362,1.398 -3.508,2.184 -0.584,0.409 -1.246,0.69 -1.829,1.07 -1.424,0.864 -2.848,1.779 -4.146,2.823 -0.712,0.608 -1.5,1.169 -2.034,1.981 -0.839,1.044 -1.45,2.215 -2.213,3.28 -0.483,0.662 -0.897,1.357 -1.377,1.994 L -56.48,37.242 Z"
             style="fill:#e6f0b6;fill-opacity:1;fill-rule:nonzero;stroke:none"
             id="path14047" />
        </g>
        <g
           id="g14049"
           transform="translate(300.0713,460.5459)">
          <path
             d="m 0,0 c 0.991,-0.764 1.806,-1.754 2.797,-2.518 0.683,-0.553 1.3,-1.188 1.917,-1.815 L 7.621,3.799 -2.039,2.653 C -1.564,1.917 -1.021,1.212 -0.509,0.509 -0.509,0.177 -0.33,-0.025 0,0"
             style="fill:#f3bb73;fill-opacity:1;fill-rule:nonzero;stroke:none"
             id="path14051" />
        </g>
        <g
           id="g14053"
           transform="translate(269.0234,439.4404)">
          <path
             d="m 0,0 c 0.967,0.738 1.958,1.45 2.924,2.213 1.704,1.396 3.484,2.693 5.289,3.966 0.737,0.61 1.525,1.145 2.263,1.728 0.941,0.638 1.73,1.45 2.593,2.19 1.857,1.55 3.867,2.949 5.468,4.804 0.432,0.355 0.636,1.146 1.322,0.994 0.484,0.329 1.042,0.557 1.476,0.963 0.559,0.408 1.041,0.892 1.602,1.297 0.33,0.28 0.686,0.56 0.888,0.943 0.18,0.33 0.485,0.506 0.662,0.811 0.153,0.281 0.457,0.433 0.712,0.638 0.127,0.152 0.204,0.355 0.28,0.533 0.839,0.585 1.526,1.348 2.135,2.161 0.087,0.117 0.157,0.246 0.223,0.378 l -47.152,-5.592 c -0.256,-0.183 -0.49,-0.449 -0.799,-0.582 -0.712,-0.332 -1.399,-0.713 -2.084,-1.094 -0.942,-0.406 -1.755,-1.019 -2.671,-1.475 -0.941,-0.661 -2.06,-1.095 -3.026,-1.729 -0.585,-0.407 -1.271,-0.612 -1.806,-1.094 -0.156,-0.14 -0.327,-0.255 -0.503,-0.36 L -2.702,-2.221 C -1.824,-1.456 -0.931,-0.707 0,0"
             style="fill:#f3bb73;fill-opacity:1;fill-rule:nonzero;stroke:none"
             id="path14055" />
        </g>
        <g
           id="g14057"
           transform="translate(295.1807,429.3545)">
          <path
             d="m 0,0 c -0.455,0.022 -0.916,0.007 -1.365,0.168 -0.941,0.357 -1.932,0.588 -2.924,0.612 -0.712,0.026 -1.373,0.28 -2.085,0.28 -0.56,0.076 -1.119,-0.102 -1.653,-0.127 0,-0.177 0,-0.332 0.025,-0.484 C -8.256,0.398 -8.51,0.346 -8.739,0.244 -9.272,0.016 -9.858,-0.01 -10.392,-0.137 c -0.077,-0.127 -0.153,-0.278 -0.229,-0.405 -0.254,-0.127 -0.508,-0.228 -0.687,-0.433 -0.008,-0.009 -0.018,-0.017 -0.027,-0.027 l 9.296,-4.702 z"
             style="fill:#f3bb73;fill-opacity:1;fill-rule:nonzero;stroke:none"
             id="path14059" />
        </g>
        <g
           id="g14061"
           transform="translate(384.9541,436.917)">
          <path
             d="m 0,0 c -0.392,0.232 -0.836,0.399 -1.249,0.618 -1.017,0.685 -2.136,1.219 -3.18,1.855 -1.45,0.915 -3.001,1.677 -4.501,2.516 -0.735,0.485 -1.576,0.738 -2.311,1.222 -1.284,0.641 -2.581,1.253 -3.859,1.905 l -5.682,-17.93 z"
             style="fill:#d5f3d7;fill-opacity:1;fill-rule:nonzero;stroke:none"
             id="path14063" />
        </g>
        <g
           id="g14065"
           transform="translate(241.2656,415.8408)">
          <path
             d="m 0,0 -41.407,12.768 c -1.041,-0.715 -2.02,-1.525 -3.076,-2.239 -0.739,-0.533 -1.527,-0.991 -2.213,-1.601 -0.533,-0.432 -1.018,-0.941 -1.627,-1.273 -0.433,-0.254 -0.763,-0.684 -1.195,-0.965 -2.492,-2.009 -4.959,-4.068 -7.452,-6.103 -0.762,-0.61 -1.5,-1.297 -2.313,-1.857 -0.839,-0.71 -1.627,-1.424 -2.441,-2.16 -0.686,-0.764 -1.551,-1.373 -2.262,-2.113 -1.066,-1.043 -2.069,-2.118 -3.17,-3.1 l 66.535,8.108 C -0.414,-0.356 -0.207,-0.179 0,0"
             style="fill:#ef4d1f;fill-opacity:1;fill-rule:nonzero;stroke:none"
             id="path14067" />
        </g>
        <g
           id="g14069"
           transform="translate(242.043,416.5117)">
          <path
             d="m 0,0 -9.059,31.029 c -1.246,-0.767 -2.509,-1.513 -3.755,-2.276 -0.433,-0.152 -0.84,-0.357 -1.221,-0.662 -0.458,-0.331 -0.992,-0.56 -1.526,-0.788 -2.06,-1.246 -4.297,-2.161 -6.382,-3.33 -0.179,-0.129 -0.33,-0.23 -0.484,-0.359 -0.534,0 -0.839,-0.457 -1.271,-0.66 -0.611,-0.304 -1.195,-0.661 -1.806,-0.917 -1.017,-0.608 -2.058,-1.117 -3.051,-1.703 -1.17,-0.583 -2.262,-1.322 -3.458,-1.88 -0.356,-0.178 -0.686,-0.431 -0.992,-0.662 -0.941,-0.407 -1.806,-0.939 -2.644,-1.449 -1.526,-0.89 -3,-1.883 -4.45,-2.873 -0.535,-0.459 -1.195,-0.738 -1.755,-1.144 -0.112,-0.073 -0.22,-0.153 -0.331,-0.229 L -0.777,-0.671 C -0.519,-0.447 -0.26,-0.223 0,0"
             style="fill:#f4683e;fill-opacity:1;fill-rule:nonzero;stroke:none"
             id="path14071" />
        </g>
        <g
           id="g14073"
           transform="translate(283.8457,428.3525)">
          <path
             d="m 0,0 c -0.353,-0.365 -0.822,-0.591 -1.269,-0.863 -0.432,-0.126 -0.89,-0.102 -1.297,-0.253 -1.017,-0.358 -2.162,-0.152 -3.102,-0.69 -0.025,-0.075 -0.051,-0.176 -0.076,-0.227 0.101,-0.026 0.305,-0.026 0.381,-0.051 0.026,-0.076 0.026,-0.178 0.026,-0.279 -0.229,-0.051 -0.459,-0.153 -0.687,-0.253 -0.051,-0.027 -0.178,-0.051 -0.254,-0.051 -0.026,-0.076 -0.051,-0.205 -0.051,-0.256 0.61,0.256 1.245,0.433 1.931,0.407 0.077,-0.127 0.23,-0.252 0.281,-0.407 -0.026,-0.256 -0.33,-0.357 -0.533,-0.332 -0.637,0.025 -1.222,-0.203 -1.831,-0.304 0.253,-0.076 0.482,-0.177 0.711,-0.304 h 0.711 C -5.007,-4.348 -5.643,-4.499 -5.617,-5.009 -5.643,-5.085 -5.719,-5.211 -5.744,-5.287 -6.125,-5.49 -6.609,-5.49 -6.913,-5.822 -7.118,-6.025 -7.448,-6.051 -7.728,-6.078 -7.88,-6.23 -7.956,-6.433 -8.186,-6.483 c -0.915,-0.204 -1.856,-0.356 -2.795,-0.507 -0.739,-0.281 -1.579,-0.408 -2.213,-0.893 -0.263,-0.206 -0.541,-0.397 -0.831,-0.555 l 23.321,3.736 z"
             style="fill:#f7a559;fill-opacity:1;fill-rule:nonzero;stroke:none"
             id="path14075" />
        </g>
        <g
           id="g14077"
           transform="translate(245.0195,418.9951)">
          <path
             d="m 0,0 c 2.009,1.576 3.864,3.333 5.874,4.96 1.525,1.27 3.051,2.542 4.603,3.813 1.652,1.323 3.255,2.748 4.856,4.146 1.018,1.017 2.11,1.957 3.229,2.874 0.912,0.808 1.817,1.628 2.74,2.432 L -6.2,32.139 c -0.366,-0.22 -0.755,-0.393 -1.099,-0.634 -0.661,-0.431 -1.373,-0.761 -2.033,-1.219 -0.883,-0.602 -1.788,-1.177 -2.703,-1.74 L -2.977,-2.483 C -1.995,-1.643 -1.008,-0.81 0,0"
             style="fill:#f7a559;fill-opacity:1;fill-rule:nonzero;stroke:none"
             id="path14079" />
        </g>
        <g
           id="g14081"
           transform="translate(326.9463,425.2939)">
          <path
             d="m 0,0 c -0.289,0.226 -0.549,0.489 -0.76,0.797 -0.407,0.228 -0.739,0.507 -1.043,0.839 -0.279,0.025 -0.636,-0.026 -0.864,0.179 -0.281,0.254 -0.51,0.558 -0.864,0.736 -0.28,0.203 -0.636,0.254 -0.943,0.355 -0.33,0.204 -0.532,0.536 -0.837,0.765 -0.815,0.608 -1.654,1.17 -2.569,1.601 -0.585,0.406 -1.247,0.609 -1.855,0.915 -0.511,0.256 -1.146,0.129 -1.602,0.509 -0.205,0.153 -0.461,0.203 -0.714,0.229 0.026,-0.127 0.101,-0.356 0.127,-0.482 0.075,-0.256 0.102,-0.562 0.331,-0.765 0.256,-0.203 0.535,-0.355 0.814,-0.558 V 4.661 c -0.763,-0.151 -1.373,0.434 -2.112,0.434 -0.356,0.228 -0.685,0.481 -1.117,0.557 -0.127,-0.076 -0.203,-0.278 -0.383,-0.278 -0.381,0.05 -0.737,0.228 -1.091,0.38 -1.095,-0.076 -2.086,0.512 -3.179,0.588 -0.458,0.126 -0.917,0.304 -1.4,0.151 0.153,-0.306 0.56,-0.253 0.839,-0.382 0,-0.076 0.051,-0.205 0.051,-0.281 0.153,-0.127 0.331,-0.254 0.458,-0.406 0.027,-0.202 0.027,-0.405 0.027,-0.608 -0.993,-0.05 -2.01,0 -3.001,0.203 -0.536,0.025 -0.993,0.329 -1.526,0.304 0,-0.101 0.026,-0.33 0.026,-0.431 -0.485,-0.026 -0.942,-0.026 -1.425,0.076 -0.636,0.152 -1.297,-0.026 -1.932,0.203 -0.61,0.152 -1.222,0.101 -1.831,0.127 -0.535,0.076 -1.018,-0.279 -1.551,-0.279 0.202,-0.153 0.355,-0.358 0.508,-0.585 0.28,-0.053 0.534,-0.104 0.814,-0.155 0,-0.05 0.025,-0.152 0.025,-0.203 -0.864,0.026 -1.755,-0.304 -2.618,-0.076 -0.188,0.037 -0.377,0.052 -0.569,0.061 l -2.039,-5.705 z"
             style="fill:#f2e69e;fill-opacity:1;fill-rule:nonzero;stroke:none"
             id="path14083" />
        </g>
        <g
           id="g14085"
           transform="translate(331.1943,427.3633)">
          <path
             d="M 0,0 C -0.05,0.076 -0.101,0.151 -0.151,0.253 -0.024,-0.279 0.128,-0.816 0,-1.349 0.069,-1.515 0.135,-1.684 0.192,-1.855 l 0.659,0.033 C 0.665,-1.166 0.455,-0.523 0,0"
             style="fill:#f2e69e;fill-opacity:1;fill-rule:nonzero;stroke:none"
             id="path14087" />
        </g>
        <g
           id="g14089"
           transform="translate(305.4873,455.5127)">
          <path
             d="m 0,0 c 0.255,-0.205 0.381,-0.537 0.56,-0.791 0.559,-0.431 1.169,-0.786 1.728,-1.193 0.434,-0.282 0.713,-0.763 1.245,-0.89 0.586,-0.127 1.044,-0.534 1.552,-0.841 1.17,-0.71 2.239,-1.576 3.307,-2.413 1.755,-1.196 3.255,-2.696 4.959,-3.969 0.837,-0.585 1.601,-1.297 2.44,-1.905 1.169,-0.766 2.238,-1.68 3.408,-2.494 1.017,-0.712 1.957,-1.5 2.95,-2.263 1.068,-0.839 2.21,-1.576 3.203,-2.516 0.507,-0.458 1.093,-0.867 1.627,-1.297 2.112,-1.653 4.171,-3.406 6.281,-5.061 1.481,-1.286 2.969,-2.553 4.479,-3.795 L 58.685,-28.41 2.205,8.832 -0.702,0.7 C -0.47,0.464 -0.236,0.229 0,0"
             style="fill:#f2e69e;fill-opacity:1;fill-rule:nonzero;stroke:none"
             id="path14091" />
        </g>
        <g
           id="g14093"
           transform="translate(202.834,343.1934)">
          <path
             d="m 0,0 c -0.712,0.917 -1.271,1.959 -2.009,2.849 -1.474,2.086 -3.076,4.094 -4.272,6.358 -0.382,0.839 -0.941,1.627 -1.17,2.542 -0.915,2.671 -1.424,5.493 -1.322,8.316 0.559,2.034 1.729,3.863 3.051,5.517 0.637,0.713 1.17,1.526 1.831,2.213 2.213,2.62 4.094,5.518 6.383,8.084 0.889,0.968 1.627,2.062 2.518,3.001 0.762,0.968 1.551,1.91 2.364,2.848 0.381,0.382 0.763,0.74 1.018,1.196 1.321,1.627 2.719,3.203 4.144,4.729 0.89,1.069 1.957,1.958 2.874,3 0.788,0.714 1.424,1.577 2.263,2.241 0.966,1.193 2.186,2.133 3.127,3.329 v -0.177 c 0.051,0.202 0.204,0.329 0.356,0.456 0.306,0.281 0.508,0.638 0.839,0.866 0.255,0.203 0.458,0.432 0.661,0.685 1.576,1.806 3.485,3.23 5.137,4.96 0.89,0.812 1.78,1.629 2.619,2.49 0.864,0.715 1.627,1.551 2.492,2.266 0.407,0.405 0.864,0.735 1.296,1.142 0.687,0.738 1.5,1.323 2.238,2.01 0.458,0.397 0.916,0.795 1.373,1.191 l -66.536,-8.108 c -0.292,-0.261 -0.589,-0.517 -0.899,-0.762 -0.737,-0.739 -1.628,-1.297 -2.391,-2.012 -0.61,-0.43 -1.093,-1.013 -1.677,-1.5 -0.56,-0.456 -1.018,-1.013 -1.603,-1.396 -0.356,-0.23 -0.533,-0.61 -0.813,-0.915 -1.018,-0.61 -1.781,-1.551 -2.696,-2.315 -1.347,-1.068 -2.568,-2.312 -3.916,-3.381 -0.635,-0.612 -1.271,-1.197 -1.932,-1.729 -1.882,-1.678 -3.484,-3.611 -5.442,-5.189 -1.729,-1.576 -3.534,-3.128 -4.908,-5.034 -1.004,-1.22 -1.73,-2.673 -2.125,-4.212 L 4.167,-6.562 C 2.847,-4.338 1.338,-2.216 0,0"
             style="fill:#fb6507;fill-opacity:1;fill-rule:nonzero;stroke:none"
             id="path14095" />
        </g>
        <g
           id="g14097"
           transform="translate(372.4648,401.8135)">
          <path
             d="m 0,0 c 1.132,-1.104 2.305,-2.15 3.357,-3.34 0.892,-0.837 1.55,-1.855 2.366,-2.744 1.374,-1.627 2.618,-3.308 3.914,-4.985 0.612,-0.685 1.069,-1.526 1.654,-2.21 0.484,-0.613 0.941,-1.221 1.371,-1.858 0.841,-0.966 1.529,-2.01 2.392,-2.949 0.584,-0.764 1.247,-1.45 1.804,-2.238 0.792,-1.094 1.653,-2.161 2.469,-3.254 0.609,-0.613 0.99,-1.373 1.576,-1.984 0.659,-0.839 1.399,-1.604 2.058,-2.441 0.003,-0.005 0.007,-0.009 0.011,-0.014 L 36.17,19.04 c -1.478,1.013 -2.991,1.964 -4.359,3.126 -0.966,0.94 -2.059,1.781 -3.078,2.643 -0.583,0.512 -1.296,0.816 -1.854,1.349 -1.349,1.195 -2.95,2.06 -4.45,3.076 -0.432,0.332 -0.968,0.487 -1.4,0.79 -0.788,0.558 -1.677,0.915 -2.467,1.475 -1.45,0.786 -2.821,1.679 -4.27,2.517 -0.51,0.332 -1.093,0.611 -1.601,0.965 -0.065,0.045 -0.134,0.083 -0.202,0.122 L -8.293,25.289 Z"
             style="fill:#e8f8c4;fill-opacity:1;fill-rule:nonzero;stroke:none"
             id="path14099" />
        </g>
        <g
           id="g14101"
           transform="translate(397.334,371.5967)">
          <path
             d="m 0,0 c 0.839,-0.786 1.578,-1.703 2.364,-2.515 1.526,-1.73 3.001,-3.588 3.993,-5.696 0.407,-0.791 0.508,-1.703 0.634,-2.596 0.128,-0.661 0.103,-1.373 0.052,-2.057 -0.052,0.127 -0.076,0.228 -0.102,0.355 0.102,-0.662 -0.177,-1.298 -0.228,-1.933 -0.021,-0.079 -0.042,-0.157 -0.063,-0.235 L 55.884,4.417 c 0.103,0.385 0.214,0.769 0.337,1.152 0.714,2.747 0.384,5.849 -1.195,8.24 -0.712,0.939 -1.449,1.882 -2.389,2.617 -0.943,0.791 -1.78,1.655 -2.773,2.342 -0.991,0.813 -2.007,1.576 -2.974,2.415 -0.507,0.534 -1.146,0.94 -1.678,1.449 -0.993,0.813 -1.805,1.781 -2.722,2.643 -0.71,0.714 -1.5,1.348 -2.21,2.063 -0.638,0.557 -1.323,1.042 -1.986,1.551 -0.888,0.887 -2.008,1.474 -2.976,2.26 -0.659,0.563 -1.424,0.994 -2.108,1.526 -1.424,1.018 -2.823,2.113 -4.273,3.102 -1.018,0.79 -2.186,1.399 -3.127,2.29 -0.84,0.763 -1.729,1.451 -2.569,2.185 -0.94,0.943 -2.033,1.706 -3.052,2.57 -0.684,0.661 -1.525,1.17 -2.26,1.779 -0.892,0.791 -1.987,1.297 -2.899,2.113 -0.461,0.431 -1.07,0.684 -1.577,1.093 -0.331,0.281 -0.714,0.458 -1.069,0.686 -0.357,0.262 -0.719,0.514 -1.083,0.764 L -1.898,2.2 C -1.337,1.416 -0.632,0.735 0,0"
             style="fill:#ddf5db;fill-opacity:1;fill-rule:nonzero;stroke:none"
             id="path14103" />
        </g>
        <g
           id="g14105"
           transform="translate(208.4277,334.0654)">
          <path
             d="m 0,0 c -0.229,0.535 -0.508,1.019 -0.813,1.5 -0.199,0.359 -0.405,0.714 -0.614,1.066 l -61.294,42.121 c -0.206,-0.8 -0.323,-1.623 -0.34,-2.45 -0.051,-0.433 -0.026,-0.889 0.05,-1.348 0.127,-1.068 0.254,-2.137 0.508,-3.178 0.255,-0.763 0.458,-1.5 0.688,-2.237 0.1,-0.561 0.126,-1.12 0.304,-1.654 0.357,-1.677 0.382,-3.408 0.357,-5.138 -0.026,-0.533 0.178,-1.065 0.203,-1.602 -0.051,-0.963 0.153,-1.931 0.203,-2.898 0.076,-1.425 0.356,-2.847 0.331,-4.271 0,-0.586 0.229,-1.118 0.28,-1.679 0.051,-0.609 0.329,-1.144 0.407,-1.729 -0.281,-0.685 -0.128,-1.476 0.228,-2.109 0.23,-0.943 0.23,-1.933 0.28,-2.873 0.026,-0.561 0.356,-1.044 0.432,-1.602 0.025,-0.383 0.128,-0.74 0.23,-1.12 0.126,-1.044 0.203,-2.112 0.507,-3.102 0.077,-0.381 0.154,-0.763 0.255,-1.145 0.153,-0.507 -0.051,-1.068 0.203,-1.576 0.509,-1.07 0.509,-2.289 0.636,-3.457 0.127,-0.614 0.357,-1.171 0.406,-1.756 0.051,-0.788 0.536,-1.451 0.637,-2.213 0.051,-0.737 0.127,-1.475 0.178,-2.212 0,-0.031 0.003,-0.063 0.006,-0.094 L 1.712,-3.201 C 1.119,-2.133 0.596,-1.068 0,0"
             style="fill:#f55a00;fill-opacity:1;fill-rule:nonzero;stroke:none"
             id="path14107" />
        </g>
        <g
           id="g14109"
           transform="translate(360.1074,346.7812)">
          <path
             d="M 0,0 C 0.18,1.271 0.433,2.515 0.509,3.786 0.534,4.73 0.814,5.644 0.763,6.584 0.737,7.246 0.966,7.882 0.94,8.541 0.89,8.977 1.193,9.306 1.5,9.585 c -0.025,0.509 -0.102,1.019 0.103,1.5 0.102,0.305 0.051,0.636 0.026,0.968 -0.026,0.888 -0.026,1.779 -0.332,2.618 -0.078,0.61 -0.051,1.219 -0.255,1.807 -0.178,0.506 -0.305,1.016 -0.457,1.525 -0.152,0.456 -0.025,0.938 -0.152,1.398 -0.153,0.584 -0.357,1.195 -0.279,1.831 0.075,0.608 -0.23,1.196 -0.129,1.804 0.104,0.687 0.155,1.399 -0.076,2.061 -0.153,0.489 -0.25,0.989 -0.371,1.479 L -66.966,76.869 -84.724,-22.03 -0.664,-2.52 C -0.426,-1.684 -0.175,-0.852 0,0"
             style="fill:#ffe157;fill-opacity:1;fill-rule:nonzero;stroke:none"
             id="path14111" />
        </g>
        <g
           id="g14113"
           transform="translate(348.7666,421.7676)">
          <path
             d="m 0,0 c 1.298,-0.966 2.595,-1.881 3.89,-2.798 1.374,-1.092 2.823,-2.057 4.17,-3.152 1.909,-1.475 3.866,-2.873 5.696,-4.425 0.331,-0.329 0.663,-0.659 1.018,-0.941 0.89,-0.737 1.627,-1.654 2.517,-2.364 0.839,-0.968 1.781,-1.779 2.669,-2.696 1.144,-1.044 2.188,-2.186 3.357,-3.203 0.126,-0.126 0.253,-0.25 0.381,-0.375 L 15.405,5.335 -5.54,4.317 C -3.734,2.832 -1.898,1.386 0,0"
             style="fill:#f9f393;fill-opacity:1;fill-rule:nonzero;stroke:none"
             id="path14115" />
        </g>
        <g
           id="g14117"
           transform="translate(359.6855,373.3574)">
          <path
             d="m 0,0 c -0.061,0.248 -0.129,0.493 -0.214,0.732 -0.052,0.662 -0.178,1.298 -0.228,1.957 -0.076,0.74 -0.482,1.424 -0.407,2.164 0.102,0.152 0.127,0.33 0.102,0.507 -0.356,1.424 -1.271,2.645 -1.678,4.044 0.026,0.941 -0.714,1.729 -0.638,2.671 0.026,0.355 -0.025,0.736 0.077,1.09 0.177,0.461 0,0.968 0.051,1.45 0.305,-0.025 0.432,-0.33 0.739,-0.355 0,0.203 -0.026,0.431 -0.051,0.636 0.102,0.05 0.203,0.127 0.304,0.179 -0.025,0.229 -0.05,0.432 -0.05,0.635 0.025,0.05 0.075,0.126 0.101,0.177 0.228,-0.076 0.457,-0.102 0.712,-0.127 -0.076,0.279 -0.179,0.535 -0.255,0.816 -0.077,0.406 0.025,0.837 -0.102,1.244 -0.178,0.383 -0.431,0.687 -0.608,1.068 -0.332,0.585 -0.918,0.967 -1.247,1.551 -0.228,0.356 -0.585,0.586 -0.839,0.916 -0.051,0.178 0.076,0.33 0.076,0.482 0.101,0.305 -0.127,0.535 -0.231,0.79 -0.227,0.305 -0.151,0.685 -0.151,1.042 -0.179,0.254 -0.406,0.51 -0.559,0.788 -0.152,0.405 -0.177,0.89 -0.508,1.196 -0.256,0.204 -0.485,0.482 -0.612,0.761 -0.025,0.178 -0.025,0.382 -0.025,0.562 -0.076,0 -0.228,0.025 -0.329,0.025 -0.229,0.432 -0.329,0.913 -0.28,1.422 -0.381,0.56 -0.612,1.222 -1.017,1.781 -0.229,0.279 -0.432,0.559 -0.611,0.862 -0.307,0.512 -0.789,0.917 -1.017,1.451 -0.076,0.229 0.102,0.409 0.178,0.587 -0.279,0.659 -0.636,1.348 -1.297,1.677 -0.102,0.229 0.025,0.456 0.202,0.609 0.23,0.025 0.459,0.076 0.688,0.154 -0.049,0.305 -0.049,0.637 -0.024,0.966 0.329,0 0.685,-0.026 1.017,-0.051 0.024,0.482 -0.51,0.636 -0.84,0.839 -0.357,0.18 -0.585,0.51 -0.992,0.535 -0.534,0.024 -1.144,0 -1.654,0.253 -0.405,0.229 -0.864,0.355 -1.322,0.381 0.025,0.28 0.025,0.587 0.025,0.841 -0.279,0.101 -0.583,0.203 -0.864,0.253 -0.152,0.304 -0.203,0.662 -0.127,1.018 0.102,0.229 0.534,0.229 0.51,0.533 -0.33,0.026 -0.636,0.177 -0.867,0.433 -0.076,0.332 -0.126,0.687 -0.152,1.042 -0.228,0.381 -0.71,0.434 -1.067,0.661 -0.281,0.154 -0.61,0.154 -0.915,0.205 -0.382,0.051 -0.739,0.203 -1.12,0.254 -0.456,0.025 -0.89,-0.152 -1.348,-0.102 -0.33,0.026 -0.634,0.127 -0.966,0.203 -0.356,-0.177 -0.762,-0.329 -1.168,-0.228 -0.025,0.456 0.482,0.659 0.558,1.068 -0.38,0.179 -0.788,0.153 -1.196,0.153 0.179,0.558 0.764,0.913 1.171,1.321 -0.254,0.051 -0.507,0.102 -0.763,0.152 v 0.331 c -0.178,0.051 -0.383,0.127 -0.586,0.178 v 0.661 c -0.329,-0.179 -0.608,-0.432 -0.862,-0.686 -0.409,-0.076 -0.689,-0.356 -1.043,-0.585 -0.356,-0.102 -0.739,-0.127 -1.12,-0.152 -0.026,0.433 -0.38,0.711 -0.482,1.142 -0.101,0.408 -0.33,0.766 -0.51,1.12 -0.356,1.247 -0.635,2.493 -1.142,3.662 -0.023,0.079 -0.045,0.16 -0.068,0.239 l -0.658,-0.033 c 0.156,-0.455 0.26,-0.927 0.241,-1.427 -0.078,-0.076 -0.154,-0.178 -0.229,-0.254 v -0.331 c -0.762,-0.203 -1.017,0.79 -1.704,0.79 -0.05,-0.178 -0.102,-0.357 -0.152,-0.536 -0.457,-0.051 -0.712,0.409 -0.993,0.714 -0.567,0.189 -1.127,0.458 -1.603,0.83 l -33.805,-1.644 z"
             style="fill:#f9f393;fill-opacity:1;fill-rule:nonzero;stroke:none"
             id="path14119" />
        </g>
        <g
           id="g14121"
           transform="translate(269.8203,419.9141)">
          <path
             d="M 0,0 C -0.102,-0.056 -0.207,-0.107 -0.313,-0.153 -0.594,-0.229 -0.695,-0.511 -0.873,-0.716 -1,-0.843 -1.204,-0.894 -1.382,-0.97 -1.153,-1.426 -1.179,-1.935 -1.051,-2.444 -0.949,-2.875 -1.306,-3.23 -1.56,-3.562 -2.143,-4.097 -3.11,-4.3 -3.288,-5.166 -3.975,-5.191 -4.535,-5.622 -5.196,-5.749 -6.264,-6.41 -7.307,-7.071 -8.349,-7.759 -8.705,-8.115 -9.238,-8.369 -9.468,-8.825 -9.85,-8.851 -9.9,-9.31 -10.23,-9.411 h 0.228 c 0.204,0.127 0.433,0.256 0.56,0.459 0.152,0 0.457,0.025 0.61,0.025 -0.103,-0.228 -0.204,-0.484 -0.356,-0.714 0.026,-0.076 0.026,-0.177 0.026,-0.228 0.025,0.051 0.025,0.177 0.025,0.228 l 0.356,-0.051 c -0.051,-0.609 -0.585,-0.989 -0.992,-1.399 -0.738,-0.761 -1.627,-1.396 -2.339,-2.184 -0.306,-0.28 -0.712,-0.485 -0.992,-0.816 -0.331,-0.33 -0.432,-0.837 -0.789,-1.143 -0.507,-0.509 -1.168,-1.042 -1.194,-1.832 0.559,0.129 0.965,0.613 1.5,0.815 v 0.127 c 0.33,-0.278 0.102,-0.661 0.075,-0.993 -0.254,-0.279 -0.61,-0.431 -0.991,-0.558 0,-0.203 0.052,-0.405 0.279,-0.483 v -0.332 c -0.38,-0.28 -0.964,-0.456 -0.889,-1.066 0.178,-0.154 0.356,-0.305 0.534,-0.46 -0.025,-0.533 -0.28,-1.04 -0.482,-1.526 -0.408,-0.507 -0.739,-1.092 -1.196,-1.576 -0.356,-0.482 -0.559,-1.067 -0.686,-1.653 -0.076,-0.379 -0.306,-0.659 -0.458,-0.99 -0.203,-0.357 -0.255,-0.789 -0.484,-1.118 -0.349,-0.449 -0.551,-1.021 -0.871,-1.497 L 5.564,-95.163 23.321,3.736 Z"
             style="fill:#fdb53f;fill-opacity:1;fill-rule:nonzero;stroke:none"
             id="path14123" />
        </g>
        <g
           id="g14125"
           transform="translate(251.0459,391.5098)">
          <path
             d="m 0,0 c -0.28,-0.408 -0.355,-0.917 -0.535,-1.374 0.103,-0.202 0.204,-0.382 0.356,-0.56 -0.051,-0.332 -0.203,-0.635 -0.329,-0.94 -0.229,-0.459 0.202,-0.917 0.025,-1.373 -0.154,-0.791 -0.509,-1.526 -0.484,-2.317 -0.076,-0.582 -0.635,-0.912 -0.737,-1.474 -0.051,-0.229 -0.102,-0.456 -0.152,-0.685 0.152,-0.866 -0.483,-1.677 -0.407,-2.569 0.432,-0.102 0.559,0.38 0.661,0.687 0.051,0.05 0.178,0.128 0.253,0.179 -0.176,-0.612 0.076,-1.221 0.051,-1.832 0.255,0.051 0.484,0.102 0.737,0.127 0,-0.813 0.027,-1.652 0,-2.491 -0.024,-0.459 0.103,-0.942 -0.126,-1.373 -0.177,-0.406 -0.254,-0.968 0.126,-1.298 -0.024,-0.737 -0.202,-1.5 0,-2.237 0.104,-0.102 0.23,-0.203 0.331,-0.307 0.103,-0.305 0.255,-0.583 0.382,-0.888 0.102,-0.357 0,-0.739 0.026,-1.094 0.152,-0.406 0.279,-0.814 0.458,-1.221 -0.154,-0.761 0.076,-1.526 0.101,-2.287 0.306,-1.297 -0.255,-2.594 0,-3.917 0.102,-0.431 0,-0.89 0.102,-1.348 0.127,-0.584 0.229,-1.222 0.153,-1.83 -0.077,-0.586 -0.102,-1.171 0.026,-1.754 0.127,-0.638 -0.026,-1.323 0.076,-1.984 0.1,-0.814 0.076,-1.68 0.381,-2.491 -0.026,-0.409 0,-0.816 0.254,-1.171 0.102,-0.687 0.102,-1.373 0.153,-2.085 0.024,-0.307 0.33,-0.535 0.279,-0.864 -0.076,-0.56 -0.179,-1.146 -0.102,-1.704 0,-0.483 0.459,-0.79 0.484,-1.247 0.178,-0.076 0.382,-0.127 0.584,-0.202 -0.076,-0.305 -0.228,-0.611 -0.381,-0.892 -0.228,-0.33 -0.203,-0.709 -0.203,-1.092 -0.025,-0.611 -0.179,-1.195 -0.128,-1.807 -0.051,-0.786 0.128,-1.551 0.103,-2.311 0.076,-1.095 0.305,-2.19 0.431,-3.282 0.254,-0.94 0.458,-1.933 0.864,-2.848 0.713,-1.883 2.29,-3.28 3.078,-5.137 0.312,-0.536 0.552,-1.11 0.755,-1.694 L 24.338,-66.759 0.019,0.028 C 0.012,0.018 0.007,0.009 0,0"
             style="fill:#ff9b13;fill-opacity:1;fill-rule:nonzero;stroke:none"
             id="path14127" />
        </g>
        <g
           id="g14129"
           transform="translate(402.5723,352.374)">
          <path
             d="m 0,0 c -0.305,-0.661 -0.71,-1.246 -1.017,-1.907 -0.125,-0.208 -0.252,-0.413 -0.377,-0.62 l 48.337,-5.167 c 0.131,0.981 0.329,1.955 0.329,2.964 -0.025,0.739 0.177,1.423 0.177,2.164 0.254,0.836 0.153,1.727 0.305,2.566 0.051,1.653 0.28,3.28 0.227,4.909 0,0.888 0.026,1.78 0.026,2.669 -0.026,0.56 0.129,1.143 0.078,1.705 -0.231,1.551 0.127,3.102 0.178,4.627 -0.026,1.856 0.433,3.66 0.889,5.467 0.33,1.193 1.044,2.263 1.298,3.51 0.06,0.25 0.127,0.502 0.195,0.753 L 1.412,4.546 C 1.007,3.02 0.629,1.476 0,0"
             style="fill:#dff3bd;fill-opacity:1;fill-rule:nonzero;stroke:none"
             id="path14131" />
        </g>
        <g
           id="g14133"
           transform="translate(374.2959,299.8135)">
          <path
             d="m 0,0 c -0.685,-0.686 -1.041,-1.576 -1.449,-2.441 -0.483,-0.762 -0.483,-1.705 -0.941,-2.491 -0.407,-0.484 -0.889,-0.891 -1.323,-1.373 -0.99,-1.247 -2.11,-2.418 -3.102,-3.664 -0.332,-0.457 -0.661,-0.913 -1.041,-1.346 -0.714,-1.092 -1.626,-2.085 -2.443,-3.129 -0.71,-0.837 -1.576,-1.526 -2.261,-2.388 -0.46,-0.509 -0.993,-0.968 -1.296,-1.602 -0.333,-0.588 -0.741,-1.094 -1.02,-1.705 -0.126,-0.23 -0.202,-0.459 -0.354,-0.686 -0.892,-1.273 -1.704,-2.57 -2.443,-3.942 -0.157,-0.419 -0.334,-0.833 -0.514,-1.245 l 9.542,-6.023 9.146,32.537 C 0.33,0.339 0.162,0.172 0,0"
             style="fill:#ffdd4d;fill-opacity:1;fill-rule:nonzero;stroke:none"
             id="path14135" />
        </g>
        <g
           id="g14137"
           transform="translate(337.3486,290.7109)">
          <path
             d="M 0,0 C 0.151,0.482 0.612,0.763 0.941,1.12 1.576,1.779 2.239,2.39 2.924,3 c 1.044,1.171 2.113,2.314 3.025,3.584 1.45,2.062 2.874,4.12 4.197,6.282 0.867,1.399 1.729,2.798 2.494,4.273 0.481,1.143 1.142,2.186 1.55,3.357 0.533,1.22 0.941,2.517 1.348,3.786 0.152,0.69 0.432,1.349 0.457,2.037 0.304,0.99 0.278,2.034 0.405,3.051 0.102,1.144 -0.05,2.287 0.127,3.432 0.078,0.611 -0.025,1.272 0.078,1.881 0.102,0.281 0.434,0.306 0.662,0.382 0.71,0.18 1.118,0.865 1.55,1.424 0.508,0.788 1.042,1.551 1.501,2.39 0.507,0.968 0.583,2.137 0.329,3.179 -0.253,0.663 -0.278,1.424 -0.076,2.087 0.203,0.709 0.102,1.447 0.254,2.185 0.256,1.88 0.358,3.816 0.866,5.671 0.117,0.521 0.257,1.036 0.404,1.549 L -61.965,34.04 -1.111,-4.368 C -0.776,-2.908 -0.364,-1.458 0,0"
             style="fill:#ffdd4d;fill-opacity:1;fill-rule:nonzero;stroke:none"
             id="path14139" />
        </g>
        <g
           id="g14141"
           transform="translate(421.6279,253.2939)">
          <path
             d="m 0,0 c -0.016,0.283 -0.025,0.566 0.016,0.85 0.355,0.942 0.89,1.781 1.272,2.72 1.067,2.393 2.235,4.73 3.254,7.147 0.583,1.171 1.069,2.415 1.602,3.611 0.509,1.042 0.891,2.137 1.45,3.127 0.839,2.289 1.905,4.501 2.822,6.738 0.94,2.01 1.627,4.121 2.545,6.128 0.531,1.399 1.244,2.722 1.702,4.146 0.837,2.34 1.881,4.602 2.644,6.969 0.991,2.438 1.755,4.957 2.516,7.45 0.459,1.346 0.866,2.694 1.247,4.04 0.406,1.019 0.56,2.088 0.892,3.104 0.253,0.763 0.354,1.551 0.634,2.288 0.228,0.663 0.203,1.4 0.484,2.034 0.253,0.637 0.228,1.347 0.458,1.986 0.229,1.014 0.356,2.083 0.634,3.101 0.152,0.507 0.178,1.068 0.279,1.602 0.078,0.532 0.307,1.042 0.331,1.576 0.051,1.349 0.434,2.646 0.586,3.967 0.304,2.466 0.788,4.908 1.043,7.399 0.008,0.073 0.018,0.145 0.026,0.218 L -55.977,14.484 Z"
             style="fill:#f0e096;fill-opacity:1;fill-rule:nonzero;stroke:none"
             id="path14143" />
        </g>
        <g
           id="g14145"
           transform="translate(397.8174,344.415)">
          <path
             d="m 0,0 c -0.711,-1.12 -1.271,-2.339 -1.934,-3.508 -0.635,-1.246 -1.218,-2.518 -1.831,-3.791 -0.431,-1.066 -1.014,-2.057 -1.396,-3.152 -0.561,-1.246 -1.118,-2.519 -1.579,-3.814 -0.177,-0.509 -0.279,-1.042 -0.532,-1.526 -0.331,-0.636 -0.407,-1.373 -0.687,-2.059 -0.51,-1.248 -0.788,-2.595 -1.193,-3.891 -0.128,-0.712 -0.358,-1.373 -0.536,-2.06 -0.179,-0.788 -0.357,-1.551 -0.484,-2.34 -0.1,-0.584 -0.38,-1.117 -0.456,-1.679 -0.127,-0.887 -0.382,-1.729 -0.588,-2.565 -0.076,-0.842 -0.456,-1.603 -0.634,-2.418 -0.176,-0.968 -0.483,-1.905 -0.736,-2.847 -0.155,-0.432 -0.357,-0.865 -0.662,-1.197 -1.019,-1.016 -1.475,-2.413 -2.008,-3.735 -0.179,-0.307 -0.382,-0.613 -0.688,-0.842 -1.45,-0.354 -3,-0.38 -4.425,-0.965 -1.02,-0.334 -1.883,-0.973 -2.651,-1.711 l -9.146,-32.537 82.413,65.717 c 0.133,1.144 0.36,2.27 0.432,3.419 0.025,0.532 0.228,1.044 0.304,1.576 0.177,1.829 0.382,3.661 0.636,5.493 0.02,0.234 0.048,0.465 0.079,0.697 L 3.361,5.432 C 2.26,3.611 1.143,1.804 0,0"
             style="fill:#f6ee98;fill-opacity:1;fill-rule:nonzero;stroke:none"
             id="path14147" />
        </g>
        <g
           id="g14149"
           transform="translate(216.8613,315.4795)">
          <path
             d="m 0,0 c -1.075,3.075 -2.371,6.061 -3.729,9.026 -0.204,0.583 -0.585,1.066 -0.813,1.628 -0.586,1.627 -1.45,3.102 -2.137,4.653 -0.014,0.026 -0.028,0.052 -0.043,0.078 L -64.166,11.83 c 0.029,-0.347 0.21,-0.671 0.35,-0.974 0.331,-0.84 0.05,-1.804 0.407,-2.645 0.228,-0.634 0.254,-1.348 0.33,-2.007 0.025,-0.332 0.28,-0.588 0.433,-0.892 0.127,-0.253 0.077,-0.533 0.102,-0.811 0.025,-1.12 0.177,-2.266 0.636,-3.281 0.304,-0.662 0.178,-1.4 0.354,-2.086 0.128,-0.482 0.154,-0.968 0.23,-1.449 0,-0.105 0.027,-0.201 0.068,-0.292 L 7.223,-59.539 Z"
             style="fill:#fb6800;fill-opacity:1;fill-rule:nonzero;stroke:none"
             id="path14151" />
        </g>
        <g
           id="g14153"
           transform="translate(355.6064,272.6318)">
          <path
             d="m 0,0 c -0.382,-0.102 -0.585,0.229 -0.839,0.432 -0.456,0.405 -0.866,0.866 -1.373,1.195 -0.532,0.381 -1.222,0.482 -1.805,0.788 -0.535,0.102 -1.043,0.383 -1.626,0.332 -0.332,0 -0.638,-0.23 -0.968,-0.103 -0.431,0.128 -0.839,0.357 -1.323,0.332 -0.709,-0.026 -1.424,0.076 -2.134,-0.077 -0.841,-0.637 -1.399,-1.627 -1.627,-2.67 -0.205,-0.712 -0.332,-1.45 -0.461,-2.188 -0.127,-0.737 0.129,-1.424 0.306,-2.11 0.155,-0.533 0.383,-1.044 0.307,-1.602 -0.613,-0.254 -1.247,-0.381 -1.857,-0.585 -0.409,-0.127 -0.763,0.078 -1.042,0.306 -0.253,0.735 -0.332,1.525 -0.689,2.21 -0.659,0.943 -0.938,2.088 -1.601,3.026 -0.33,0.562 -0.812,1.044 -0.992,1.705 -0.408,1.042 -0.33,2.238 -0.94,3.203 -0.33,0.383 -0.839,0.661 -0.917,1.222 -0.127,0.813 -0.253,1.602 -0.228,2.441 0.025,0.866 -0.253,1.703 -0.126,2.569 0.107,1.106 0.316,2.199 0.566,3.285 L -80.223,52.119 -54.079,-50.728 10.045,-4.854 0.502,1.17 C 0.333,0.781 0.16,0.394 0,0"
             style="fill:#feba1a;fill-opacity:1;fill-rule:nonzero;stroke:none"
             id="path14155" />
        </g>
        <g
           id="g14157"
           transform="translate(155.6055,312.873)">
          <path
             d="m 0,0 c 0.089,-0.198 0.25,-0.373 0.39,-0.548 0.076,-1.118 0.431,-2.187 0.585,-3.306 0.076,-0.559 0.482,-1.017 0.533,-1.578 0,-0.481 0.255,-0.889 0.331,-1.373 0.076,-0.71 0.255,-1.449 0.457,-2.159 0.306,-0.689 0.356,-1.399 0.586,-2.086 0.229,-0.889 0.61,-1.756 0.839,-2.643 0.304,-0.841 0.534,-1.731 0.916,-2.57 0.202,-0.379 0.202,-0.84 0.431,-1.246 0.153,-0.304 0.281,-0.634 0.357,-0.966 0.127,-0.535 0.508,-0.94 0.636,-1.475 0.228,-0.814 0.609,-1.578 0.838,-2.364 0.203,-0.535 0.636,-0.968 0.712,-1.551 0.127,-0.689 0.56,-1.273 0.788,-1.934 0.153,-0.407 0.281,-0.813 0.408,-1.218 0.101,-0.383 0.457,-0.588 0.558,-0.968 0.23,-0.687 0.56,-1.348 0.815,-2.033 0.177,-0.435 0.483,-0.79 0.534,-1.272 0.05,-0.434 0.33,-0.79 0.534,-1.171 0.254,-0.481 0.38,-1.069 0.66,-1.551 0.306,-0.534 0.407,-1.145 0.712,-1.677 0.458,-1.247 1.068,-2.417 1.476,-3.664 0.381,-0.888 0.991,-1.729 1.194,-2.695 0.204,-0.661 0.713,-1.193 0.967,-1.857 0.356,-0.583 0.509,-1.27 0.839,-1.855 0.305,-0.686 0.635,-1.374 0.865,-2.084 0.127,-0.28 0.33,-0.51 0.457,-0.79 0.254,-0.761 0.61,-1.474 0.915,-2.184 0.433,-0.638 0.535,-1.4 0.941,-2.012 0.509,-0.812 0.764,-1.754 1.247,-2.593 0.38,-0.661 -0.128,-1.371 0.025,-2.06 0.255,-1.5 0.179,-3.026 0.509,-4.5 0.025,-0.071 0.047,-0.141 0.07,-0.211 l 46.354,5.261 z"
             style="fill:#f35c00;fill-opacity:1;fill-rule:nonzero;stroke:none"
             id="path14159" />
        </g>
        <g
           id="g14161"
           transform="translate(258.9541,325.7002)">
          <path
             d="M 0,0 C 0.406,-1.067 0.839,-2.111 1.373,-3.104 1.5,-3.434 1.78,-3.611 1.982,-3.84 2.34,-4.782 2.186,-5.849 2.67,-6.764 2.924,-7.35 3.179,-7.96 3.661,-8.391 c 0.788,-0.815 1.552,-1.627 2.493,-2.24 0.686,-0.456 1.551,-0.659 2.364,-0.558 0.111,0.012 0.217,0.033 0.322,0.059 L 16.43,-0.949 -0.263,0.822 C -0.168,0.549 -0.081,0.274 0,0"
             style="fill:#ff8500;fill-opacity:1;fill-rule:nonzero;stroke:none"
             id="path14163" />
        </g>
        <g
           id="g14165"
           transform="translate(240.2393,279.3682)">
          <path
             d="m 0,0 c -0.611,1.576 -1.145,3.256 -2.213,4.577 -0.788,0.968 -1.525,2.012 -2.467,2.874 -0.406,0.46 -1.016,0.739 -1.219,1.348 -0.484,1.781 -1.069,3.535 -1.958,5.139 -0.255,0.532 -0.637,0.963 -0.967,1.449 -1.373,2.008 -3.458,3.406 -5.645,4.45 -0.839,0.254 -1.45,0.938 -2.213,1.296 -0.533,0.255 -1.118,0.458 -1.55,0.888 -0.407,0.713 -0.509,1.602 -1.12,2.188 -0.431,0.408 -0.482,1.016 -0.686,1.553 -0.457,1.447 -0.916,2.872 -1.322,4.321 -0.203,0.89 -0.584,1.73 -0.839,2.593 -0.203,0.79 -0.585,1.5 -0.788,2.29 -0.126,0.384 -0.257,0.764 -0.391,1.145 l 7.223,-59.539 16.829,22.573 C 0.406,-0.591 0.115,-0.346 0,0"
             style="fill:#ff8500;fill-opacity:1;fill-rule:nonzero;stroke:none"
             id="path14167" />
        </g>
        <g
           id="g14169"
           transform="translate(275.3838,324.751)">
          <path
             d="m 0,0 -7.59,-10.181 c 0.831,0.21 1.48,0.855 2.247,1.24 0.255,0.151 0.585,0.1 0.89,0.075 0.585,-0.79 1.093,-1.678 1.271,-2.671 0.457,-1.322 0.635,-2.695 1.119,-3.993 0.331,-0.634 0.331,-1.397 0.662,-2.032 0.483,-1.577 1.042,-3.103 1.728,-4.603 0.306,-0.483 0.534,-1.044 0.56,-1.627 0,-0.483 0.686,-0.688 0.559,-1.247 -0.127,-0.051 -0.254,-0.102 -0.382,-0.152 -0.227,-0.611 0.051,-1.246 0.154,-1.88 0.101,-0.563 0.101,-1.146 0.304,-1.705 0.078,-0.738 0.153,-1.501 0.305,-2.264 0.179,-0.866 0.23,-1.753 0.407,-2.62 0.33,-1.5 0.712,-3 0.891,-4.526 0.305,-1.067 0.381,-2.184 0.661,-3.279 0.178,-0.662 0.178,-1.349 0.355,-2.01 0.255,-1.244 0.738,-2.567 0.28,-3.84 -0.356,-0.506 -0.508,-1.169 -1.043,-1.525 -0.482,-0.075 -1.092,0.076 -1.448,-0.354 -0.967,-1.019 -1.603,-2.341 -2.773,-3.181 -0.33,-0.228 -0.635,-0.458 -0.94,-0.686 -0.839,-0.457 -1.729,-0.787 -2.518,-1.297 -0.33,-0.229 -0.559,-0.558 -0.89,-0.736 -0.584,-0.332 -1.22,-0.56 -1.754,-0.967 -0.484,-0.356 -0.991,-0.711 -1.576,-0.941 -0.662,-0.307 -1.399,-0.357 -2.06,-0.661 -0.406,-0.203 -0.941,-0.203 -1.298,-0.558 -0.457,-0.383 -0.991,-0.689 -1.5,-1.018 -0.178,-0.127 -0.432,-0.077 -0.635,-0.077 -0.611,1.17 -0.992,2.57 -2.035,3.482 -0.533,0.434 -1.093,0.842 -1.601,1.323 -0.636,0.636 -1.373,1.146 -2.086,1.678 -1.068,0.663 -2.008,1.449 -3.102,2.062 -0.508,0.304 -0.967,0.736 -1.525,0.963 -0.864,0.409 -1.73,0.867 -2.67,0.943 -0.763,0.076 -1.628,0.076 -2.289,-0.406 -0.483,-0.255 -0.788,-0.688 -1.196,-1.018 -0.304,-0.076 -0.711,-0.127 -0.864,0.178 -0.457,0.61 -0.839,1.296 -1.322,1.882 -0.533,0.56 -1.042,1.143 -1.526,1.729 -0.074,0.092 -0.156,0.178 -0.241,0.262 L -51.3,-68.811 26.143,-102.847 Z"
             style="fill:#fe9400;fill-opacity:1;fill-rule:nonzero;stroke:none"
             id="path14171" />
        </g>
        <g
           id="g14173"
           transform="translate(177.7305,250.6787)">
          <path
             d="m 0,0 c 0.313,-0.949 0.521,-1.916 0.946,-2.841 0.306,-0.684 0.51,-1.424 0.967,-2.057 1.119,-1.5 1.983,-3.18 3.025,-4.757 0.458,-0.839 0.865,-1.705 1.501,-2.415 0.535,-0.611 1.245,-0.993 1.832,-1.576 0.38,-0.383 0.584,-0.892 0.863,-1.348 0.331,-0.483 0.611,-1.019 0.866,-1.552 0.635,-0.993 1.194,-2.059 1.855,-3.025 0.484,-0.993 1.042,-1.959 1.577,-2.9 0.559,-0.712 0.839,-1.601 1.322,-2.366 0.381,-0.786 0.891,-1.5 1.246,-2.286 0.28,-0.585 0.559,-1.145 0.864,-1.729 0.331,-0.587 0.535,-1.247 0.815,-1.859 0.177,-0.481 0.458,-0.964 0.483,-1.525 0.007,-0.075 0.01,-0.149 0.013,-0.223 L 46.354,5.262 Z"
             style="fill:#f04f00;fill-opacity:1;fill-rule:nonzero;stroke:none"
             id="path14175" />
        </g>
        <g
           id="g14177"
           transform="translate(224.084,255.9404)">
          <path
             d="m 0,0 -28.179,-37.721 c 0.038,-0.797 -0.068,-1.631 0.165,-2.421 0.28,-1.118 1.018,-2.035 1.704,-2.95 0.661,-1.142 1.45,-2.212 1.881,-3.459 0.382,-1.066 0.839,-2.057 1.17,-3.127 0.89,-2.618 1.424,-5.365 2.111,-8.058 0.204,-1.197 0.432,-2.418 0.737,-3.614 0.357,-1.525 0.534,-3.051 0.865,-4.577 0.357,-1.142 0.406,-2.337 0.712,-3.507 0.482,-2.24 1.118,-4.424 1.5,-6.69 0.102,-0.481 0.306,-0.964 0.382,-1.447 0.202,-1.324 0.558,-2.593 0.914,-3.865 0.281,-1.5 0.738,-2.975 1.144,-4.475 0.255,-0.715 0.306,-1.476 0.637,-2.164 0.33,-0.659 0.381,-1.397 0.687,-2.083 0.381,-1.019 0.61,-2.086 0.94,-3.103 0.381,-1.246 0.789,-2.518 0.941,-3.815 0.101,-0.786 0.508,-1.475 0.763,-2.21 0.28,-0.611 0.381,-1.273 0.636,-1.883 0.228,-0.611 0.381,-1.27 0.482,-1.959 0.037,-0.11 0.067,-0.221 0.097,-0.332 l 9.465,0.12 z"
             style="fill:#f64e00;fill-opacity:1;fill-rule:nonzero;stroke:none"
             id="path14179" />
        </g>
        <g
           id="g14181"
           transform="translate(365.1582,177.7568)">
          <path
             d="m 0,0 37.136,26.782 c 0.131,0.536 0.296,1.061 0.329,1.597 0.051,0.763 0.459,1.424 0.534,2.187 0.152,1.092 0.687,2.085 0.89,3.155 0.203,0.76 0.433,1.525 0.79,2.21 0.431,0.79 0.584,1.652 0.964,2.442 0.255,0.711 0.638,1.349 0.739,2.109 0.127,0.917 0.355,1.782 0.609,2.671 0.253,1.171 0.714,2.263 1.094,3.381 0.788,1.731 1.374,3.512 2.34,5.139 0.152,0.329 0.305,0.659 0.458,0.991 0.406,0.737 0.684,1.551 1.168,2.237 0.789,1.602 1.706,3.178 2.594,4.73 0.663,0.79 1.653,1.17 2.467,1.778 0.89,0.791 1.119,2.063 1.246,3.181 0.102,0.813 0.661,1.396 1.017,2.085 0.356,0.837 0.686,1.678 0.864,2.567 0.076,0.434 0.254,0.839 0.356,1.273 0.205,1.295 0.587,2.542 0.841,3.813 0.088,0.403 0.056,0.807 0.034,1.209 L 0.493,90.021 Z"
             style="fill:#fbb94f;fill-opacity:1;fill-rule:nonzero;stroke:none"
             id="path14183" />
        </g>
        <g
           id="g14185"
           transform="translate(365.1582,177.7568)">
          <path
             d="M 0,0 0.493,90.021 -63.631,44.147 Z"
             style="fill:#ffab15;fill-opacity:1;fill-rule:nonzero;stroke:none"
             id="path14187" />
        </g>
        <g
           id="g14189"
           transform="translate(224.084,255.9404)">
          <path
             d="m 0,0 -0.246,-103.34 77.689,69.304 z"
             style="fill:#fd7700;fill-opacity:1;fill-rule:nonzero;stroke:none"
             id="path14191" />
        </g>
        <g
           id="g14193"
           transform="translate(395.4443,165.626)">
          <path
             d="m 0,0 c 0.031,0.256 0.067,0.511 0.11,0.765 0.102,1.018 0.204,2.037 0.254,3.052 0.051,1.5 0.458,2.949 0.788,4.398 0.254,1.221 0.611,2.391 0.816,3.613 0.305,1.143 0.432,2.286 0.71,3.432 0.637,2.671 1.145,5.392 1.576,8.111 0.305,1.399 0.408,2.823 0.74,4.22 0.126,0.79 0.304,1.553 0.38,2.316 0.051,0.507 0.254,0.965 0.304,1.449 0.128,2.288 0.74,4.476 1.019,6.713 0.026,0.286 0.085,0.567 0.153,0.844 L -30.286,12.131 Z"
             style="fill:#f59959;fill-opacity:1;fill-rule:nonzero;stroke:none"
             id="path14195" />
        </g>
        <g
           id="g14197"
           transform="translate(308.9258,150.6279)">
          <path
             d="M 0,0 56.232,27.129 -7.398,71.276 Z"
             style="fill:#ff8800;fill-opacity:1;fill-rule:nonzero;stroke:none"
             id="path14199" />
        </g>
        <g
           id="g14201"
           transform="translate(301.5273,221.9043)">
          <path
             d="M 0,0 -77.689,-69.304 7.398,-71.276 Z"
             style="fill:#fd7400;fill-opacity:1;fill-rule:nonzero;stroke:none"
             id="path14203" />
        </g>
        <g
           id="g14205"
           transform="translate(223.8379,152.6006)">
          <path
             d="m 0,0 76.949,-51.3 8.139,49.327 z"
             style="fill:#fa6200;fill-opacity:1;fill-rule:nonzero;stroke:none"
             id="path14207" />
        </g>
        <g
           id="g14209"
           transform="translate(214.373,152.4805)">
          <path
             d="m 0,0 c 0.314,-1.148 0.367,-2.347 0.691,-3.505 0.255,-0.842 0.205,-1.731 0.433,-2.596 0.275,-2.544 0.342,-5.125 0.562,-7.682 L 9.465,0.12 Z"
             style="fill:#f03600;fill-opacity:1;fill-rule:nonzero;stroke:none"
             id="path14211" />
        </g>
        <g
           id="g14213"
           transform="translate(308.9258,150.6279)">
          <path
             d="M 0,0 45.381,-57.219 56.232,27.129 Z"
             style="fill:#ff7200;fill-opacity:1;fill-rule:nonzero;stroke:none"
             id="path14215" />
        </g>
        <g
           id="g14217"
           transform="translate(354.3066,93.4092)">
          <path
             d="m 0,0 40.912,20.766 c 0.005,0.387 0.012,0.774 0.03,1.157 0.203,1.83 -0.152,3.661 -0.101,5.468 0.076,1.374 0.051,2.77 -0.025,4.119 -0.077,0.888 0,1.756 -0.153,2.617 -0.076,0.484 -0.127,0.968 -0.127,1.45 0.026,1.043 -0.076,2.112 -0.126,3.152 -0.204,1.019 -0.076,2.063 -0.152,3.079 -0.102,1.194 -0.153,2.416 0,3.636 0.05,0.558 0.024,1.171 0.076,1.729 0.151,2.111 0.05,4.221 0.076,6.305 -0.102,1.272 -0.128,2.544 -0.102,3.79 0.026,1.578 -0.102,3.179 0.076,4.73 0.254,1.652 0.051,3.355 0.279,5.008 0.265,1.728 0.261,3.492 0.475,5.211 L 10.852,84.348 Z"
             style="fill:#fc741c;fill-opacity:1;fill-rule:nonzero;stroke:none"
             id="path14219" />
        </g>
        <g
           id="g14221"
           transform="translate(396.8389,93.3145)">
          <path
             d="m 0,0 c -0.015,0.108 -0.03,0.217 -0.039,0.327 -0.076,0.89 -0.279,1.781 -0.356,2.669 -0.126,0.765 -0.126,1.551 -0.278,2.316 -0.127,0.66 -0.127,1.323 -0.254,1.957 -0.154,0.79 -0.103,1.55 -0.18,2.34 -0.101,0.812 -0.254,1.603 -0.281,2.413 -0.1,2.266 -0.405,4.552 -0.253,6.818 0.016,0.676 0.013,1.35 0.021,2.02 L -42.532,0.095 Z"
             style="fill:#f26238;fill-opacity:1;fill-rule:nonzero;stroke:none"
             id="path14223" />
        </g>
        <g
           id="g14225"
           transform="translate(300.7871,101.3008)">
          <path
             d="M 0,0 53.52,-7.892 8.139,49.327 Z"
             style="fill:#fa6800;fill-opacity:1;fill-rule:nonzero;stroke:none"
             id="path14227" />
        </g>
        <g
           id="g14229"
           transform="translate(223.8379,152.6006)">
          <path
             d="m 0,0 -7.779,-13.903 c 0.044,-0.508 0.091,-1.016 0.15,-1.522 0.23,-1.221 0.357,-2.442 0.331,-3.688 -0.025,-0.761 0.127,-1.527 0.127,-2.313 -0.051,-1.474 0.178,-2.924 0.33,-4.373 0.051,-0.689 0.28,-1.323 0.331,-2.012 0.076,-0.989 0.331,-1.982 0.331,-3 0,-1.194 0.33,-2.337 0.432,-3.534 0.077,-0.61 0.28,-1.195 0.305,-1.829 0.152,-0.918 0.381,-1.857 0.458,-2.798 0.024,-1.42 0.228,-2.839 0.25,-4.28 L 76.949,-51.3 Z"
             style="fill:#f64d00;fill-opacity:1;fill-rule:nonzero;stroke:none"
             id="path14231" />
        </g>
        <g
           id="g14233"
           transform="translate(405.0908,41.7168)">
          <path
             d="m 0,0 c -0.331,2.874 -0.714,5.773 -0.992,8.645 -0.022,0.13 -0.046,0.26 -0.068,0.391 L -14.218,0 Z"
             style="fill:#e24630;fill-opacity:1;fill-rule:nonzero;stroke:none"
             id="path14235" />
        </g>
        <g
           id="g14237"
           transform="translate(402.75,57.915)">
          <path
             d="m 0,0 c -0.178,0.813 -0.203,1.652 -0.481,2.44 -0.459,2.621 -0.995,5.239 -1.552,7.831 -0.153,0.816 -0.484,1.579 -0.585,2.392 -0.331,1.374 -0.434,2.798 -0.712,4.196 -0.076,0.863 -0.305,1.703 -0.356,2.569 -0.204,1.551 -0.458,3.101 -0.764,4.627 -0.102,1.373 -0.329,2.721 -0.507,4.092 -0.076,1.911 -0.534,3.766 -0.712,5.646 -0.045,0.551 -0.171,1.068 -0.242,1.606 l -42.532,0.095 6.687,-51.692 h 29.879 L 1.28,-7.162 C 1.061,-5.873 0.794,-4.6 0.588,-3.307 0.332,-2.212 0.256,-1.092 0,0"
             style="fill:#f2500e;fill-opacity:1;fill-rule:nonzero;stroke:none"
             id="path14239" />
        </g>
        <g
           id="g14241"
           transform="translate(264.7129,41.7168)">
          <path
             d="M 0,0 H 51.192 L 36.074,59.584 Z"
             style="fill:#e94c00;fill-opacity:1;fill-rule:nonzero;stroke:none"
             id="path14243" />
        </g>
        <g
           id="g14245"
           transform="translate(213.8701,57.9658)">
          <path
             d="m 0,0 c -0.28,-1.092 -0.331,-2.187 -0.586,-3.281 -0.329,-1.449 -0.304,-2.95 -0.457,-4.425 -0.076,-1.703 -0.331,-3.406 -0.305,-5.134 -0.152,-1.12 -0.279,-2.265 -0.177,-3.408 H 6.853 L 0.925,4.27 C 0.595,2.848 0.216,1.437 0,0"
             style="fill:#dd1c00;fill-opacity:1;fill-rule:nonzero;stroke:none"
             id="path14247" />
        </g>
        <g
           id="g14249"
           transform="translate(219.1035,109.3486)">
          <path
             d="m 0,0 c 0.002,-0.082 0.005,-0.164 0.005,-0.246 0.102,-1.627 0.306,-3.229 0.33,-4.858 0,-0.585 -0.101,-1.143 -0.076,-1.703 0.076,-1.629 -0.102,-3.256 -0.178,-4.882 -0.051,-0.992 -0.254,-1.957 -0.279,-2.925 -0.052,-0.89 -0.204,-1.754 -0.128,-2.644 0.051,-0.864 0.051,-1.73 0.153,-2.592 0.127,-1.045 -0.052,-2.113 0.026,-3.155 0,-1.118 0.177,-2.212 0.101,-3.332 -0.255,-1.374 -0.356,-2.745 -0.636,-4.093 -0.177,-1.194 -0.382,-2.365 -0.559,-3.56 -0.432,-2.364 -1.043,-4.704 -1.628,-7.018 -0.152,-0.839 -0.508,-1.654 -0.61,-2.491 -0.077,-0.638 -0.356,-1.222 -0.457,-1.832 -0.106,-0.598 -0.235,-1.191 -0.373,-1.782 l 5.929,-20.518 43.989,-0.001 36.075,59.584 z"
             style="fill:#ed4100;fill-opacity:1;fill-rule:nonzero;stroke:none"
             id="path14251" />
        </g>
        <g
           id="g14253"
           transform="translate(300.7871,101.3008)">
          <path
             d="m 0,0 15.118,-59.584 h 5.766 L 53.52,-7.892 Z"
             style="fill:#f55e00;fill-opacity:1;fill-rule:nonzero;stroke:none"
             id="path14255" />
        </g>
        <g
           id="g14257"
           transform="translate(321.6709,41.7168)">
          <path
             d="M 0,0 H 39.323 L 32.636,51.692 Z"
             style="fill:#f15700;fill-opacity:1;fill-rule:nonzero;stroke:none"
             id="path14259" />
        </g>
      </g>
    </g>
  </g>
</svg>
