<?xml version="1.0" encoding="UTF-8"?>
<!DOCTYPE svg PUBLIC "-//W3C//DTD SVG 1.1//EN" "http://www.w3.org/Graphics/SVG/1.1/DTD/svg11.dtd">
<svg version="1.1" xmlns="http://www.w3.org/2000/svg" xmlns:xlink="http://www.w3.org/1999/xlink" x="0" y="0" width="280.68" height="278.17" viewBox="0, 0, 280.68, 278.17">
  <defs>
    <clipPath id="Clip_1">
      <path d="M3.134,274.52 L276.734,274.52 L276.734,3.32 L3.134,3.32 L3.134,274.52 z"/>
    </clipPath>
  </defs>
  <g id="Layer_1">
    <g clip-path="url(#Clip_1)">
      <path d="M165.962,274.168 C163.42,271.944 161.696,263.548 158.293,269.402 C157.658,274.213 158.475,273.851 154.617,273.487 L154.617,273.034 C145.586,270.81 146.403,255.832 147.855,250.205 C149.035,247.391 146.902,245.712 147.719,242.353 C152.53,230.28 151.214,229.282 147.265,216.484 C145.315,206.544 152.302,194.109 143,187.346 C141.82,187.346 141.82,187.346 136.965,186.439 C133.063,192.067 136.739,197.831 136.421,204.365 C134.469,214.94 135.467,222.338 142.91,231.279 C144.407,234.683 145.722,238.088 141.366,239.449 C141.412,239.721 141.458,240.038 141.548,240.356 C149.035,249.524 135.331,260.78 128.661,265.091 C127.527,266.362 126.346,268.631 124.713,269.04 C118.36,261.914 118.27,257.467 108.83,262.958 C108.195,263.593 107.788,264.184 106.879,264.184 C103.294,259.871 112.778,245.44 116.137,242.171 C116.908,233.139 126.119,227.195 124.168,217.981 C122.354,212.672 119.177,208.451 118.588,203.322 C118.588,198.692 119.494,194.109 119.494,189.706 C118.542,182.581 112.915,168.149 107.152,164.472 C106.017,164.291 104.928,164.155 103.84,164.019 C100.345,171.87 94.4,176.953 92.404,185.305 C92.722,196.333 94.4,196.333 83.737,197.603 C80.47,199.101 77.656,202.051 74.479,201.416 C73.936,200.417 73.936,200.417 73.436,198.92 C73.209,198.874 73.027,198.828 72.846,198.828 C70.894,200.417 69.035,202.278 66.493,201.779 C66.04,206.18 64.723,210.947 64.723,215.576 C64.859,215.713 73.708,211.809 75.569,213.67 C79.018,214.351 80.696,215.032 83.282,218.48 C91.45,219.071 93.403,222.428 93.902,231.143 C90.09,242.217 80.288,241.4 72.528,235.274 C72.029,235.228 71.531,235.182 71.03,235.136 C65.586,243.533 58.189,246.392 49.068,241.49 C46.663,239.585 46.708,238.041 46.119,235.545 C44.303,235.092 42.534,234.092 41.354,234.092 C34.048,241.808 26.879,237.86 25.653,228.874 C23.566,228.874 20.344,230.961 18.665,231.824 C12.493,233.003 6.004,233.185 4.053,226.604 C3.554,218.798 6.595,220.25 10.723,216.937 C10.723,208.041 26.515,200.962 32.005,208.678 C32.279,208.904 33.912,210.629 34.865,210.629 C37.541,206.861 43.033,200.689 44.257,196.514 C41.853,196.514 40.355,193.155 39.766,191.795 C39.766,186.439 42.579,184.487 47.434,183.534 C50.021,174.003 44.122,161.704 39.902,154.125 C34.274,152.627 33.775,149.632 34.638,144.594 C35.228,143.414 34.32,135.744 34.274,134.474 C34.093,134.518 33.957,134.564 33.821,134.609 C30.146,142.37 27.422,142.733 19.118,143.777 C17.757,142.869 18.619,141.734 19.209,141.145 C21.205,133.565 20.434,127.665 26.152,122.355 C26.198,122.129 26.288,121.947 26.379,121.766 C17.213,117.952 27.558,108.876 31.235,105.881 C23.021,99.799 22.658,81.326 22.658,72.296 C23.384,69.301 27.65,53.417 31.099,53.825 C31.28,54.278 31.28,54.278 31.143,55.187 C27.241,65.443 28.739,89.045 38.041,96.668 C43.396,92.946 44.485,92.492 50.884,92.129 C47.299,72.976 48.433,54.869 61.546,39.617 C62.319,39.027 64.406,36.531 64.859,39.299 C55.013,56.001 56.465,69.797 68.218,84.866 C68.898,86 69.578,87.136 70.305,88.316 C74.661,89.677 88.32,71.659 90.997,69.345 C95.989,63.037 101.343,56.365 105.699,49.739 C115.955,35.851 129.342,13.52 147.945,9.572 C158.518,9.798 170.951,12.068 180.618,17.65 C182.661,19.692 186.971,20.419 189.421,23.187 C211.293,36.304 224.317,64.806 237.976,86.274 C238.43,86.319 238.885,86.364 239.338,86.41 C239.474,86.228 239.61,86.092 239.791,85.956 C250.274,81.825 256.401,73.656 261.936,64.125 C263.842,59.86 268.743,48.196 265.476,44.065 C249.865,38.983 255.447,20.965 245.691,17.425 C245.328,17.016 244.964,16.654 244.602,16.29 C245.872,12.932 250.364,16.29 252.77,15.836 C251.862,12.205 249.457,10.208 246.643,9.21 C246.598,9.028 246.598,8.892 246.598,8.756 C244.285,8.03 242.152,7.122 240.744,5.715 C241.153,3.265 243.558,4.172 245.827,4.126 C261.391,6.169 287.44,29.088 271.92,44.611 C271.92,63.946 263.932,84.958 251.317,99.844 C251.317,100.615 251.908,101.25 252.543,102.249 C259.758,116.273 265.747,135.789 260.257,151.719 C255.356,161.16 245.872,170.1 244.692,180.448 C244.738,182.899 246.598,201.098 244.057,204.503 C243.466,208.223 242.968,211.809 243.921,216.03 C245.419,218.98 247.869,222.384 248.232,226.015 C252.952,226.604 254.676,238.587 254.676,243.08 C250.637,247.119 239.52,235.41 239.52,246.892 C239.383,247.028 239.248,247.164 239.156,247.345 C230.671,247.345 228.039,236.544 228.901,230.236 C226.95,229.873 226.359,229.645 226.359,227.966 C231.805,221.975 231.941,213.125 229.99,206.045 C229.99,204.729 230.217,204.638 230.443,203.776 C228.311,198.421 229.536,177.634 220.733,177.634 C219.144,178.315 217.556,178.996 216.014,179.722 C215.968,180.085 215.923,180.493 215.923,180.902 C208.708,194.835 208.889,207.542 210.341,222.974 C210.341,234.774 203.489,238.859 193.779,242.399 C188.06,242.399 192.1,230.689 183.069,234.683 C175.083,234.683 188.968,221.386 189.15,220.568 C196.637,215.032 201.266,212.309 196.865,203.459 C195.685,196.741 196.547,192.793 191.872,187.438 C191.782,187.165 191.691,186.893 191.601,186.666 C185.791,186.666 178.578,190.252 173.222,189.435 C173.086,189.616 172.996,189.798 172.904,189.98 L172.904,189.525 C172.633,189.479 172.405,189.435 172.179,189.389 C172.088,189.525 172.043,189.707 171.997,189.889 C169.637,189.934 167.278,190.024 164.918,190.116 C158.611,200.236 163.92,204.911 164.646,215.713 C164.373,223.427 163.648,225.788 168.457,232.187 C173.631,241.808 177.442,263.819 168.14,272.579 C167.596,273.715 167.187,274.168 165.962,274.168 z M43.352,217.3 L43.941,217.3 C48.706,212.534 49.886,212.081 57.01,211.627 C58.281,209.948 60.005,203.548 60.504,201.188 C56.92,199.872 53.107,201.324 50.611,198.828 C50.203,198.784 49.795,198.738 49.387,198.692 C47.072,201.008 39.857,213.442 39.857,215.848 C40.991,216.212 41.99,216.392 43.352,217.3" fill="#231F20"/>
      <path d="M155.072,270.991 C147.267,264.637 146.814,257.149 150.444,248.254 C151.351,247.573 153.166,245.576 154.21,245.802 C155.527,249.478 156.434,247.073 158.838,247.073 C163.739,253.609 165.055,247.209 170.954,248.389 C171.681,253.2 172.089,266.634 167.006,270.175 C162.287,267.814 161.743,260.281 156.479,268.222 C156.252,269.176 156.252,270.991 155.072,270.991" fill="#918F90"/>
      <path d="M124.85,265.772 C118.951,259.328 117.272,254.426 108.152,261.097 C108.65,255.288 112.416,248.435 116.41,244.214 C116.999,244.214 117.363,245.258 119.132,245.258 C120.947,243.262 122.263,240.084 125.167,239.63 C125.167,242.988 123.715,243.805 127.3,244.532 C128.299,243.533 127.981,243.034 129.251,242.807 C129.251,244.713 130.523,245.62 132.746,245.44 C133.018,245.077 133.335,244.713 133.653,244.35 C135.151,244.35 136.74,246.165 139.825,246.165 C140.914,245.576 140.914,245.576 141.504,245.53 C139.28,256.105 133.972,257.557 126.302,264.592 C125.666,265.5 125.666,265.5 124.986,265.954 C124.941,265.862 124.895,265.818 124.85,265.772" fill="#918F90"/>
      <path d="M163.694,248.162 C159.654,247.437 159.428,237.315 157.25,244.623 C157.068,244.668 156.886,244.713 156.751,244.759 C155.798,238.36 152.213,245.44 149.491,245.984 C149.263,242.489 151.759,238.45 152.848,235.546 C154.118,227.331 150.851,222.293 149.082,214.941 C148.718,204.094 153.166,193.701 144.77,185.305 C131.657,185.531 118.77,172.869 110.963,164.201 C108.331,162.658 106.971,162.34 104.429,161.841 C104.565,161.024 104.701,160.252 104.882,159.481 C108.694,158.119 117.407,151.312 116.998,146.545 L116.545,146.545 C114.185,150.04 109.103,156.394 105.064,157.393 C104.52,156.849 104.792,156.485 104.792,156.122 C106.336,154.988 113.232,147.318 113.05,146.591 C112.778,146.954 112.778,146.954 112.325,147.045 C112.597,145.547 113.823,142.098 112.597,141.417 C111.463,141.962 109.829,150.902 106.426,151.719 C106.426,152.037 105.2,153.399 104.611,153.536 C103.658,149.678 97.713,139.103 92.812,142.007 C96.533,144.64 101.525,147.318 102.07,152.945 C102.841,154.125 102.115,155.124 102.296,156.576 C102.388,156.621 102.478,156.667 102.614,156.712 C103.84,167.422 93.992,173.64 90.907,182.899 C90.407,186.031 91.224,192.612 89.772,194.699 C87.64,195.062 85.507,195.426 83.419,195.789 C81.694,196.56 76.84,199.737 75.614,199.51 C75.569,198.784 75.523,198.103 75.478,197.422 C77.203,196.378 81.967,194.336 82.511,192.113 C83.51,192.067 88.139,190.162 89.227,189.525 C89.681,185.849 89.409,182.536 90.136,179.269 C96.171,170.599 96.125,171.735 89.772,163.656 C89.636,163.61 89.545,163.566 89.455,163.52 L89.455,163.065 C90.725,162.34 91.951,162.067 93.085,160.933 C92.994,160.797 92.903,160.661 92.812,160.569 C89.137,160.797 75.523,168.784 77.656,173.051 C77.928,173.051 78.246,173.051 78.563,173.095 C79.29,171.689 80.242,169.647 81.74,169.283 C81.74,177.09 86.006,188.209 78.201,193.928 C74.888,195.471 69.806,199.827 66.766,200.146 C67.491,195.016 68.082,190.024 69.397,185.305 C71.893,183.444 70.123,180.675 69.125,178.951 C63.725,176.591 64.178,184.215 64.27,187.438 C66.13,188.663 62.363,198.421 61.184,199.601 C57.736,199.827 53.424,199.419 51.655,196.877 C44.939,195.562 36.589,191.885 45.438,185.803 C45.983,185.759 46.527,185.713 47.117,185.667 C47.207,189.798 46.89,193.201 51.337,195.743 C51.565,195.607 49.068,189.162 48.977,188.618 C49.84,178.315 49.114,172.96 46.572,163.656 C37.951,147.635 34.003,141.553 37.27,123.807 C40.219,124.443 41.943,125.078 43.351,121.311 C47.48,122.309 47.163,119.178 50.429,121.085 C53.061,121.085 55.966,119.632 55.421,116.636 C59.278,117.317 62.863,116.909 62.863,112.371 C63.362,112.415 64.088,112.96 65.041,112.824 C65.041,112.235 64.859,112.098 64.815,110.737 C63.771,110.419 63.679,108.058 63.725,107.56 C72.891,102.34 72.846,100.706 71.984,90.767 C74.343,88.543 77.429,87.318 79.471,84.595 C98.44,66.532 113.005,42.205 130.201,22.237 C133.151,19.423 136.374,17.153 139.687,14.794 C152.618,7.895 165.96,14.431 178.984,18.968 C191.917,26.049 201.219,35.08 210.658,47.017 C214.47,53.461 220.324,59.498 223.818,66.85 C229.4,76.563 235.026,86.048 241.516,95.76 C245.554,103.158 248.776,109.784 251.044,118.589 C251.226,121.222 251.09,123.989 252.043,126.895 C257.397,125.578 248.548,104.111 248.14,103.022 C247.052,100.888 241.696,93.082 241.878,91.812 C251.408,98.166 256.762,118.045 259.484,127.983 C261.027,142.734 260.347,147.863 252.542,160.479 C248.14,166.016 243.376,171.826 242.423,179.269 C242.513,187.211 243.785,195.426 242.105,203.595 C240.743,207.68 240.879,211.401 241.788,215.849 C242.377,217.12 247.006,224.789 245.962,226.378 C244.827,226.243 243.739,225.606 243.239,225.606 C242.513,226.469 242.423,226.968 241.969,228.102 C238.792,228.102 238.339,223.565 236.433,228.33 L235.843,228.33 C235.117,227.15 235.435,226.015 234.936,225.017 C232.212,225.38 231.623,228.058 228.719,228.284 C228.945,227.513 230.171,225.562 231.351,222.838 C233.029,216.802 232.984,212.944 232.258,206.953 C232.803,206.862 233.438,207.135 234.482,207.226 C234.301,204.957 232.032,202.732 231.351,200.6 C230.488,191.795 230.352,187.982 226.904,180.312 C229.218,180.086 232.485,178.179 234.8,176.818 C232.212,176.818 229.807,178.724 227.085,178.724 C226.812,178.951 226.812,178.951 226.54,179.859 C225.678,179.088 225.496,178.724 225.406,178.179 C229.717,176.546 239.655,172.189 241.606,167.287 C236.296,169.919 233.62,175.501 226.632,176.273 C226.54,176.182 226.495,176.092 226.45,176.047 C229.626,174.186 245.418,164.882 244.737,162.023 C243.739,162.522 243.511,162.748 242.876,163.384 C242.786,163.203 242.74,163.066 242.695,162.93 C245.191,160.434 255.899,148.361 252.905,144.912 C251.316,147.182 246.371,157.03 243.557,158.437 C233.983,171.644 214.969,178.543 199.859,182.491 C189.786,184.851 177.17,188.209 167.006,187.892 C167.052,187.62 167.142,187.347 167.233,187.121 C170.319,182.628 191.556,156.077 189.105,151.175 L188.652,151.175 C185.339,154.488 181.029,163.701 178.124,168.647 C172.089,177.497 152.078,194.88 161.334,208.133 C162.514,214.306 161.153,220.75 162.832,227.195 C166.281,233.231 170.273,237.77 170.273,245.666 C167.823,248.118 167.959,241.628 165.055,243.669 C165.055,243.669 164.965,249.434 163.694,248.162" fill="#A4835B"/>
      <path d="M236.615,244.532 C231.17,242.127 227.63,229.146 233.711,227.966 C233.892,229.781 234.391,230.418 236.434,230.916 C237.977,229.555 237.977,229.555 238.249,229.101 C240.427,229.464 242.196,231.506 244.012,228.557 C245.237,228.421 247.234,227.876 248.549,227.876 C249.548,230.19 253.495,239.268 252.179,241.945 C244.964,241.401 241.108,235.955 237.114,244.441 C236.933,244.441 236.752,244.486 236.615,244.532" fill="#918F90"/>
      <path d="M137.42,243.896 C135.56,243.034 134.47,241.037 133.336,241.037 C132.701,241.672 132.429,242.035 132.02,243.079 C130.386,243.351 131.521,239.357 129.252,238.904 C128.617,239.539 128.027,240.174 127.437,240.809 C127.437,232.55 120.494,240.31 118.498,242.626 C118.498,234.728 125.713,230.008 126.575,222.52 C126.212,212.762 118.906,208.041 121.311,198.602 C121.447,194.109 121.447,190.024 121.084,186.076 C123.898,187.074 126.666,189.298 130.16,189.298 C130.25,189.161 130.342,189.025 130.478,188.935 C126.983,187.663 120.267,185.984 120.041,181.99 C121.946,182.354 126.166,185.713 129.252,187.028 C132.429,187.937 132.429,187.937 132.882,188.254 C132.656,195.651 134.788,200.962 133.246,208.904 C132.792,216.392 134.426,220.432 137.647,227.829 C138.51,229.01 143.637,234.547 141.867,236.907 C139.87,236.907 139.598,235.909 138.646,235.454 C138.328,235.591 138.01,235.773 137.738,235.954 C137.738,238.54 140.369,240.629 140.369,242.942 C139.281,244.032 138.691,243.896 137.42,243.896" fill="#A4835B"/>
      <path d="M58.916,242.852 C53.56,242.217 49.069,241.9 47.481,236.59 C47.481,231.688 46.527,231.824 51.655,231.824 C51.927,231.37 46.708,229.691 46.209,229.373 C39.493,222.656 43.714,216.302 51.337,213.035 C52.608,213.035 55.058,212.444 56.42,213.125 C56.42,213.76 56.192,214.487 55.875,215.168 L53.47,215.168 C53.289,215.35 53.152,215.531 53.017,215.713 C53.198,215.894 56.965,217.391 58.144,217.846 C57.962,216.756 57.373,216.392 57.009,216.03 C58.008,206.771 63.817,196.923 66.176,188.163 L66.629,188.163 C66.085,191.16 57.736,221.067 57.554,221.205 C55.693,221.205 54.968,221.523 53.606,222.112 C53.56,222.34 53.516,222.567 53.516,222.839 C53.652,222.975 53.788,223.111 53.924,223.292 C58.099,221.114 58.189,224.245 61.774,224.245 C62.183,223.837 62.092,223.474 62.092,223.111 C59.687,221.886 58.96,222.34 58.96,220.251 C60.821,209.904 63.998,199.648 67.128,189.844 C67.174,189.889 67.22,189.935 67.31,189.981 C66.811,195.562 64.043,220.614 61.956,221.388 C61.91,221.659 61.865,221.931 61.865,222.204 C62.137,222.476 64.316,221.659 65.404,221.659 C65.994,221.841 67.446,222.703 68.49,222.522 L68.49,222.068 C67.22,220.797 65.632,220.797 64.36,220.57 C64.406,219.253 64.452,217.938 64.498,216.622 C64.86,216.667 65.223,216.757 65.586,216.849 C71.212,213.853 79.2,212.536 82.512,220.162 C92.223,218.029 94.809,228.784 90.136,236.001 C83.964,240.312 80.379,239.088 74.661,235.911 C74.571,235.683 74.525,235.456 74.479,235.23 C75.16,234.957 75.841,234.639 76.477,234.004 C76.34,233.868 72.574,234.094 72.211,234.094 C71.893,233.732 71.576,233.369 71.304,233.005 L70.85,233.005 C67.265,237.499 66.085,242.355 58.916,242.854" fill="#BDBCBC"/>
      <path d="M193.325,239.81 C188.741,233.366 193.007,231.187 183.205,232.05 C185.157,225.423 189.151,223.244 195.775,222.519 C195.231,227.511 196.547,225.696 199.541,225.105 C200.087,228.646 202.718,231.641 206.03,227.875 C207.845,228.238 205.986,231.459 205.486,232.821 C202.537,235.772 197.409,239.129 193.325,239.81" fill="#918F90"/>
      <path d="M34.094,237.272 C28.286,235.819 27.288,232.552 27.06,227.378 C26.834,227.196 26.607,227.06 26.381,226.923 C17.486,232.824 0.605,234.321 6.777,219.934 C9.408,217.937 10.544,217.937 13.992,217.756 C14.265,217.484 14.129,216.939 14.129,216.849 C13.674,216.667 13.674,216.667 11.86,216.621 C12.313,209.496 20.845,204.958 27.469,207.136 C30.373,208.588 31.054,210.313 33.504,212.083 C33.504,213.762 31.1,213.535 30.147,213.58 C30.101,213.762 30.101,213.989 30.101,214.215 C30.465,214.397 30.465,214.397 33.958,214.942 C33.958,211.357 44.486,197.469 45.756,197.152 C45.802,197.196 45.848,197.288 45.892,197.378 C42.898,202.643 39.403,208.089 36.59,213.58 C33.732,216.939 35.138,216.303 30.918,216.076 C30.646,216.349 30.646,216.214 30.782,216.984 C32.007,216.984 34.503,218.119 35.365,217.983 C35.365,217.847 45.075,196.471 48.161,198.013 C48.161,199.193 37.452,219.253 36.544,220.161 C35.41,220.207 32.28,219.752 32.597,221.477 C34.094,222.204 38.133,219.708 39.403,222.885 L40.175,222.885 C40.311,222.658 40.448,222.43 40.629,222.204 C39.993,220.932 38.632,220.661 37.906,220.388 C38.088,219.48 38.088,219.48 38.994,217.392 C40.584,217.03 41.219,217.166 43.17,218.119 C39.813,224.065 41.944,227.015 46.709,231.28 C46.573,232.824 46.573,232.824 46.255,234.185 C43.124,234.185 43.488,232.688 41.808,231.735 C40.901,232.189 40.584,233.278 40.084,234.185 C38.223,236.272 36.771,236.773 34.094,237.272" fill="#BDBCBC"/>
      <path d="M202.853,227.741 C200.902,225.517 201.9,224.065 201.129,222.068 C200.674,221.931 200.267,221.795 199.858,221.659 C199.314,222.113 198.814,222.612 198.315,223.111 C198.315,222.43 198.633,221.613 198.679,221.024 C198.406,220.706 198.134,220.433 197.862,220.161 C195.729,220.297 194.004,221.16 192.144,221.024 C192.642,218.981 197,217.62 198.542,214.488 C203.76,206.682 199.722,208.316 198.224,199.965 C198.224,194.201 195.548,192.657 194.685,188.165 C199.223,188.392 203.488,187.303 208.026,186.259 C208.071,186.305 208.117,186.349 208.162,186.441 C204.123,188.664 201.99,188.801 197.862,189.163 C197.771,189.027 197.68,188.937 197.589,188.845 L196.954,188.845 C196.772,189.027 196.636,189.209 196.5,189.39 C196.636,189.618 196.772,189.844 196.954,190.117 C201.583,190.117 204.351,189.073 208.934,187.166 C208.979,186.531 208.979,186.531 208.752,185.896 C209.523,185.624 210.158,185.125 211.202,185.306 C206.937,196.379 205.848,208.861 208.071,221.024 C208.071,221.795 208.525,224.882 207.708,225.563 C207.209,224.701 207.209,224.11 207.164,223.566 C203.897,220.933 205.893,227.015 202.853,227.741" fill="#A4835B"/>
      <path d="M198.635,192.476 C198.589,192.294 198.543,192.113 198.543,191.976 C199.27,191.25 203.989,190.978 205.577,190.751 C205.532,190.887 205.487,191.068 205.441,191.25 C203.082,191.749 200.767,192.476 198.635,192.476" fill="#231F20"/>
      <path d="M61.502,191.885 C59.551,190.523 60.23,182.308 60.639,180.448 C63.816,175.002 65.494,171.643 72.664,175.229 C75.07,177.861 78.473,189.117 73.118,189.616 C72.438,185.395 74.934,181.991 72.074,177.589 C63.998,170.055 60.322,184.215 62.59,190.615 L62.59,191.522 C62.318,191.795 62.318,191.795 61.502,191.885" fill="#231F20"/>
      <path d="M130.022,191.885 C127.889,191.25 127.889,191.25 123.35,189.435 C123.306,189.207 123.26,188.98 123.26,188.799 C123.895,188.39 131.338,191.431 131.065,191.885 L130.022,191.885" fill="#231F20"/>
      <path d="M84.011,189.389 C84.238,187.891 84.238,187.891 84.556,187.12 C85.554,187.029 85.554,187.029 87.188,187.347 C87.188,187.574 87.232,187.8 87.278,188.027 C87.051,188.255 87.051,188.255 84.011,189.389" fill="#FFFFFF"/>
      <path d="M194.234,187.937 C194.142,187.438 194.052,186.983 193.962,186.529 C194.278,186.575 194.641,186.621 195.005,186.665 C194.823,187.074 194.687,187.482 194.551,187.891 C194.416,187.891 194.324,187.891 194.234,187.937" fill="#A4835B"/>
      <path d="M198.044,187.166 C197.273,187.03 196.502,186.894 195.73,186.803 C195.685,186.622 195.639,186.485 195.593,186.349 C201.539,185.941 206.485,183.036 212.111,182.447 C210.887,185.532 200.676,187.03 198.044,187.166" fill="#A4835B"/>
      <path d="M132.746,187.028 C128.072,185.666 122.491,183.126 119.949,179.404 C118.996,178.677 118.951,178.859 118.361,178.813 C118.179,178.132 118.043,177.451 117.908,176.816 C120.131,177.679 123.897,180.992 126.529,183.08 C127.709,183.579 132.882,185.304 133.563,186.665 C133.472,186.756 133.381,186.892 133.335,187.028 L132.746,187.028" fill="#A4835B"/>
      <path d="M86.915,186.575 C86.144,186.257 86.144,186.257 84.828,186.076 C84.828,184.624 84.873,183.216 84.919,181.809 C85.78,181.946 86.643,182.082 87.505,182.263 C87.55,183.171 87.096,186.529 86.915,186.575" fill="#FFFFFF"/>
      <path d="M66.176,186.257 C65.632,185.167 66.04,184.123 66.04,183.488 C66.629,183.579 67.22,183.669 67.855,183.805 C67.673,184.578 67.537,185.349 67.402,186.121 C66.992,186.165 66.585,186.211 66.176,186.257" fill="#785F42"/>
      <path d="M203.171,184.169 C203.125,184.079 203.08,184.033 203.035,183.988 C203.716,183.761 204.259,183.307 204.986,183.488 C204.441,184.079 203.58,184.169 203.171,184.169" fill="#A4835B"/>
      <path d="M129.386,183.263 C129.205,183.127 129.068,183.036 128.932,182.945 C129.386,182.808 129.386,182.808 129.749,183.036 C129.613,183.081 129.477,183.172 129.386,183.263" fill="#A4835B"/>
      <path d="M128.207,182.807 C127.572,182.308 127.39,182.217 127.299,181.809 C127.798,181.99 128.297,182.172 128.796,182.353 C128.751,182.445 128.706,182.581 128.706,182.717 C128.525,182.717 128.343,182.763 128.207,182.807" fill="#A4835B"/>
      <path d="M229.49,182.354 C229.308,182.218 229.172,182.082 229.036,181.946 C229.127,181.719 229.218,181.537 229.308,181.356 C231.124,181.174 232.939,179.313 234.618,179.313 C234.663,179.359 234.708,179.449 234.8,179.54 C233.392,180.447 231.124,182.354 229.49,182.354" fill="#231F20"/>
      <path d="M126.53,181.583 C125.35,180.856 123.852,179.994 123.489,179.268 C124.579,179.449 125.577,180.629 126.847,181.356 C126.712,181.401 126.62,181.492 126.53,181.583" fill="#A4835B"/>
      <path d="M87.368,181.445 C87.186,181.264 87.186,181.264 84.78,180.901 C84.826,178.813 84.554,177.451 84.69,176.544 C85.916,176.453 87.231,176.408 88.728,177.043 C88.82,177.407 87.957,181.808 87.368,181.445" fill="#FFFFFF"/>
      <path d="M120.947,177.815 C120.721,177.633 120.493,177.452 120.312,177.27 L121.083,177.27 C121.128,177.725 121.128,177.725 120.947,177.815" fill="#A4835B"/>
      <path d="M225.542,176.816 C225.588,176.635 225.633,176.453 225.724,176.271 C226.177,176.271 226.177,176.271 226.359,176.544 C226.087,176.635 225.815,176.726 225.542,176.816" fill="#A4835B"/>
      <path d="M89.183,176.453 C87.958,175.228 85.28,175.682 84.102,175.001 C83.965,173.867 83.874,172.777 83.783,171.688 C84.963,170.508 89.728,171.598 91.589,172.188 C91.634,172.369 91.725,172.551 91.815,172.732 C90.59,174.412 89.32,176.544 89.183,176.453" fill="#FFFFFF"/>
      <path d="M116.228,174.185 C116.138,173.913 116.046,173.64 115.956,173.368 C116.092,173.368 116.228,173.368 116.41,173.414 C116.681,173.958 116.681,173.958 116.545,174.185 L116.228,174.185" fill="#A4835B"/>
      <path d="M92.177,171.143 C91.587,170.825 91.587,170.825 87.821,170.19 C87.957,167.83 88.002,166.786 87.821,165.016 L88.41,165.016 C88.592,166.832 91.224,168.874 92.54,171.099 C92.313,171.235 92.313,171.235 92.177,171.143" fill="#FFFFFF"/>
      <path d="M84.011,170.147 C83.921,168.695 82.331,164.565 86.052,165.472 C86.052,165.608 86.098,165.744 86.144,165.926 C85.917,165.972 85.736,166.017 85.554,166.063 C85.736,166.107 85.917,166.199 86.144,166.289 C86.416,167.288 86.507,168.468 86.507,170.011 C85.599,170.465 84.42,170.147 84.011,170.147" fill="#FFFFFF"/>
      <path d="M70.715,162.068 C64.272,161.388 60.823,154.218 55.741,153.309 C53.881,151.449 54.379,150.178 51.203,148.589 C48.208,145.867 44.533,142.78 44.986,138.832 C46.392,138.832 48.934,141.554 50.75,142.87 C62.456,144.823 59.144,116.139 68.764,121.358 C70.852,123.265 72.348,124.308 73.664,127.349 C71.986,129.437 69.263,127.848 68.446,132.069 C70.079,132.069 71.078,132.161 73.029,133.113 C73.029,133.295 73.075,133.476 73.12,133.703 C71.849,133.385 67.221,132.251 67.675,134.611 C69.717,133.884 77.341,134.293 77.748,137.97 C75.389,137.97 67.675,132.115 66.631,137.515 C71.305,138.423 74.573,136.109 78.203,140.965 C78.747,142.962 78.565,145.412 78.475,147.772 C76.07,153.309 68.719,155.896 63.137,155.805 C63.137,157.621 69.672,160.57 71.623,161.842 C71.577,161.888 71.533,161.978 71.487,162.068 L70.715,162.068" fill="#231F20"/>
      <path d="M70.259,157.529 C70.077,157.483 70.077,157.483 69.851,156.711 C70.395,155.577 74.796,154.171 76.476,153.126 C77.292,152.082 80.605,146.273 80.833,146.137 C80.877,146.183 80.969,146.227 81.059,146.273 C81.331,152.037 75.931,157.529 70.259,157.529" fill="#231F20"/>
      <path d="M63.455,153.761 C63.183,153.671 62.91,153.579 62.684,153.535 C62.638,153.353 62.592,153.217 62.547,153.08 C65.815,151.854 63.183,148.541 61.776,147.634 C61.73,147.361 61.685,147.089 61.685,146.863 C65.089,142.914 69.399,153.761 63.455,153.761" fill="#231F20"/>
      <path d="M67.538,153.398 C67.674,148.723 67.402,146.818 63.59,145.138 C63.544,144.865 63.5,144.594 63.5,144.322 C64.498,143.096 65.223,141.235 65.632,139.919 C72.121,138.875 81.378,140.282 75.025,149.45 C72.303,151.265 70.487,152.445 67.538,153.398" fill="#FFFFFF"/>
      <path d="M38.633,152.672 C35.23,151.536 34.457,148.405 35.32,145.727 L35.773,145.727 C36.091,146.091 36.59,147.77 39.177,152.626 C38.995,152.626 38.815,152.626 38.633,152.672" fill="#A4835B"/>
      <path d="M61.322,151.493 C59.598,150.63 59.371,150.357 60.278,149.223 C61.276,149.223 62.819,149.178 62.456,151.13 C61.775,151.493 61.775,151.493 61.322,151.493" fill="#FFFFFF"/>
      <path d="M55.739,147.863 C53.697,147.726 50.157,145.866 49.84,144.459 C50.429,144.459 51.11,144.549 51.972,144.958 C62.818,144.958 59.732,126.849 66.629,122.901 C68.4,122.901 69.67,124.353 71.168,125.851 C71.122,125.896 71.076,125.986 71.03,126.078 C63.499,126.759 65.45,147.863 55.739,147.863" fill="#785F42"/>
      <path d="M21.388,141.416 C23.249,132.112 22.523,128.163 29.647,121.765 C30.646,120.222 30.191,118.133 32.142,117.68 C32.142,121.129 32.959,120.04 35.909,120.222 C36,120.811 36.136,121.447 36.272,122.083 C34.775,123.898 34.729,128.391 34.321,131.159 C29.648,136.832 29.013,140.418 21.388,141.416" fill="#A4835B"/>
      <path d="M39.266,122.72 C37.088,120.541 38.358,116.366 35.771,116.366 C35.318,116.82 35.318,116.82 34.547,118.363 C34.365,118.363 34.229,118.409 34.092,118.453 C35,105.246 28.602,124.263 24.927,118.726 C24.428,111.147 29.011,109.649 34.411,106.245 C35.454,99.211 44.756,91.404 52.107,94.355 C53.923,99.256 57.281,104.429 62.544,107.244 C62.771,108.741 62.771,108.741 62.771,109.966 C62.681,110.012 62.59,110.058 62.544,110.104 C58.869,106.426 61.002,113.643 60.321,114.641 C55.466,116.593 56.147,112.281 53.605,112.281 C52.107,113.778 54.649,117.728 52.38,119.044 C48.886,119.543 49.793,117.365 48.523,115.549 C48.023,115.458 47.57,115.368 47.116,115.322 C45.936,116.82 47.388,118.045 46.208,119.861 C43.258,119.861 44.213,118.045 43.396,116.185 C39.266,113.461 44.167,122.131 39.266,122.72" fill="#785F42"/>
      <path d="M97.805,122.129 C88.956,121.674 83.239,118.362 80.47,109.512 C78.065,107.696 76.341,109.602 76.069,106.924 C80.153,104.61 82.966,111.191 84.918,113.959 C92.451,121.493 99.211,121.493 108.242,115.865 C104.248,111.872 105.246,104.791 102.161,102.749 C92.314,102.658 86.596,103.067 78.564,98.846 C78.02,98.165 77.747,97.393 77.429,97.121 C77.611,96.259 77.566,96.123 78.428,95.941 C80.289,97.213 80.516,98.029 83.556,99.118 C90.362,102.976 102.796,97.076 105.881,104.066 C106.926,109.012 107.062,112.053 111.327,115.548 L111.327,116.319 C110.51,116.91 110.102,116.864 109.422,116.91 C109.013,120.63 100.345,121.72 97.805,122.129" fill="#231F20"/>
      <path d="M43.805,112.736 C42.126,112.1 42.443,111.692 42.126,110.693 C41.944,110.648 41.808,110.648 41.672,110.648 C39.04,113.643 38.814,111.6 38.814,108.741 C37.271,109.104 36.771,110.648 34.548,111.011 C34.548,107.425 35.909,104.929 38.632,102.842 C38.768,102.978 38.994,102.932 38.994,103.613 C36.999,105.384 35.864,106.608 35.683,109.513 C35.864,109.513 36.045,109.513 36.227,109.559 C37.452,108.561 38.042,107.335 39.403,106.564 C39.903,107.063 39.857,109.559 39.857,110.648 L40.448,110.648 C41.037,109.649 41.626,108.696 42.262,107.744 C42.489,107.698 42.761,107.698 43.034,107.698 C43.034,112.509 45.211,113.144 45.983,107.834 C46.119,107.744 46.301,107.652 46.483,107.562 C47.979,108.561 45.983,110.421 49.84,110.784 C50.067,110.557 50.293,110.33 50.521,110.104 C50.203,108.832 49.886,108.197 49.432,107.562 C49.568,107.244 49.704,106.926 49.84,106.608 C50.022,106.564 50.203,106.564 50.429,106.564 C51.202,107.924 51.973,108.515 54.06,108.379 C55.15,107.107 54.423,106.79 54.423,105.746 C54.469,105.655 54.559,105.61 54.651,105.565 C57.509,107.652 54.196,109.649 51.655,109.513 C51.246,113.326 47.707,110.875 46.347,111.147 C46.074,112.281 44.622,112.645 43.805,112.736" fill="#231F20"/>
      <path d="M61.322,104.111 C45.031,93.264 49.977,59.951 58.462,46.244 C58.6,46.2 58.736,46.154 58.917,46.108 C58.826,47.242 58.1,48.967 57.601,50.193 C55.83,62.674 56.285,70.617 62.774,81.825 C69.081,88.68 77.113,103.157 61.322,104.11" fill="#A7A5A6"/>
      <path d="M32.46,103.976 C23.295,94.808 23.657,74.974 27.016,64.037 C27.152,63.991 27.287,63.991 27.469,63.991 C27.469,75.928 27.787,88.091 36.136,97.849 C36.136,98.257 32.506,104.021 32.46,103.976" fill="#A7A5A6"/>
      <path d="M249.458,97.304 C246.871,95.08 244.421,89.589 241.426,88.408 C241.38,88.227 241.336,88.045 241.336,87.864 C254.54,80.602 262.708,70.255 267.382,55.641 C268.29,50.694 267.881,47.925 268.198,43.478 C268.562,43.478 268.925,43.478 269.288,43.524 C269.197,43.705 269.107,43.931 269.015,44.159 C271.647,59.499 263.252,75.836 256.491,89.408 C255.403,91.133 251.818,97.305 249.458,97.305" fill="#A4835B"/>
      <path d="M269.423,43.25 C269.423,42.479 270.239,41.844 270.693,41.299 C274.959,31.314 268.56,20.15 260.937,14.431 C260.71,14.386 260.528,14.34 260.347,14.34 C260.347,14.521 260.347,14.749 260.392,14.975 C267.562,18.878 274.096,32.948 269.331,41.117 C269.15,41.163 268.969,41.208 268.832,41.299 C268.969,39.12 268.47,27.502 266.836,27.366 C266.836,30.724 269.468,37.395 267.426,40.845 C264.885,35.444 263.659,29.499 261.119,24.415 C260.891,24.461 260.664,24.506 260.484,24.552 C260.484,27.728 265.293,35.354 266.02,40.39 C265.884,40.482 265.747,40.572 265.611,40.664 C260.937,36.942 261.163,31.496 258.668,28.138 C258.487,28.228 258.305,28.319 258.124,28.409 C257.67,32.221 261.754,38.303 264.658,41.435 C257.171,42.025 253.949,25.096 252.224,20.875 C251.408,19.559 250.091,18.333 249.774,17.517 C250.954,17.517 252.314,18.243 253.858,18.969 C259.666,16.791 249.366,8.167 246.87,6.988 C246.824,6.806 246.778,6.624 246.734,6.488 C253.858,7.487 260.62,12.842 266.564,17.427 C271.782,23.009 279.588,37.804 269.423,43.25" fill="#785F42"/>
    </g>
  </g>
</svg>
