<?xml version="1.0" encoding="UTF-8"?>
<!DOCTYPE svg PUBLIC "-//W3C//DTD SVG 1.1//EN" "http://www.w3.org/Graphics/SVG/1.1/DTD/svg11.dtd">
<svg version="1.1" xmlns="http://www.w3.org/2000/svg" xmlns:xlink="http://www.w3.org/1999/xlink" x="0" y="0" width="1016" height="520" viewBox="0, 0, 1016, 520">
  <g id="Layer_1">
    <path d="M196.863,405.148 C196.711,406.385 196.376,407.653 195.847,408.854 C194.944,410.908 193.478,412.773 191.363,413.987 C189.735,414.964 187.851,415.501 185.908,415.633 C184.004,415.782 181.841,415.46 179.941,414.444 C178.753,413.794 177.718,412.99 176.796,412.085 C174.985,410.316 173.65,408.141 172.688,405.831 C172.621,405.669 172.55,405.51 172.485,405.35 C172.46,405.284 172.43,405.219 172.404,405.151 C171.793,403.453 171.364,401.615 171.221,399.698 C171.045,397.356 171.294,394.895 172.235,392.395 L180.141,396.222 C178.896,397.879 178.339,400.693 178.712,403.469 C178.812,404.239 178.991,405.011 179.219,405.77 C179.388,406.335 179.583,406.889 179.823,407.421 C180.396,408.702 181.174,409.855 182.158,410.745 C182.194,410.775 182.218,410.82 182.255,410.852 C182.591,411.154 182.992,411.405 183.417,411.63 C184.694,412.303 186.312,412.619 187.945,412.531 C188.062,412.524 188.177,412.524 188.297,412.511 C189.03,412.447 189.764,412.301 190.46,412.065 C192.023,411.573 193.402,410.571 194.523,409.267 C195.536,408.099 196.338,406.686 196.863,405.148 M168.36,292.485 L164.478,305.931 L160.817,266.686 C177.377,264.765 184.459,291.113 168.36,292.485 M224.615,164.063 C228.093,157.944 232.569,152.463 237.315,147.281 C242.144,142.168 247.371,137.433 252.944,133.106 L257.211,129.966 C258.692,128.989 260.136,127.968 261.649,127.021 C263.176,126.085 264.679,125.131 266.317,124.283 C267.096,123.835 267.94,123.41 268.862,123.015 C269.347,122.814 269.664,122.612 270.295,122.411 C270.942,122.211 271.606,122.038 272.268,121.887 L274.587,121.371 L275.771,123.907 C277.074,126.695 278.236,129.559 279.131,132.523 C279.986,135.49 280.653,138.513 281.063,141.576 C281.878,147.699 281.813,153.921 280.919,160.011 C280.067,166.118 278.327,172.077 275.763,177.752 C274.472,180.593 272.975,183.363 271.064,186.031 C270.234,187.202 269.287,188.342 268.185,189.465 C268.517,189.811 268.85,190.158 269.171,190.505 C270.779,192.261 272.198,194.076 273.575,195.903 C276.285,199.567 278.738,203.308 281.107,207.085 C285.808,214.653 290.218,222.31 294.286,230.138 C298.388,237.946 302.32,245.819 306.146,253.74 C309.894,261.703 313.538,269.681 317.074,277.765 L318.165,280.26 L315.979,281.573 C306.707,287.133 297.489,292.781 288.139,298.222 C278.833,303.729 269.454,309.127 259.987,314.392 C268.635,307.87 277.37,301.484 286.177,295.204 C294.204,289.399 302.342,283.755 310.442,278.069 C306.904,271.032 303.259,264.012 299.541,257.059 C295.493,249.327 291.365,241.642 287.077,234.067 C282.759,226.512 278.503,218.928 273.837,211.69 C271.513,208.071 269.119,204.504 266.581,201.154 C264.072,197.876 261.284,194.513 258.69,192.639 L260.47,184.714 C260.069,184.838 261.094,184.416 261.791,183.672 C262.563,182.95 263.364,182.012 264.098,180.99 C265.588,178.955 266.902,176.622 268.028,174.195 C270.282,169.325 271.875,164.066 272.829,158.718 C273.787,153.364 274.006,147.885 273.457,142.493 C272.987,138.136 271.995,133.852 270.543,129.711 C270.14,129.883 269.745,130.027 269.325,130.246 C267.858,130.91 266.403,131.734 264.94,132.529 C263.484,133.341 262.057,134.243 260.613,135.095 L256.366,137.848 C250.744,141.61 245.392,145.812 240.402,150.403 C235.383,154.955 230.648,159.889 226.69,165.42 C222.72,170.927 219.332,176.93 217.173,183.526 C218.405,176.702 221.099,170.133 224.615,164.063 M169.565,402.974 C164.11,398.098 159.82,391.788 157.738,384.506 C157.258,382.669 156.932,380.767 156.906,378.752 C156.932,377.731 156.968,376.704 157.267,375.595 C157.554,374.523 158.042,373.256 159.17,372.278 C160.264,371.305 161.743,370.919 162.942,370.942 C164.166,370.953 165.229,371.245 166.205,371.6 C168.138,372.344 169.741,373.44 171.18,374.667 C174.079,377.094 176.332,380.111 177.953,383.418 C179.519,386.715 180.372,390.53 179.572,394.033 C179.377,390.478 178.009,387.255 176.081,384.485 C174.18,381.7 171.766,379.259 169.089,377.381 C167.747,376.458 166.314,375.687 164.928,375.231 C163.519,374.77 162.269,374.898 161.953,375.368 C161.521,375.735 161.13,377.229 161.196,378.702 C161.241,380.211 161.542,381.8 161.975,383.362 C162.781,386.518 164.214,389.571 165.907,392.453 C167.401,395.039 169.229,397.431 171.221,399.698 C171.045,397.356 171.294,394.895 172.235,392.395 L180.141,396.222 C178.896,397.879 178.339,400.693 178.712,403.469 C178.812,404.239 178.991,405.011 179.219,405.77 C188.181,405.215 197.339,402.592 208.39,396.685 C240.227,379.669 193.569,341.612 213.33,338.868 C233.091,336.123 224.309,382.229 224.309,382.229 C224.309,382.229 242.972,377.29 244.618,366.862 C246.265,356.432 239.129,324.868 269.868,328.162 C281.706,329.433 301.521,329.2 323.665,333.003 C300.009,366.383 249.864,436.886 218.545,479.114 C199.104,496.643 191.728,511.787 190.094,513.42 C229.979,525.861 258.943,505.38 258.943,505.38 C258.943,505.38 245.167,476.644 268.221,471.702 C276.352,456.503 263.281,443.159 302.071,427.057 C324.04,397.935 359.969,379.365 398.515,368.374 C408.367,377.894 417.295,389.804 424.66,404.737 C441.164,383.027 458.339,363.616 464.802,356.45 C465.243,356.411 465.685,356.375 466.127,356.336 C454.522,379.388 413.685,430.355 421,441.33 C431.247,456.699 478.087,477.924 512.853,488.536 C551.851,480.613 565.252,474.442 573.548,466.096 C575.926,460.972 545.97,444.256 526.209,445.354 L519.073,460.998 C496.567,460.949 471.866,431.633 476.807,430.536 C481.747,429.438 567.926,389.368 567.926,389.368 C567.926,389.368 515.23,318.318 516.877,320.085 C518.524,321.849 578.904,382.778 578.904,382.778 C578.904,382.778 617.066,370.798 660.779,360.539 L654.163,380.97 C699.524,395.587 687.406,429.62 663.106,461.744 C645.688,479.022 638.368,488.536 633.246,496.954 C665.632,506.285 693.626,496.954 693.626,496.954 L684.46,464.744 C693.791,461.725 699.524,450.478 699.524,450.478 C699.524,450.478 689.966,411.688 758.031,401.443 C762.42,389.56 764.418,366.163 765.257,346.612 C770.825,347.164 775.57,348.208 779.256,349.846 C792.43,303.735 809.995,279.585 809.995,279.585 C791.332,321.3 772.669,382.778 824.267,434.377 C845.209,417.799 923.364,436.94 948.215,477.742 C951.326,495.174 954.907,513.42 954.907,513.42 C959.654,516.298 986.551,519.801 1009.8,513.42 C992.153,484.86 967.12,460.054 942.321,440.004 C932.299,410.567 920.875,383.876 920.875,383.876 C920.875,383.876 831.22,360.458 912.093,264.215 L873.375,151.153 C872.719,134.324 895.695,129.568 904.041,139.292 C961.839,119.906 1013.4,144.483 1013.4,144.483 C1013.4,144.483 938.238,93.791 856.148,123.388 C819.313,134.397 643.156,175.219 500.41,1.839 C281.944,35.872 217.173,143.458 154.597,181.879 L154.521,182.336 C127.634,184.008 90.923,186.427 90.923,186.427 C90.923,186.427 107.228,249.097 2,254.884 C86.459,280.138 116.271,241.384 148.198,221.335 L138.13,283.427 C165.575,296.052 145.906,401.299 155.782,403.431 C161.748,404.717 167.258,405.596 172.688,405.831 C172.621,405.669 172.55,405.51 172.485,405.35 C171.482,404.597 170.5,403.817 169.565,402.974" fill="#0A0B09"/>
  </g>
</svg>
